<svg width="435" height="158" viewBox="0 0 435 158" fill="none" xmlns="http://www.w3.org/2000/svg">
<path d="M57.2217 4.602C60.8517 1.262 65.2717 0.121998 70.0017 0.0719981C79.0017 -0.00800193 88.0017 -0.0280031 97.0017 0.101997C99.2517 0.131997 101.502 0.791993 103.742 1.19199C104.222 1.27199 104.692 1.44199 105.252 1.59199C105.402 0.101987 106.312 0.0120103 107.472 0.0220103C117.052 0.0620103 126.632 0.0219981 136.222 0.0719981C137.792 0.0819981 139.362 0.491991 140.932 0.501991C142.922 0.511991 144.922 0.352014 146.912 0.182014C150.772 -0.147986 154.462 0.442003 157.932 2.202C158.862 2.672 159.652 2.692 160.642 2.322C166.942 -0.0480018 173.422 -0.63799 180.022 0.77201C181.502 1.09201 182.912 1.75201 184.392 2.27201C184.392 2.27201 184.492 2.22199 184.512 2.16199C184.972 0.0319943 184.972 0.0520091 187.272 0.0520091C201.062 0.0620091 214.852 0.0419981 228.642 0.0719981C232.222 0.0819981 235.672 0.772001 238.852 2.512C239.502 2.862 240.092 3.32201 240.912 3.86201C240.912 2.94201 240.952 2.14199 240.902 1.34199C240.842 0.411987 241.112 0.0319993 242.152 0.0419993C252.902 0.0919993 263.652 0.0820078 274.402 0.0820078C274.862 0.0820078 275.312 0.0820078 275.962 0.0820078C275.962 1.17201 276.022 2.22201 275.942 3.27201C275.882 4.11201 276.162 4.34201 276.992 4.33201C283.822 4.31201 290.652 4.33199 297.492 4.31199C297.962 4.31199 298.522 4.18202 298.882 3.90202C302.502 1.07202 306.742 0.131987 311.182 0.0919871C320.262 0.0119871 329.352 -0.00799339 338.432 0.112007C340.562 0.142007 342.672 0.822013 344.792 1.21201C345.232 1.29201 345.652 1.452 346.282 1.632C346.132 -0.208004 347.302 0.00200051 348.412 0.0120005C357.992 0.0320005 367.572 0.0120078 377.162 0.0820078C378.662 0.0920078 380.162 0.572015 381.672 0.652015C382.912 0.722015 384.172 0.581994 385.402 0.411994C388.942 -0.0680056 392.452 -0.00800925 395.952 0.751991C403.082 2.30199 407.662 7.74199 407.702 15.032C407.782 32.652 407.782 50.282 407.782 67.902C407.782 68.902 408.102 69.072 408.992 69.072C416.952 69.042 424.902 69.042 432.862 69.042C433.312 69.042 433.762 69.042 434.412 69.042C434.412 69.852 434.412 70.582 434.412 71.322C434.402 80.152 434.362 88.982 434.412 97.822C434.422 99.312 433.622 99.262 432.602 99.262C420.102 99.212 407.602 99.202 395.102 99.122C392.282 99.102 389.372 99.292 386.652 98.712C380.592 97.422 375.902 94.112 373.602 88.092C373.162 86.952 372.992 85.672 372.912 84.442C372.802 82.712 372.882 80.962 372.882 79.092C363.962 79.092 355.232 79.092 346.472 79.092C346.402 78.492 346.342 78.012 346.272 77.422C340.942 79.612 335.402 78.992 329.932 79.052C323.972 79.112 318.012 79.082 312.062 79.062C307.142 79.042 302.452 78.212 298.442 75.032C298.232 74.862 297.612 74.902 297.402 75.092C293.762 78.222 289.342 78.982 284.792 79.042C276.172 79.142 267.542 79.112 258.922 79.052C255.622 79.032 252.332 78.692 249.292 77.272C243.632 74.622 241.082 69.952 240.962 63.872C240.882 60.002 240.962 56.122 240.972 52.252C240.972 51.972 240.932 51.702 240.882 51.062C234.432 55.822 227.092 54.542 219.822 54.772C219.822 55.292 219.822 55.722 219.822 56.162C219.812 69.952 219.802 83.742 219.782 97.532C219.782 99.252 219.752 99.252 218.032 99.252C203.952 99.232 189.872 99.252 175.792 99.182C169.652 99.152 164.722 96.482 160.932 91.712C159.282 89.632 158.522 87.162 158.412 84.522C158.332 82.782 158.402 81.022 158.402 79.072C157.842 79.072 157.322 79.072 156.802 79.072C140.302 79.072 123.802 79.062 107.302 79.082C106.232 79.082 105.322 79.032 105.402 77.502C100.022 79.532 94.5417 79.022 89.1117 79.062C83.1117 79.112 77.1117 79.102 71.1117 79.062C66.9517 79.032 62.7917 78.622 59.3117 76.112C57.6717 74.932 56.6717 74.922 55.0317 76.132C51.7617 78.542 47.7817 78.992 43.8417 79.032C35.2217 79.132 26.5917 79.132 17.9717 79.012C15.5417 78.982 13.0418 78.662 10.7118 78.012C4.18175 76.182 0.411721 71.272 0.181721 64.472C0.0217213 59.972 -0.00827135 55.472 0.00172865 50.972C0.0317286 39.102 0.0717311 27.222 0.191731 15.352C0.241731 10.172 2.13172 5.85201 6.62172 2.93201C9.20172 1.25201 12.1017 0.411988 15.1117 0.311988C20.8917 0.101988 26.6817 0.0920078 32.4717 0.0820078C37.0117 0.0720078 41.5517 0.0719895 46.0817 0.28199C50.0217 0.46199 53.6917 1.622 56.7317 4.322C56.8317 4.422 57.0417 4.502 57.2217 4.602ZM159.932 71.952C159.932 70.952 159.932 70.042 159.932 69.142C159.932 54.562 159.932 39.982 159.932 25.402C159.932 23.292 159.702 23.442 161.832 23.412C165.372 23.362 165.372 23.332 165.372 26.822C165.352 45.822 165.342 64.812 165.302 83.812C165.302 85.332 165.612 86.692 166.552 87.892C168.692 90.602 171.532 92.202 174.922 92.232C187.082 92.342 199.252 92.272 211.412 92.292C212.422 92.292 212.792 92.002 212.782 90.932C212.712 86.562 212.732 82.182 212.722 77.812C212.722 77.282 212.722 76.762 212.722 76.052C203.842 76.052 195.122 76.052 186.382 76.052C186.352 75.542 186.322 75.212 186.322 74.882C186.322 55.432 186.272 35.972 186.372 16.522C186.392 13.362 185.352 10.992 182.762 9.34199C181.592 8.59199 180.262 7.76199 178.942 7.62199C175.812 7.28199 172.642 7.21199 169.502 7.25199C165.462 7.30199 161.832 8.542 159.082 11.702C155.692 8.412 154.202 7.43201 151.352 7.30201C148.652 7.18201 145.942 7.25201 143.252 7.43201C139.822 7.66201 136.552 8.55199 133.562 10.942C133.562 9.46199 133.562 8.29199 133.562 7.09199C126.702 7.09199 120.002 7.10201 113.292 7.08201C112.372 7.08201 112.452 7.622 112.452 8.232C112.442 29.022 112.422 49.812 112.412 70.592C112.412 71.032 112.452 71.482 112.472 71.932C119.612 71.932 126.622 71.932 133.682 71.932C133.682 55.762 133.682 39.702 133.682 23.432C134.882 23.432 136.032 23.432 137.182 23.432C138.782 23.442 138.802 23.442 138.792 25.092C138.762 40.382 138.722 55.672 138.692 70.962C138.692 71.282 138.732 71.592 138.752 71.972C145.802 71.952 152.792 71.952 159.932 71.952ZM374.412 71.962C374.412 55.722 374.412 39.612 374.412 23.382C375.992 23.382 377.482 23.342 378.972 23.422C379.202 23.432 379.572 24.042 379.582 24.382C379.622 25.632 379.512 26.882 379.512 28.132C379.562 46.632 379.622 65.122 379.662 83.622C379.662 85.562 380.342 87.182 381.652 88.582C384.042 91.132 387.002 92.302 390.462 92.302C402.082 92.292 413.712 92.282 425.332 92.272C427.332 92.272 427.312 92.242 427.302 90.182C427.282 85.932 427.222 81.682 427.302 77.432C427.322 76.342 427.042 76.112 426.012 76.112C418.262 76.142 410.512 76.112 402.762 76.082C402.082 76.082 401.392 75.992 400.732 75.942C400.732 75.272 400.732 74.772 400.732 74.272C400.762 54.482 400.802 34.692 400.832 14.902C400.842 10.992 398.622 8.24199 394.762 7.50199C390.102 6.60199 385.452 6.932 380.902 8.132C378.692 8.712 376.602 9.792 374.492 10.632C374.492 9.882 374.452 8.98199 374.502 8.09199C374.542 7.38199 374.452 7.04201 373.592 7.05201C367.182 7.07201 360.762 7.03201 354.342 7.02201C354.032 7.02201 353.712 7.08201 353.432 7.11201C353.432 28.792 353.432 50.352 353.432 71.962C360.422 71.962 367.322 71.962 374.412 71.962ZM59.6817 39.482C59.7017 39.482 59.7317 39.482 59.7517 39.482C59.7517 46.022 59.7417 52.562 59.7617 59.102C59.7617 61.262 59.7117 63.442 59.8917 65.592C60.1017 68.102 61.4717 70.002 63.8017 70.962C65.1617 71.522 66.6817 71.952 68.1417 71.972C78.3017 72.052 88.4617 72.052 98.6317 71.982C100.802 71.972 102.902 71.442 104.692 70.012C107.012 68.152 107.302 65.572 107.312 62.912C107.322 50.172 107.292 37.422 107.272 24.682C107.262 21.102 107.382 17.512 107.152 13.952C106.932 10.522 104.682 8.20199 101.302 7.56199C99.7617 7.27199 98.1617 7.10199 96.5917 7.09199C89.0117 7.06199 81.4317 7.092 73.8517 7.132C71.6917 7.142 69.5217 7.14199 67.3617 7.31199C64.4017 7.55199 61.6917 8.58201 60.5117 11.522C59.8717 13.122 59.7417 15.012 59.7217 16.772C59.6317 24.322 59.6817 31.902 59.6817 39.482ZM348.042 39.712C348.062 39.712 348.082 39.712 348.102 39.712C348.102 31.552 348.102 23.392 348.102 15.232C348.102 11.132 346.262 8.63199 342.312 7.59199C341.042 7.25199 339.682 7.09201 338.372 7.08201C331.042 7.05201 323.712 7.08201 316.382 7.11201C313.682 7.12201 310.972 7.122 308.272 7.292C303.442 7.592 300.932 10.142 300.572 14.952C300.482 16.152 300.452 17.362 300.452 18.572C300.452 32.352 300.462 46.142 300.482 59.922C300.482 61.582 300.532 63.252 300.652 64.912C300.882 68.112 302.542 70.292 305.592 71.272C306.882 71.682 308.272 71.982 309.612 71.992C319.522 72.052 329.432 72.042 339.342 71.992C340.562 71.982 341.822 71.702 343.002 71.352C346.272 70.372 348.052 67.852 348.052 64.462C348.032 56.202 348.042 47.952 348.042 39.712ZM247.852 7.102C247.852 8.152 247.802 9.102 247.862 10.042C247.932 11.012 247.522 11.292 246.622 11.202C245.832 11.122 245.042 11.142 244.252 11.122C242.492 11.062 242.462 11.062 242.462 12.872C242.462 16.742 242.502 20.622 242.542 24.492C242.572 27.372 242.582 27.372 245.392 27.412C245.682 27.412 245.982 27.472 246.262 27.432C247.522 27.242 247.882 27.742 247.872 29.022C247.812 40.062 247.822 51.102 247.812 62.132C247.812 63.052 247.812 63.962 247.872 64.882C248.092 68.162 249.772 70.392 252.832 71.362C253.892 71.692 255.022 71.982 256.122 71.982C266.492 72.032 276.872 72.172 287.232 71.942C292.332 71.832 295.292 69.202 295.292 63.932C295.292 53.352 295.282 42.772 295.302 32.202C295.302 31.542 295.122 31.342 294.452 31.342C288.742 31.382 283.042 31.392 277.332 31.412C276.382 31.412 275.432 31.412 274.322 31.412C274.322 31.932 274.322 32.372 274.322 32.812C274.332 36.312 274.352 39.812 274.342 43.312C274.342 47.102 274.292 50.892 274.332 54.682C274.342 55.732 273.982 56.082 272.952 55.992C272.002 55.912 271.032 55.932 270.082 56.002C269.252 56.062 268.972 55.742 268.972 54.942C268.982 46.072 268.972 37.202 268.962 28.322C268.962 27.592 269.182 27.342 269.992 27.352C277.992 27.382 285.982 27.352 293.982 27.382C294.942 27.382 295.302 27.102 295.292 26.122C295.252 21.962 295.282 17.792 295.282 13.632C295.282 12.852 295.282 12.082 295.282 11.282C295.032 11.232 294.882 11.162 294.722 11.162C287.182 11.152 279.642 11.132 272.112 11.162C269.102 11.172 269.082 11.222 269.062 8.172C269.062 7.362 268.832 7.08199 267.992 7.09199C263.202 7.13199 258.412 7.11201 253.622 7.11201C251.772 7.10201 249.902 7.102 247.852 7.102ZM54.2417 34.502C54.2917 34.342 54.3617 34.232 54.3617 34.112C54.3617 27.402 54.4417 20.692 54.3317 13.992C54.2817 11.132 52.8117 8.92201 49.9917 8.05201C48.1917 7.50201 46.2617 7.132 44.3817 7.102C37.0917 7.002 29.8017 7.06199 22.5117 7.09199C19.8017 7.10199 17.0918 7.06201 14.4018 7.27201C9.99175 7.62201 7.35173 10.372 7.00173 14.712C6.95173 15.372 6.95174 16.042 6.95174 16.712C6.96174 31.252 6.97173 45.792 7.00173 60.332C7.00173 61.952 7.08174 63.582 7.14174 65.202C7.20174 66.862 7.8917 68.222 9.1017 69.382C11.0517 71.272 13.4417 71.982 16.0517 71.992C25.7617 72.022 35.4617 72.022 45.1717 72.002C46.1217 72.002 47.1017 71.952 48.0217 71.732C52.1117 70.712 54.4917 68.772 54.4217 64.022C54.3117 56.612 54.3917 49.192 54.3917 41.772C54.3917 41.332 54.3917 40.882 54.3917 40.522C47.2917 40.522 40.3617 40.522 33.3717 40.522C33.3717 44.732 33.3817 48.812 33.3717 52.892C33.3617 55.932 33.3517 55.932 30.3917 55.922C30.1817 55.922 29.9717 55.892 29.7717 55.932C28.4517 56.182 28.1617 55.552 28.1717 54.342C28.2417 46.932 28.2717 39.512 28.2817 32.102C28.2917 29.562 28.1917 27.022 28.2118 24.482C28.2118 24.112 28.5717 23.452 28.8017 23.432C30.2417 23.332 31.7017 23.382 33.3617 23.382C33.3617 27.172 33.3617 30.802 33.3617 34.492C40.4317 34.502 47.3317 34.502 54.2417 34.502ZM191.562 72.012C192.102 72.012 192.552 72.012 193.002 72.012C199.042 72.012 205.082 72.012 211.122 72.012C212.882 72.012 212.852 72.012 212.842 70.262C212.792 63.062 212.772 55.852 212.712 48.652C212.702 47.892 212.962 47.572 213.722 47.622C214.092 47.642 214.472 47.632 214.842 47.632C220.462 47.602 226.092 47.752 231.702 47.492C235.652 47.302 239.312 44.862 239.092 39.492C239.022 37.832 238.972 36.162 238.982 34.492C239.012 27.992 239.082 21.502 239.092 15.002C239.102 11.292 237.422 8.90199 233.892 7.81199C232.402 7.35199 230.792 7.112 229.232 7.102C217.492 7.042 205.742 7.072 193.992 7.072C193.212 7.072 192.422 7.072 191.542 7.072C191.562 28.722 191.562 50.302 191.562 72.012Z" fill="black"/>
<path d="M83.4618 134.992C82.9718 132.732 84.8917 130.332 87.9317 130.002C88.5917 129.932 89.2617 129.892 89.9217 129.942C90.7817 130.012 91.0917 129.702 91.1017 128.822C91.1117 126.932 91.2817 125.002 92.5517 123.512C93.5817 122.292 94.8817 121.292 96.0717 120.192C96.3317 119.952 96.6217 119.742 97.1717 119.302C96.5817 119.302 96.3117 119.242 96.0817 119.312C93.6017 120.012 91.1417 119.782 88.6717 119.252C86.3417 118.752 84.8617 118.692 83.9517 121.632C83.9017 121.802 83.7317 121.942 83.5817 122.142C83.1417 120.862 83.6017 119.032 84.6417 117.882C86.5317 115.792 88.8717 115.232 91.5717 115.862C92.9517 116.182 94.3318 116.462 95.7118 116.772C97.9318 117.262 100.082 116.992 102.202 116.192C102.702 116.002 103.262 116.002 103.802 115.912C103.842 116.042 103.892 116.162 103.932 116.292C103.022 116.842 102.152 117.452 101.202 117.932C97.1417 119.962 95.4117 123.322 95.4417 127.762C95.4717 131.472 95.4117 135.172 95.4317 138.882C95.4417 141.232 94.5017 143.152 92.9517 144.832C92.6817 145.122 92.4617 145.452 92.1417 145.862C94.5417 145.732 98.0217 142.992 98.5617 140.642C98.9917 138.792 99.1417 136.862 99.2217 134.962C99.3517 131.972 99.2917 128.972 99.3617 125.972C99.4417 122.722 100.952 120.242 103.882 118.912C106.602 117.682 109.422 116.612 112.302 115.842C114.172 115.342 115.762 116.552 116.932 117.972C118.402 119.752 118.792 121.882 117.652 123.922C116.752 125.512 115.452 126.892 114.252 128.302C113.712 128.942 112.982 129.422 112.172 130.122C113.602 130.532 114.742 130.862 115.882 131.192C117.682 131.712 118.822 132.972 118.932 134.752C119.142 137.992 119.102 141.242 119.082 144.482C119.082 144.762 118.482 145.192 118.092 145.302C116.252 145.812 114.392 146.242 112.542 146.692C109.932 147.332 107.842 148.942 105.642 150.352C105.272 150.592 104.522 150.752 104.262 150.552C101.672 148.542 98.6317 148.152 95.5417 148.042C92.8117 147.942 90.1417 148.262 87.8017 149.892C86.3017 150.932 86.1017 151.602 86.8617 153.242C86.8817 153.282 86.9017 153.322 86.9117 153.362C86.9817 154.022 87.1617 154.692 87.0517 155.322C87.0217 155.492 85.8617 155.752 85.6617 155.542C85.1317 154.992 84.5417 154.212 84.5517 153.522C84.5617 152.682 84.9917 151.712 85.5417 151.042C86.9117 149.372 88.5417 147.912 89.8817 146.222C90.5917 145.322 91.0417 144.152 91.3517 143.032C91.6617 141.902 90.9817 141.142 89.8717 140.812C88.4717 140.382 87.5017 140.702 86.8317 141.772C86.5717 142.192 86.2718 142.582 85.9018 143.112C85.2118 141.252 86.5517 138.912 88.4317 138.332C89.0217 138.152 89.6518 138.032 90.2718 138.022C91.2218 138.012 91.5417 137.582 91.3917 136.702C91.1117 135.152 90.7918 133.662 88.9618 133.152C87.1418 132.652 85.5017 132.682 84.2217 134.312C84.0117 134.522 83.7818 134.692 83.4618 134.992ZM107.392 132.092C109.602 131.082 111.282 129.732 112.452 127.982C114.852 124.412 114.332 120.052 109.322 117.892C109.062 117.782 108.662 117.862 108.372 117.962C105.302 119.032 103.882 120.972 103.852 124.232C103.822 127.602 103.722 130.982 103.862 134.352C104.032 138.312 102.432 141.162 99.0317 143.102C98.2317 143.562 97.5017 144.142 96.7517 144.662C99.9917 144.882 103.132 145.102 106.372 145.322C106.372 144.562 106.372 143.702 106.372 142.832C106.382 137.542 106.392 132.252 106.382 126.962C106.382 126.312 106.402 125.762 107.382 126.182C107.392 128.072 107.392 129.972 107.392 132.092ZM114.312 143.382C114.792 141.862 113.902 141.342 112.632 141.202C111.692 141.102 110.722 140.962 109.792 141.062C107.392 141.322 107.362 141.412 107.362 143.792C107.362 144.082 107.422 144.382 107.362 144.662C107.102 145.872 107.812 146.442 108.802 146.712C109.272 146.842 109.852 146.792 110.322 146.632C111.182 146.342 111.962 145.812 112.832 145.572C114.012 145.242 114.722 144.732 114.312 143.382ZM111.512 136.202C112.112 136.132 112.692 136.012 113.262 136.022C114.232 136.022 114.452 135.492 114.392 134.662C114.282 133.132 113.382 132.232 112.082 131.522C110.942 130.902 110.102 131.372 109.222 131.972C108.742 132.302 108.102 132.542 107.842 133.002C107.522 133.582 107.382 134.352 107.422 135.022C107.442 135.322 108.042 135.752 108.432 135.832C109.452 136.042 110.502 136.092 111.512 136.202ZM107.422 136.822C107.422 137.942 107.422 139.262 107.422 140.412C109.752 140.412 112.022 140.412 114.282 140.412C114.282 139.312 114.282 138.002 114.282 136.822C111.992 136.822 109.782 136.822 107.422 136.822Z" fill="white"/>
<path d="M236.322 139.832C234.262 139.732 232.492 139.702 230.732 139.522C229.622 139.412 228.522 139.142 227.452 138.802C225.172 138.082 223.752 136.222 223.612 133.932C223.472 131.682 224.602 129.852 226.882 128.842C227.822 128.432 228.262 127.932 228.392 126.852C228.702 124.382 230.312 122.542 231.902 120.802C233.302 119.272 234.922 117.942 236.512 116.612C236.832 116.352 237.542 116.342 237.982 116.482C240.882 117.382 243.762 118.312 246.622 119.332C247.562 119.662 248.022 119.412 248.342 118.552C248.622 117.812 248.952 117.102 250.262 117.242C248.302 120.652 246.442 123.892 244.402 127.432C245.272 127.432 245.872 127.492 246.452 127.422C249.292 127.092 252.012 127.522 254.632 128.632C260.962 131.302 262.392 138.322 257.592 143.262C254.722 146.212 251.322 148.442 247.662 150.302C246.772 150.752 245.912 150.862 245.052 150.372C242.002 148.632 239.072 148.672 235.872 150.252C233.032 151.642 229.862 152.222 226.632 151.552C226.232 151.472 225.822 151.342 225.452 151.162C222.342 149.622 221.932 146.402 224.782 144.432C226.052 143.552 227.722 143.172 229.262 142.802C230.242 142.562 231.332 142.762 232.372 142.772C233.052 142.772 234.002 143.052 234.362 142.712C235.172 141.962 235.632 140.912 236.322 139.832ZM246.272 145.672C246.252 145.832 246.232 146.002 246.212 146.162C247.622 146.572 249.032 146.992 250.452 147.362C250.652 147.412 250.982 147.292 251.142 147.142C252.682 145.702 254.502 144.452 255.662 142.752C258.692 138.332 256.642 133.272 251.522 131.752C248.972 130.992 246.432 131.132 243.862 131.462C241.662 131.742 240.562 132.792 240.142 135.242C241.442 135.112 242.712 134.972 243.972 134.862C246.292 134.672 248.602 134.332 250.872 135.242C253.842 136.432 254.732 139.372 252.602 141.712C251.582 142.842 250.142 143.622 248.832 144.462C248.032 144.972 247.122 145.282 246.272 145.672ZM237.682 128.162C237.682 128.132 237.682 128.102 237.682 128.072C238.342 128.042 239.012 128.022 239.672 127.982C243.452 127.712 243.452 127.712 245.092 124.322C245.112 124.282 245.122 124.242 245.142 124.212C245.572 123.502 245.482 122.942 244.652 122.632C242.592 121.862 240.572 120.962 238.462 120.392C236.602 119.892 234.662 119.902 232.952 121.092C231.612 122.022 230.972 123.662 231.312 125.362C231.582 126.702 232.802 127.782 234.442 127.992C235.522 128.132 236.612 128.112 237.682 128.162ZM235.232 143.062C236.562 143.372 237.572 143.582 238.572 143.852C239.612 144.132 240.682 144.352 241.672 144.772C244.872 146.122 247.092 144.622 248.892 142.522C249.642 141.652 249.822 140.702 249.382 139.632C248.942 138.552 247.972 138.682 247.142 138.752C244.082 138.982 241.032 139.292 237.972 139.592C237.712 139.622 237.372 139.772 237.232 139.982C236.562 140.952 235.942 141.962 235.232 143.062ZM227.892 128.942C227.352 129.862 226.762 130.502 226.592 131.242C226.102 133.312 227.292 134.962 229.632 135.202C232.102 135.462 234.612 135.462 237.102 135.472C238.972 135.472 240.192 134.122 240.312 132.022C239.852 132.022 239.402 132.022 238.942 132.022C236.782 132.022 234.622 132.052 232.462 132.022C230.902 132.002 229.662 131.322 228.782 130.022C228.592 129.752 228.372 129.522 227.892 128.942ZM238.642 148.462C238.102 148.052 237.962 147.872 237.792 147.832C235.982 147.382 234.192 146.782 232.352 146.572C230.522 146.362 228.632 146.422 226.792 146.602C225.802 146.702 224.882 147.382 224.872 148.572C224.852 149.702 225.702 150.172 226.642 150.552C228.362 151.252 230.082 151.032 231.772 150.562C233.962 149.942 236.132 149.232 238.642 148.462Z" fill="white"/>
<path d="M268.272 157.052C268.682 156.782 269.092 156.492 269.522 156.252C271.102 155.342 272.742 154.532 274.262 153.532C275.842 152.492 276.742 150.892 276.802 149.012C276.962 143.892 277.032 138.772 277.062 133.652C277.072 132.302 276.662 130.992 275.532 130.102C275.282 129.902 274.652 129.832 274.412 130.002C273.362 130.742 272.322 131.532 271.402 132.422C271.042 132.772 270.852 133.452 270.842 133.982C270.802 137.562 270.772 141.142 270.862 144.722C270.882 145.462 271.272 146.302 271.752 146.902C272.242 147.512 272.302 147.792 271.652 148.272C270.552 149.072 269.502 149.952 268.352 150.872C266.982 149.782 265.672 148.742 264.082 147.472C266.482 146.532 266.102 144.672 266.102 142.942C266.092 136.572 266.112 130.202 266.072 123.832C266.062 121.822 265.952 119.792 263.782 118.712C263.632 118.642 263.582 118.382 263.482 118.212C263.552 118.102 263.612 118.002 263.682 117.892C264.772 118.482 265.942 118.972 266.942 119.692C267.642 120.192 268.032 120.152 268.612 119.592C269.902 118.332 271.472 117.712 273.632 117.582C273.202 118.092 273.032 118.402 272.772 118.602C271.302 119.722 270.902 121.312 270.862 123.022C270.792 125.772 270.782 128.512 270.752 131.262C270.752 131.412 270.862 131.552 270.962 131.822C273.102 130.092 275.182 128.462 277.202 126.752C277.842 126.212 278.262 126.182 278.922 126.692C280.682 128.072 281.622 129.812 281.622 132.062C281.622 136.812 281.682 141.552 281.612 146.302C281.582 148.692 280.352 150.612 278.592 152.122C275.752 154.562 272.382 156.112 268.912 157.442C268.782 157.492 268.602 157.432 268.452 157.422C268.392 157.292 268.332 157.172 268.272 157.052Z" fill="white"/>
<path d="M306.062 129.932C307.792 128.582 309.232 127.422 310.722 126.332C310.902 126.202 311.402 126.302 311.612 126.462C312.822 127.392 313.912 128.402 313.922 130.112C313.922 130.512 314.042 130.912 314.142 131.512C314.692 131.122 315.112 130.872 315.462 130.552C316.832 129.282 318.202 127.992 319.542 126.682C320.022 126.212 320.392 126.222 320.952 126.582C323.702 128.382 325.212 130.702 325.022 134.172C324.822 137.782 325.032 141.412 325.002 145.042C325.002 145.422 324.732 145.932 324.422 146.162C322.512 147.622 320.572 149.062 318.582 150.422C318.222 150.662 317.492 150.632 317.062 150.442C316.142 150.032 315.292 149.442 314.122 148.752C314.152 152.052 313.792 155.062 316.892 157.372C314.622 157.332 313.252 156.302 311.982 155.202C311.202 154.532 310.672 154.232 309.802 155.082C309.292 155.582 308.502 155.812 307.692 156.022C309.982 153.472 309.302 150.472 309.352 147.442C308.642 147.402 307.972 147.462 307.352 147.312C306.982 147.222 306.512 146.872 306.402 146.532C306.202 145.952 306.382 145.372 307.172 145.252C307.862 145.152 308.562 145.032 309.382 144.902C309.382 142.912 309.382 140.922 309.382 138.932C309.382 137.012 309.382 135.102 309.382 133.182C309.362 130.412 309.112 130.142 306.062 129.932ZM320.342 146.592C320.342 141.992 320.422 137.642 320.292 133.282C320.242 131.782 319.002 130.742 317.742 130.102C316.682 129.562 316.272 130.892 315.542 131.352C315.302 131.502 315.072 131.712 314.912 131.952C314.612 132.402 314.162 132.892 314.152 133.372C314.072 136.942 314.082 140.512 314.082 144.092C314.082 144.382 314.222 144.872 314.402 144.922C316.302 145.512 318.212 146.012 320.342 146.592Z" fill="white"/>
<path d="M163.662 118.032C164.682 118.562 165.762 119.012 166.702 119.662C167.482 120.202 167.982 120.082 168.642 119.512C169.952 118.392 171.502 117.772 173.382 117.712C173.112 118.022 172.892 118.392 172.562 118.642C171.102 119.742 170.562 121.272 170.542 123.002C170.502 125.782 170.532 128.572 170.532 131.672C171.092 131.352 171.452 131.212 171.742 130.982C173.622 129.542 175.472 128.052 177.382 126.662C177.702 126.432 178.452 126.382 178.762 126.602C180.372 127.742 181.322 129.352 181.372 131.342C181.482 136.172 181.542 141.002 181.532 145.832C181.532 146.302 181.012 146.942 180.562 147.202C179.162 148.002 177.652 148.612 176.232 149.402C175.482 149.812 174.852 150.432 174.102 151.022C171.882 149.002 169.282 147.702 166.302 147.182C166.052 147.142 165.812 147.082 165.572 147.042C164.312 146.862 164.242 146.612 164.932 145.572C165.282 145.042 165.612 144.392 165.652 143.772C165.802 141.152 165.882 138.532 165.912 135.912C165.952 132.122 165.902 128.332 165.922 124.542C165.932 122.332 165.532 120.312 163.752 118.802C163.612 118.682 163.562 118.462 163.462 118.292C163.522 118.192 163.592 118.112 163.662 118.032ZM176.822 139.402C176.812 139.402 176.802 139.402 176.802 139.402C176.802 137.322 176.882 135.242 176.762 133.172C176.712 132.302 176.312 131.432 175.952 130.612C175.572 129.752 174.912 129.612 174.142 130.212C173.192 130.952 172.192 131.632 171.292 132.432C170.922 132.762 170.522 133.312 170.512 133.772C170.472 137.092 170.492 140.422 170.582 143.742C170.592 144.162 171.012 144.772 171.402 144.952C172.752 145.582 174.182 146.022 175.562 146.592C176.472 146.972 176.842 146.842 176.812 145.762C176.772 143.632 176.822 141.512 176.822 139.402Z" fill="white"/>
<path d="M285.492 147.302C287.672 145.242 287.052 142.822 287.082 140.542C287.122 137.382 287.042 134.212 287.092 131.052C287.102 130.642 287.482 130.082 287.862 129.852C289.812 128.692 291.812 127.602 293.822 126.532C294.122 126.372 294.612 126.402 294.942 126.532C297.182 127.392 299.392 128.352 301.652 129.182C302.422 129.462 302.542 129.932 302.542 130.602C302.562 135.762 302.602 140.922 302.582 146.092C302.582 146.482 302.182 146.922 301.882 147.252C301.672 147.482 301.302 147.562 301.002 147.712C299.042 148.682 297.092 149.642 294.932 150.712C292.422 148.852 289.222 147.782 285.492 147.302ZM291.652 137.392C291.662 137.392 291.662 137.392 291.672 137.392C291.672 139.512 291.632 141.642 291.702 143.762C291.712 144.192 292.052 144.812 292.422 145.002C293.832 145.712 295.302 146.292 296.762 146.892C297.532 147.212 298.032 147.112 298.022 146.082C297.952 141.792 297.942 137.512 297.852 133.222C297.842 132.822 297.522 132.222 297.182 132.062C295.722 131.382 294.192 130.832 292.692 130.252C291.952 129.962 291.622 130.192 291.642 131.032C291.672 133.142 291.652 135.262 291.652 137.392Z" fill="white"/>
<path d="M142.572 146.382C142.392 146.642 142.252 146.942 142.032 147.152C140.892 148.182 139.702 149.162 138.562 150.192C137.812 150.872 137.212 150.932 136.442 150.152C135.202 148.892 134.262 147.532 134.352 145.412C133.722 145.862 133.292 146.142 132.892 146.462C131.222 147.772 129.552 149.072 127.902 150.412C127.372 150.852 127.012 150.772 126.512 150.342C123.202 147.442 122.442 143.932 124.512 140.042C125.342 138.472 126.452 137.042 127.502 135.612C127.922 135.042 128.052 134.642 127.712 133.962C126.842 132.232 126.092 130.452 125.212 128.512C125.832 128.422 126.262 128.302 126.692 128.312C128.402 128.382 129.832 127.742 131.202 126.772C131.562 126.522 132.242 126.522 132.702 126.652C134.412 127.132 136.052 127.922 137.792 128.192C138.702 128.332 139.742 127.652 140.862 127.292C140.752 127.592 140.652 127.952 140.482 128.262C139.602 129.852 139.102 131.542 139.112 133.382C139.132 136.922 139.112 140.452 139.132 143.992C139.132 144.572 139.192 145.162 139.322 145.722C139.612 147.012 140.222 147.252 141.372 146.592C141.682 146.412 142.012 146.292 142.342 146.142C142.412 146.202 142.492 146.292 142.572 146.382ZM128.612 135.732C127.562 137.892 127.122 139.942 127.392 142.102C127.622 143.952 128.502 145.482 129.992 146.602C130.292 146.822 130.942 146.972 131.192 146.802C132.932 145.652 134.942 144.652 134.382 141.942C134.262 141.342 134.282 140.682 134.382 140.082C134.622 138.672 134.032 138.012 132.702 137.592C131.312 137.132 130.012 136.382 128.612 135.732ZM126.542 129.272C126.472 129.352 126.412 129.442 126.342 129.522C127.712 131.362 127.682 134.032 129.762 135.392C131.102 136.262 132.542 137.122 134.362 137.282C134.362 135.642 134.302 134.142 134.382 132.652C134.432 131.702 134.132 131.222 133.192 130.982C131.502 130.552 129.842 130.012 128.162 129.542C127.652 129.402 127.092 129.362 126.542 129.272Z" fill="white"/>
<path d="M201.322 145.602C200.452 146.272 199.602 146.982 198.702 147.612C197.382 148.552 196.042 149.472 194.672 150.332C194.342 150.542 193.802 150.672 193.442 150.562C191.002 149.782 188.582 148.922 186.152 148.082C186.042 148.042 185.962 147.952 185.722 147.782C187.662 146.172 187.222 143.962 187.242 141.872C187.282 138.502 187.302 135.122 187.242 131.752C187.222 130.582 187.672 129.922 188.722 129.452C190.842 128.502 192.912 127.442 195.032 126.482C195.322 126.352 195.922 126.372 196.092 126.562C198.112 128.822 200.092 131.142 202.072 133.442C202.142 133.522 202.132 133.682 202.162 133.802C199.032 136.012 195.932 138.252 192.782 140.412C192.082 140.892 191.802 141.382 191.822 142.242C191.912 145.412 191.962 145.252 194.772 146.652C196.632 147.572 198.042 147.302 199.532 146.132C200.002 145.762 200.522 145.472 201.022 145.142C201.122 145.312 201.222 145.452 201.322 145.602ZM191.902 139.512C193.962 138.112 195.742 136.912 197.502 135.692C198.132 135.252 197.892 134.802 197.472 134.342C196.062 132.812 194.672 131.262 193.252 129.742C192.962 129.432 192.572 129.212 191.902 128.712C191.902 132.432 191.902 135.782 191.902 139.512Z" fill="white"/>
<path d="M204.512 130.542C204.652 130.302 204.752 130.022 204.952 129.842C206.122 128.772 207.322 127.752 208.492 126.682C209.002 126.222 209.482 126.052 209.992 126.632C210.932 127.712 211.842 128.812 212.972 130.132C214.292 128.972 215.852 127.612 217.602 126.072C218.772 127.472 219.902 128.822 221.142 130.292C220.142 131.192 219.262 132.072 218.282 132.802C218.042 132.982 217.312 132.822 217.062 132.572C216.452 131.962 215.942 131.232 215.492 130.482C215.072 129.782 214.672 129.852 214.062 130.222C212.902 130.922 212.312 131.782 212.352 133.262C212.462 137.052 212.472 140.842 212.352 144.632C212.302 146.272 213.652 146.422 214.512 147.012C214.832 147.232 215.672 146.742 216.252 146.522C216.732 146.342 217.182 146.082 217.652 145.852C217.732 145.992 217.822 146.122 217.902 146.262C215.992 147.812 214.082 149.372 212.202 150.892C210.182 149.612 208.212 148.362 206.142 147.042C208.332 145.472 207.682 142.972 207.732 140.682C207.792 138.062 207.692 135.432 207.652 132.812C207.642 132.312 207.632 131.802 207.522 131.322C207.232 130.012 206.522 129.732 205.352 130.412C205.152 130.522 204.952 130.612 204.742 130.712C204.652 130.662 204.582 130.602 204.512 130.542Z" fill="white"/>
<path d="M158.072 133.182C157.292 132.182 156.602 131.362 155.972 130.492C155.472 129.802 155.072 129.792 154.332 130.262C152.962 131.132 152.582 132.272 152.622 133.842C152.732 137.252 152.662 140.662 152.672 144.082C152.672 145.152 154.152 147.092 155.162 147.222C155.542 147.272 156.012 146.982 156.382 146.752C156.982 146.372 157.532 145.912 158.102 145.492C158.212 145.622 158.322 145.742 158.432 145.872C157.772 146.492 157.142 147.152 156.462 147.732C155.382 148.642 154.302 149.552 153.152 150.372C152.842 150.592 152.192 150.612 151.862 150.432C150.152 149.532 148.502 148.532 146.822 147.562C146.682 147.482 146.542 147.382 146.252 147.212C148.602 145.222 148.072 142.632 148.102 140.192C148.132 137.782 148.112 135.362 148.092 132.952C148.092 132.502 148.062 132.032 147.972 131.592C147.622 129.972 147.152 129.752 145.632 130.452C145.392 130.562 145.132 130.622 144.692 130.472C144.972 130.152 145.212 129.802 145.522 129.532C146.592 128.602 147.722 127.752 148.752 126.782C149.482 126.092 150.082 126.172 150.632 126.882C151.442 127.922 152.192 129.002 153.052 130.172C154.682 129.652 155.792 128.202 157.022 126.962C157.782 126.192 158.212 126.282 158.802 127.022C159.502 127.902 160.282 128.722 160.912 129.642C161.092 129.912 161.052 130.612 160.822 130.842C160.032 131.652 159.122 132.312 158.072 133.182Z" fill="white"/>
<!--  -->
<path d="M159.932 71.952C152.792 71.952 145.802 71.952 138.732 71.952C138.712 71.582 138.672 71.262 138.672 70.942C138.702 55.652 138.742 40.362 138.772 25.072C138.772 23.422 138.762 23.422 137.162 23.412C136.012 23.412 134.862 23.412 133.662 23.412C133.662 39.672 133.662 55.7421 133.662 71.912C126.602 71.912 119.582 71.912 112.452 71.912C112.432 71.4621 112.392 71.012 112.392 70.572C112.402 49.782 112.422 28.992 112.432 8.21204C112.432 7.59204 112.362 7.06201 113.272 7.06201C119.972 7.08201 126.682 7.07202 133.542 7.07202C133.542 8.27202 133.542 9.44203 133.542 10.922C136.532 8.53203 139.802 7.64202 143.232 7.41202C145.922 7.23202 148.642 7.16201 151.332 7.28201C154.182 7.41201 155.672 8.39204 159.062 11.682C161.812 8.52204 165.442 7.28203 169.482 7.23203C172.632 7.19203 175.802 7.26202 178.922 7.60202C180.252 7.74202 181.572 8.57202 182.742 9.32202C185.322 10.972 186.362 13.342 186.352 16.502C186.252 35.952 186.302 55.412 186.302 74.862C186.302 75.192 186.332 75.522 186.362 76.032C195.102 76.032 203.822 76.032 212.702 76.032C212.702 76.742 212.702 77.2721 212.702 77.7921C212.712 82.1621 212.702 86.542 212.762 90.912C212.782 91.982 212.402 92.272 211.392 92.272C199.232 92.252 187.062 92.322 174.902 92.212C171.512 92.182 168.672 90.582 166.532 87.872C165.582 86.672 165.272 85.312 165.282 83.7921C165.322 64.7921 165.332 45.802 165.352 26.802C165.352 23.302 165.362 23.342 161.812 23.392C159.682 23.422 159.912 23.272 159.912 25.382C159.912 39.962 159.912 54.542 159.912 69.122C159.932 70.042 159.932 70.952 159.932 71.952Z" fill="white"/>
<path d="M374.412 71.962C367.322 71.962 360.422 71.962 353.452 71.962C353.452 50.352 353.452 28.792 353.452 7.112C353.732 7.082 354.042 7.022 354.362 7.022C360.782 7.032 367.192 7.072 373.612 7.052C374.472 7.052 374.572 7.39198 374.522 8.09198C374.462 8.98198 374.512 9.88199 374.512 10.632C376.622 9.79199 378.712 8.71199 380.922 8.13199C385.472 6.93199 390.122 6.61198 394.782 7.50198C398.642 8.24198 400.852 10.992 400.852 14.902C400.822 34.692 400.782 54.482 400.752 74.272C400.752 74.772 400.752 75.262 400.752 75.942C401.422 75.992 402.102 76.082 402.782 76.082C410.532 76.102 418.282 76.132 426.032 76.112C427.062 76.112 427.342 76.342 427.322 77.432C427.242 81.682 427.292 85.932 427.322 90.182C427.332 92.242 427.352 92.272 425.352 92.272C413.732 92.292 402.102 92.292 390.482 92.302C387.012 92.302 384.052 91.132 381.672 88.582C380.362 87.182 379.682 85.562 379.682 83.622C379.642 65.122 379.582 46.632 379.532 28.132C379.532 26.882 379.642 25.632 379.602 24.382C379.592 24.042 379.222 23.432 378.992 23.422C377.512 23.332 376.022 23.382 374.432 23.382C374.412 39.622 374.412 55.722 374.412 71.962Z" fill="white"/>
<path d="M59.6817 39.482C59.6817 31.902 59.6317 24.322 59.7117 16.742C59.7317 14.982 59.8517 13.092 60.5017 11.492C61.6817 8.55201 64.3917 7.52199 67.3517 7.28199C69.5017 7.10199 71.6716 7.112 73.8416 7.102C81.4216 7.062 89.0017 7.03199 96.5817 7.06199C98.1517 7.07199 99.7417 7.24199 101.292 7.53199C104.672 8.17199 106.912 10.492 107.142 13.922C107.372 17.492 107.252 21.072 107.262 24.652C107.282 37.392 107.312 50.142 107.302 62.882C107.302 65.542 107.012 68.132 104.682 69.982C102.892 71.412 100.792 71.942 98.6217 71.952C88.4617 72.022 78.3017 72.022 68.1317 71.942C66.6817 71.932 65.1517 71.502 63.7917 70.932C61.4717 69.972 60.1017 68.072 59.8817 65.562C59.7017 63.412 59.7517 61.242 59.7517 59.072C59.7417 52.532 59.7417 45.992 59.7417 39.452C59.7317 39.482 59.7017 39.482 59.6817 39.482ZM80.9117 39.692C80.9017 39.692 80.9017 39.692 80.8917 39.692C80.8917 44.692 80.9117 49.682 80.8717 54.682C80.8617 55.642 81.1017 56.062 82.1417 55.952C82.9617 55.862 83.8117 55.882 84.6317 55.972C85.6917 56.082 85.9817 55.672 85.9717 54.632C85.9417 45.512 85.9717 36.402 85.9617 27.282C85.9617 26.082 86.2917 24.482 85.6617 23.812C85.0717 23.182 83.4117 23.592 82.2417 23.432C81.1617 23.282 80.8717 23.692 80.8717 24.722C80.9317 29.702 80.9117 34.702 80.9117 39.692Z" fill="white"/>
<path d="M348.042 39.712C348.042 47.952 348.032 56.202 348.042 64.442C348.042 67.842 346.262 70.362 342.992 71.332C341.812 71.682 340.552 71.972 339.332 71.972C329.422 72.022 319.512 72.032 309.602 71.972C308.252 71.962 306.872 71.662 305.582 71.252C302.532 70.272 300.872 68.092 300.642 64.892C300.522 63.232 300.472 61.562 300.472 59.902C300.452 46.122 300.442 32.332 300.442 18.552C300.442 17.342 300.472 16.132 300.562 14.932C300.922 10.132 303.432 7.58201 308.262 7.27201C310.962 7.10201 313.672 7.11199 316.372 7.09199C323.702 7.05199 331.032 7.03199 338.362 7.06199C339.682 7.07199 341.032 7.232 342.302 7.572C346.262 8.612 348.092 11.112 348.092 15.212C348.092 23.372 348.092 31.532 348.092 39.692C348.082 39.712 348.062 39.712 348.042 39.712ZM321.722 55.932C323.102 55.932 324.342 55.882 325.572 55.952C326.562 56.012 326.902 55.662 326.872 54.672C326.812 51.802 326.812 48.932 326.812 46.062C326.822 38.992 326.812 31.912 326.872 24.842C326.882 23.762 326.582 23.322 325.472 23.412C324.642 23.482 323.802 23.432 322.982 23.362C322.002 23.282 321.692 23.672 321.692 24.662C321.732 34.022 321.722 43.392 321.722 52.752C321.722 53.772 321.722 54.802 321.722 55.932Z" fill="white"/>
<path d="M247.852 7.10203C249.902 7.10203 251.772 7.10203 253.632 7.10203C258.422 7.10203 263.212 7.11204 268.002 7.08204C268.832 7.07204 269.062 7.36202 269.072 8.16202C269.082 11.212 269.112 11.162 272.122 11.152C279.662 11.122 287.202 11.142 294.732 11.152C294.892 11.152 295.042 11.212 295.292 11.272C295.292 12.072 295.292 12.852 295.292 13.622C295.292 17.782 295.272 21.952 295.302 26.112C295.312 27.102 294.952 27.382 293.992 27.372C285.992 27.342 278.002 27.382 270.002 27.342C269.192 27.342 268.972 27.582 268.972 28.312C268.982 37.182 268.992 46.052 268.982 54.932C268.982 55.732 269.262 56.052 270.092 55.992C271.042 55.922 272.012 55.902 272.962 55.982C273.992 56.072 274.352 55.712 274.342 54.672C274.302 50.882 274.352 47.092 274.352 43.302C274.352 39.802 274.332 36.302 274.332 32.802C274.332 32.362 274.332 31.912 274.332 31.402C275.452 31.402 276.402 31.402 277.342 31.402C283.052 31.382 288.752 31.372 294.462 31.332C295.132 31.332 295.312 31.532 295.312 32.192C295.292 42.772 295.302 53.352 295.302 63.922C295.302 69.192 292.342 71.822 287.242 71.932C276.872 72.162 266.502 72.0221 256.132 71.9721C255.032 71.9721 253.902 71.6821 252.842 71.3521C249.782 70.3921 248.102 68.152 247.882 64.872C247.822 63.962 247.822 63.042 247.822 62.122C247.832 51.082 247.822 40.042 247.882 29.012C247.892 27.742 247.532 27.232 246.272 27.422C245.992 27.462 245.692 27.412 245.402 27.402C242.592 27.362 242.582 27.362 242.552 24.482C242.512 20.612 242.472 16.732 242.472 12.862C242.472 11.052 242.502 11.052 244.262 11.112C245.052 11.142 245.852 11.112 246.632 11.192C247.532 11.282 247.942 10.992 247.872 10.032C247.802 9.10202 247.852 8.15203 247.852 7.10203Z" fill="white"/>
<path d="M54.2417 34.502C47.3317 34.502 40.4317 34.502 33.3317 34.502C33.3317 30.802 33.3317 27.182 33.3317 23.392C31.6717 23.392 30.2217 23.342 28.7717 23.442C28.5417 23.462 28.1817 24.122 28.1817 24.492C28.1617 27.032 28.2617 29.572 28.2517 32.112C28.2417 39.532 28.2117 46.942 28.1417 54.352C28.1317 55.562 28.4217 56.192 29.7417 55.942C29.9417 55.902 30.1617 55.932 30.3617 55.932C33.3217 55.942 33.3417 55.942 33.3417 52.902C33.3517 48.822 33.3417 44.752 33.3417 40.532C40.3317 40.532 47.2717 40.532 54.3617 40.532C54.3617 40.892 54.3617 41.342 54.3617 41.782C54.3617 49.202 54.2817 56.612 54.3917 64.032C54.4617 68.782 52.0817 70.722 47.9917 71.742C47.0717 71.972 46.0917 72.012 45.1417 72.012C35.4317 72.032 25.7317 72.032 16.0217 72.002C13.4117 71.992 11.0217 71.282 9.07172 69.392C7.87172 68.232 7.18169 66.882 7.11169 65.212C7.05169 63.592 6.98168 61.962 6.97168 60.342C6.95168 45.802 6.94169 31.262 6.92169 16.722C6.92169 16.052 6.92168 15.392 6.97168 14.722C7.31168 10.382 9.9517 7.63198 14.3717 7.28198C17.0617 7.07198 19.7817 7.11199 22.4817 7.10199C29.7717 7.07199 37.0617 7.012 44.3517 7.112C46.2317 7.142 48.1617 7.51198 49.9617 8.06198C52.7817 8.93198 54.2517 11.132 54.3017 14.002C54.4117 20.712 54.3417 27.412 54.3317 34.122C54.3617 34.232 54.2917 34.352 54.2417 34.502Z" fill="white"/>
<path d="M191.562 72.012C191.562 50.302 191.562 28.7219 191.562 7.06194C192.442 7.06194 193.232 7.06194 194.012 7.06194C205.762 7.06194 217.502 7.03194 229.252 7.09194C230.812 7.10194 232.422 7.34196 233.912 7.80196C237.442 8.89196 239.112 11.282 239.112 14.992C239.102 21.492 239.022 27.9819 239.002 34.4819C238.992 36.1519 239.042 37.8119 239.112 39.4819C239.322 44.8519 235.662 47.2919 231.722 47.4819C226.112 47.7519 220.482 47.6019 214.862 47.6219C214.492 47.6219 214.112 47.6419 213.742 47.6119C212.992 47.5619 212.732 47.892 212.732 48.642C212.792 55.842 212.812 63.0519 212.862 70.2519C212.872 72.0019 212.892 72.0019 211.142 72.0019C205.102 72.0019 199.062 72.0019 193.022 72.0019C192.552 72.0119 192.102 72.012 191.562 72.012ZM212.702 27.5019C212.712 27.5019 212.722 27.5019 212.722 27.5019C212.722 28.5019 212.762 29.5019 212.712 30.5019C212.682 31.1619 212.942 31.402 213.572 31.402C214.732 31.392 215.902 31.462 217.062 31.382C217.352 31.3619 217.822 30.872 217.832 30.592C217.892 28.472 217.882 26.352 217.802 24.232C217.792 23.962 217.292 23.5119 216.982 23.4719C215.912 23.3519 214.822 23.402 213.742 23.362C212.912 23.332 212.652 23.732 212.692 24.512C212.732 25.502 212.702 26.5019 212.702 27.5019Z" fill="white"/>
<path d="M80.9117 39.6919C80.9117 34.6919 80.9317 29.702 80.8917 24.702C80.8817 23.672 81.1717 23.2619 82.2617 23.4119C83.4317 23.5719 85.0817 23.162 85.6817 23.792C86.3017 24.462 85.9817 26.062 85.9817 27.262C85.9917 36.382 85.9617 45.4919 85.9917 54.6119C85.9917 55.6519 85.7117 56.062 84.6517 55.952C83.8317 55.872 82.9817 55.8419 82.1617 55.9319C81.1317 56.0419 80.8817 55.632 80.8917 54.662C80.9317 49.672 80.9117 44.6719 80.9117 39.6719C80.9017 39.6919 80.9017 39.6919 80.9117 39.6919Z" fill="black"/>
<path d="M321.722 55.932C321.722 54.802 321.722 53.772 321.722 52.742C321.722 43.382 321.722 34.012 321.692 24.652C321.692 23.672 322.002 23.282 322.982 23.352C323.812 23.412 324.652 23.462 325.472 23.402C326.582 23.312 326.882 23.752 326.872 24.832C326.812 31.902 326.822 38.982 326.812 46.052C326.812 48.922 326.812 51.792 326.872 54.662C326.892 55.652 326.552 56.002 325.572 55.942C324.342 55.882 323.102 55.932 321.722 55.932Z" fill="black"/>
<path d="M212.702 27.502C212.702 26.502 212.732 25.502 212.692 24.502C212.662 23.722 212.922 23.322 213.742 23.352C214.822 23.392 215.912 23.352 216.982 23.462C217.292 23.492 217.792 23.942 217.802 24.222C217.882 26.342 217.882 28.462 217.832 30.582C217.822 30.862 217.352 31.352 217.062 31.372C215.902 31.452 214.732 31.382 213.572 31.392C212.942 31.392 212.682 31.162 212.712 30.492C212.762 29.492 212.722 28.492 212.722 27.492C212.722 27.502 212.712 27.502 212.702 27.502Z" fill="black"/>
</svg>
