<svg width="91" height="91" viewBox="0 0 91 91" fill="none" xmlns="http://www.w3.org/2000/svg">
<path d="M90.6234 35.0412L86.3501 34.8239C86.0604 32.738 85.9445 30.5217 86.1473 27.9722C86.4949 23.6988 86.9295 20.4685 87.2772 17.8755C88.1608 11.3569 88.5954 8.0831 84.6118 4.25884L80.1646 0L80.4109 6.12748C80.4254 6.56206 80.5123 15.1087 71.7194 24.4811C67.6199 21.0189 61.7966 18.0493 55.3504 18.0493C52.2939 18.0493 49.2808 18.7012 46.3836 20.0049L45.6594 20.3236L44.9351 20.0049C42.0379 18.7157 39.0248 18.0493 35.9683 18.0493C29.5221 18.0493 23.6988 21.0189 19.5993 24.4811C9.48822 13.9643 8.21347 6.46069 8.21347 6.38826L7.35881 0.115867L3.73735 5.31628C1.47756 8.53213 2.08596 10.9513 2.98408 14.6162C3.6794 17.4409 4.64995 21.3231 5.20042 27.9577C5.35976 29.8843 5.33079 31.6226 5.18593 33.2595C5.1135 33.7375 5.04107 34.2445 4.95416 34.795L0 35.0702L4.22986 38.88C4.22986 38.88 4.24435 38.88 4.24435 38.8944C4.02706 39.807 3.80977 40.7052 3.578 41.6178C2.54951 45.6883 1.50652 49.8457 1.8397 55.2055C1.81073 55.5966 1.78176 55.9878 1.76727 56.3644C1.69484 57.7985 1.70933 59.2181 1.76727 60.5942C1.86867 63.3466 2.25979 65.8961 2.79577 68.04C3.31726 70.1839 4.04155 71.8787 4.6065 73.0231C4.88173 73.6026 5.14247 74.0226 5.3163 74.3123C5.49013 74.6021 5.57705 74.7614 5.57705 74.7614C5.57705 74.7614 5.5191 74.5876 5.4177 74.2689C5.3163 73.9502 5.14247 73.4866 4.99761 72.8637C4.64995 71.6614 4.25884 69.9231 3.99809 67.8082C3.8822 66.8956 3.80978 65.925 3.73735 64.8965C4.18641 66.3162 4.72238 67.8082 5.35976 69.3872C13.8919 90.3916 42.3276 91 45.5435 91H45.6738H45.8042C48.3972 91 67.475 90.5944 79.1941 79.3534C79.0927 79.5128 78.9913 79.701 78.8899 79.8604C78.6581 80.2081 78.4263 80.5557 78.209 80.8599C77.7889 81.4973 77.4268 82.0622 77.0791 82.4968C76.4273 83.3949 76.0651 83.931 76.0651 83.931C76.0651 83.931 76.5866 83.5543 77.4703 82.859C77.9338 82.5258 78.4263 82.0623 78.9913 81.5118C79.281 81.2366 79.5707 80.9468 79.8894 80.6426C80.1791 80.3095 80.4833 79.9618 80.8165 79.5997C82.1202 78.1511 83.4239 76.2824 84.6263 74.1675C84.916 73.6315 85.2057 73.081 85.4954 72.5306C85.7851 71.9801 86.0314 71.3862 86.2776 70.7923C86.5384 70.2129 86.7702 69.6044 86.9874 68.996C87.2047 68.3876 87.4365 67.7792 87.6248 67.1563C87.9725 65.8961 88.3201 64.6503 88.5519 63.39C88.8561 62.1442 88.9286 60.884 89.0879 59.6816C89.1169 59.2905 89.1313 58.8994 89.1603 58.5083C90.2902 51.4826 89.03 46.485 87.7842 41.6178C87.5524 40.7052 87.3206 39.807 87.1178 38.8944C87.1613 38.851 87.2047 38.8075 87.2482 38.7641L90.6234 35.0412ZM35.9683 20.4105C38.5323 20.4105 41.2267 20.932 43.979 22.1633V22.4385C43.7327 22.7138 43.3706 23.0325 42.8201 23.3512C41.6468 24.0755 39.5898 24.51 37.7791 25.6255C36.0408 26.6684 34.3459 27.8418 33.2885 28.9427C32.7525 29.4931 32.3614 29.9857 32.1151 30.3623C31.8688 30.7245 31.753 30.9562 31.753 30.9562C31.753 30.9562 31.8978 30.7534 32.173 30.4058C32.4483 30.0581 32.8829 29.609 33.4623 29.131C34.6067 28.1604 36.3595 27.1899 38.1702 26.3352C39.9085 25.4661 41.922 25.2633 43.4285 24.568C43.6313 24.4811 43.8052 24.3941 43.979 24.2927V28.5805C43.8052 28.088 43.6024 27.6389 43.3996 27.3058C43.0809 26.7553 42.8201 26.4511 42.8201 26.4511C42.8201 26.4511 42.8491 26.8567 42.7767 27.4362C42.7187 28.0156 42.5159 28.7399 42.2117 29.3773C41.951 29.8988 41.6323 30.3478 41.3281 30.6665C40.1692 31.0576 38.5758 31.4342 36.4029 31.695C36.7506 31.1735 37.1851 30.5796 37.6921 30.0291C38.373 29.2903 39.1407 28.624 39.7781 28.1894C40.401 27.7404 40.8645 27.4796 40.8645 27.4796C40.8645 27.4796 40.3575 27.5955 39.6043 27.8418C38.851 28.088 37.866 28.5081 36.9244 29.0586C35.9828 29.6091 35.0992 30.2899 34.4763 30.8693C33.8534 31.4488 33.4768 31.8833 33.4768 31.8833L33.5202 31.9123C33.0857 31.9268 32.6366 31.9558 32.1586 31.9558C30.7534 31.9847 29.2904 32.3179 27.8128 32.8249C28.0446 32.5062 28.2764 32.1875 28.5081 31.8543C29.5221 30.4637 30.5941 29.1455 31.5212 28.2618C31.9702 27.8128 32.3903 27.4651 32.68 27.2334C32.9843 27.0016 33.1436 26.8712 33.1436 26.8712C33.1436 26.8712 32.9553 26.9726 32.6221 27.1464C32.2889 27.3203 31.8109 27.5955 31.2749 27.9722C30.174 28.6964 28.8413 29.8408 27.581 31.0431C26.3208 32.2455 25.0895 33.4478 24.1479 34.259C24.061 34.3314 23.9885 34.3893 23.9161 34.4618C19.5559 36.5477 15.1232 39.1552 11.1106 39.1552C9.80691 39.1552 8.54664 38.8655 7.34432 38.1991C7.48918 38.1847 7.61955 38.1846 7.76441 38.1701C9.66205 38.0543 12.226 37.8225 14.7031 37.0982C17.1947 36.4029 19.469 35.1137 20.8596 33.8099C21.5694 33.1726 22.0619 32.5497 22.3806 32.1006C22.54 31.8833 22.6559 31.695 22.7283 31.5646C22.8007 31.4342 22.8442 31.3763 22.8442 31.3763C22.8442 31.3763 22.8007 31.4343 22.6993 31.5502C22.6124 31.666 22.482 31.8399 22.2937 32.0282C21.9316 32.4338 21.3666 32.9697 20.6133 33.5057C19.1213 34.5777 16.8181 35.5337 14.4279 35.8814C13.0952 36.0987 11.748 36.1566 10.4877 36.1566C12.7475 35.4034 15.2536 34.0562 16.5139 31.6515C18.5853 27.6969 26.3353 20.4105 35.9683 20.4105ZM74.8338 31.6805C76.0941 34.0707 78.5567 35.4178 80.8165 36.1856C79.6286 36.1856 78.3684 36.1132 77.1081 35.9104C74.7179 35.5482 72.4147 34.6067 70.9227 33.5347C70.1694 33.0132 69.6044 32.4627 69.2423 32.0571C69.054 31.8543 68.9236 31.695 68.8367 31.5791C68.7498 31.4632 68.6918 31.4053 68.6918 31.4053C68.6918 31.4053 68.7353 31.4777 68.8077 31.5936C68.8802 31.7095 68.996 31.9123 69.1554 32.1296C69.4741 32.5786 69.9666 33.2015 70.6764 33.8389C72.067 35.1426 74.3413 36.4318 76.8329 37.1272C79.31 37.8515 81.8884 38.0688 83.7716 38.1991C83.9309 38.2136 84.0613 38.2136 84.2062 38.2281C83.1922 38.851 82.0768 39.1262 80.8599 39.1262C76.9633 39.1262 72.1395 36.4174 67.4461 34.3314C67.4316 34.3169 67.4171 34.3024 67.3881 34.288C66.432 33.4767 65.2152 32.2744 63.9405 31.0721C62.6802 29.8698 61.333 28.7254 60.2466 28.0011C59.7106 27.6245 59.2326 27.3637 58.8994 27.1754C58.5662 27.0016 58.3779 26.9002 58.3779 26.9002C58.3779 26.9002 58.5518 27.0305 58.8415 27.2623C59.1312 27.4941 59.5513 27.8418 60.0003 28.2908C60.9274 29.1745 61.9994 30.5071 63.0134 31.8833C63.2597 32.2165 63.4914 32.5497 63.7377 32.8684C62.1587 32.3469 60.6232 31.9992 59.1891 31.9702C58.7835 31.9702 58.3924 31.9412 58.0013 31.9268L58.0592 31.8978C58.0592 31.8978 57.6826 31.4632 57.0597 30.8838C56.4368 30.3043 55.5532 29.6235 54.6116 29.073C53.67 28.5226 52.685 28.1025 51.9317 27.8562C51.1785 27.61 50.6715 27.4941 50.6715 27.4941C50.6715 27.4941 51.135 27.7549 51.7579 28.2039C52.3953 28.653 53.1775 29.3048 53.8439 30.0436C54.3509 30.6086 54.7999 31.2025 55.1476 31.724C53.0471 31.4922 51.4537 31.1445 50.2948 30.7679C49.9761 30.4347 49.5995 29.9712 49.3243 29.3917C49.0201 28.7544 48.8173 28.0301 48.7593 27.4506C48.6869 26.8712 48.7159 26.4656 48.7159 26.4656C48.7159 26.4656 48.4551 26.7698 48.1364 27.3203C47.8467 27.7838 47.557 28.4647 47.3687 29.2324V23.3656C47.4846 23.4815 47.6005 23.5974 47.7308 23.7133C48.3972 24.3072 49.3098 24.7563 50.2514 25.1184C51.193 25.4806 52.1925 25.7848 53.1051 26.2049C54.9882 27.0885 56.8279 28.088 58.0158 29.0875C58.6242 29.5801 59.0732 30.0581 59.363 30.4058C59.6527 30.7534 59.7975 30.9707 59.7975 30.9707C59.7975 30.9707 59.6672 30.7389 59.4064 30.3623C59.1457 29.9857 58.7401 29.4497 58.1751 28.8992C57.0597 27.7548 55.2779 26.567 53.4672 25.495C52.5256 24.9446 51.5406 24.539 50.6859 24.1189C49.8313 23.6988 49.1215 23.2353 48.6579 22.7283C48.3972 22.4531 48.1944 22.1633 48.0495 21.917C50.5701 20.8885 53.0182 20.454 55.3793 20.454C64.9835 20.4105 72.7479 27.6969 74.8338 31.6805ZM45.6594 37.5328C44.3122 37.5328 43.0809 37.7791 41.893 38.0108C40.8645 38.2136 39.9085 38.4019 38.9959 38.4019C38.3006 38.4019 37.6921 38.286 37.0982 38.0398C35.1426 37.2141 33.0712 36.0263 30.8548 34.4328C31.3039 34.3604 31.7385 34.3025 32.173 34.3025C33.0712 34.288 33.8969 34.2445 34.6936 34.201C36.3884 34.5487 40.2272 35.1426 46.2822 35.0267C51.7144 34.9253 55.3504 34.5197 57.277 34.2445C57.8709 34.2735 58.4938 34.3025 59.1457 34.3025C59.5658 34.3025 60.0003 34.3604 60.4494 34.4328C58.7256 35.6641 57.1321 36.6492 55.6256 37.3879C54.5971 37.8949 53.5686 38.1267 52.3084 38.1267C51.3378 38.1267 50.3383 37.9819 49.2808 37.837C48.1219 37.6921 46.9341 37.5328 45.6594 37.5328ZM78.5132 32.3903C77.8469 31.8833 77.2964 31.2894 76.9198 30.5796C76.21 29.2179 75.0366 27.6824 73.5446 26.1614C75.4567 24.1189 76.9777 22.1054 78.1801 20.1933C77.8903 24.2783 78.1511 28.3198 78.5132 32.3903ZM14.3989 30.5796C14.3844 30.6086 14.3555 30.6375 14.341 30.6665C14.3265 30.4058 14.312 30.1305 14.2686 29.8553C14.1671 29.2179 14.0223 28.5371 13.834 27.8562C13.6022 27.1899 13.3415 26.5525 13.0662 25.9586C12.7765 25.3647 12.4433 24.8577 12.1536 24.4376C11.8639 24.003 11.5742 23.6843 11.3714 23.4526C11.1686 23.2353 11.0382 23.1049 11.0382 23.1049C11.0382 23.1049 11.1106 23.2643 11.241 23.5395C11.3859 23.8002 11.5452 24.2058 11.748 24.6549C11.9798 25.1039 12.1681 25.6689 12.4144 26.2483C12.6461 26.8278 12.8634 27.4651 13.0517 28.1025C13.2545 28.7399 13.4429 29.3773 13.5732 29.9857C13.6746 30.4927 13.7905 30.9562 13.8629 31.3908C12.3709 33.216 9.58962 34.1286 7.53263 34.5197C7.77889 32.4772 7.85132 30.2609 7.64852 27.7693C7.30086 23.6409 6.80834 20.5119 6.30134 18.0638C7.25741 20.6858 8.47421 23.1773 9.53168 24.9591C10.0532 25.8717 10.5312 26.6105 10.8789 27.1175C11.2265 27.6245 11.4148 27.9142 11.4148 27.9142C11.4148 27.9142 11.2555 27.5955 10.9803 27.0595C10.705 26.5091 10.3429 25.7268 9.93728 24.7563C9.12608 22.8297 8.25693 20.1933 7.69198 17.5134C7.17049 14.9928 6.90974 12.4578 6.86629 10.4732C8.25693 13.8919 11.2845 19.469 17.7451 26.2049C16.2821 27.6824 15.1087 29.2179 14.3989 30.5796ZM7.67749 42.5739C7.41675 42.907 7.06909 43.385 6.72143 44.0079C5.98265 45.2392 5.22939 47.021 4.57752 48.8028C4.56304 48.8463 4.54855 48.8752 4.53407 48.9187C4.95416 45.9201 5.72191 43.2112 6.41723 40.372C7.83684 41.1108 9.40131 41.4874 11.0817 41.4874C11.748 41.4874 12.4144 41.415 13.0952 41.2991C13.9933 41.357 14.9059 41.357 15.8185 41.2991C17.6727 41.1977 19.5124 40.8935 21.3087 40.43C22.5689 40.1113 23.8292 39.6912 24.8722 38.9379C24.3362 40.0243 23.8002 41.2412 23.4091 42.5304C22.6993 44.7757 22.6124 47.1659 22.9456 48.8607C23.1049 49.7154 23.3512 50.3817 23.554 50.8453C23.7568 51.3088 23.8871 51.5551 23.8871 51.5551C23.8871 51.5551 23.7857 51.2943 23.6554 50.8163C23.525 50.3383 23.3801 49.6574 23.3367 48.8172C23.2353 47.1514 23.6409 44.9495 24.568 42.9795C25.4806 40.9949 26.7843 39.2132 27.7983 37.895C28.3633 37.1852 28.8268 36.6057 29.131 36.2146C31.695 38.0688 33.9983 39.387 36.1567 40.2996C37.1417 40.7197 38.0833 40.8645 39.0104 40.8645C39.0393 40.8645 39.0683 40.8645 39.0973 40.8645C38.9524 40.9225 38.7931 40.9949 38.6482 41.0529C37.7211 41.5309 36.9968 42.0089 36.5043 42.3566C36.0263 42.7332 35.7655 42.9505 35.7655 42.9505C35.7655 42.9505 36.0842 42.8201 36.6492 42.6318C37.1996 42.4145 37.9964 42.1538 38.9669 41.922C39.923 41.6468 41.0529 41.415 42.2697 41.2846C43.472 41.1108 44.7757 41.0384 46.0794 41.1253C47.3687 41.1398 48.6724 41.2846 49.8602 41.5599C51.0626 41.7627 52.178 42.0813 53.1051 42.429C54.0611 42.7187 54.8289 43.0519 55.3649 43.2981C55.9153 43.5299 56.2195 43.6748 56.2195 43.6748C56.2195 43.6748 55.9733 43.4285 55.5242 43.0229C55.0607 42.6463 54.3653 42.1248 53.4817 41.5743C52.8443 41.2267 52.0911 40.879 51.2799 40.5603C51.613 40.5893 51.9607 40.6038 52.3084 40.6038C53.728 40.6038 55.1765 40.372 56.7265 39.6043C57.8854 39.0393 59.0732 38.3295 60.3335 37.5038C60.8985 38.5903 61.7241 40.2996 62.376 42.1103C63.5204 45.1089 64.1288 48.3392 64.1288 48.3392C64.1288 48.3392 64.2881 45.0654 63.8536 41.7482C63.7956 41.2267 63.7232 40.7197 63.6363 40.2127C64.5344 42.4 65.4325 45.0654 66.0264 47.8177C66.8087 51.2509 66.9246 54.8289 66.5045 57.4653C66.3017 58.7835 66.012 59.8555 65.7657 60.6087C65.5194 61.3475 65.3456 61.7676 65.3456 61.7676C65.3456 61.7676 65.5484 61.362 65.8671 60.6522C66.1713 59.9279 66.5624 58.8704 66.8811 57.5522C67.533 54.9158 67.7358 51.2364 67.2433 47.6294C66.7942 44.0079 65.8236 40.4879 64.911 37.895C64.6937 37.2866 64.4909 36.7216 64.2881 36.2291C64.3026 36.2435 64.3316 36.258 64.3461 36.2725C65.5774 37.0982 66.8521 37.8804 68.1559 38.5903C70.7488 39.9954 73.4722 41.1543 76.2969 42.0524C77.3109 42.3711 78.3684 42.6752 79.2665 43.2402C79.3679 43.2981 79.4548 43.3706 79.5417 43.4285C79.6431 44.2977 79.73 45.1668 79.8314 46.036C79.7735 46.2388 79.7156 46.4416 79.6721 46.6589C79.4114 47.7163 79.1072 48.9621 78.8899 50.3238C78.6726 51.671 78.4843 53.134 78.3394 54.5826C78.2525 56.0457 78.1946 57.5088 78.1801 58.8704C78.1801 60.2466 78.267 61.5214 78.3539 62.6078C78.4263 63.6942 78.5857 64.6068 78.6726 65.2297C78.7885 65.8526 78.8464 66.2148 78.8464 66.2148C78.8464 66.2148 78.8609 65.8526 78.8754 65.2152C78.8754 64.5779 78.9188 63.6652 78.9333 62.5788C78.9333 61.4924 79.0347 60.2321 79.0637 58.8704C79.1216 57.5232 79.2086 56.0747 79.3534 54.6406C79.4548 53.2065 79.5997 51.7724 79.759 50.4252C79.8749 49.585 79.9618 48.7883 80.0487 48.0495C80.5123 52.5401 80.8599 57.0308 80.4399 61.4344C80.3964 61.7097 80.3529 61.9849 80.3095 62.2601C79.7735 65.5194 79.1796 68.8367 77.5572 71.7628C76.688 73.3273 75.5581 74.7179 74.2399 75.9492C74.2254 75.8044 74.2109 75.674 74.1965 75.5436C73.9937 73.8343 73.6315 71.9222 73.2549 69.9231C72.8927 67.9241 72.5451 65.8526 72.4437 63.7811C72.2409 59.6237 73.1969 55.3504 74.0226 52.2214C74.4427 50.6425 74.8193 49.3388 75.0946 48.4261C75.3698 47.5135 75.5292 46.9921 75.5292 46.9921C75.5292 46.9921 75.2974 47.4845 74.8918 48.3537C74.4862 49.2228 73.9212 50.4542 73.2694 51.9607C71.9946 54.9737 70.3722 59.1312 69.9086 63.6942C69.6769 65.9685 69.7348 68.2283 69.8072 70.2853C69.8797 72.3423 69.9521 74.2109 69.9231 75.7609C69.8942 77.2674 69.7638 78.4553 69.6189 79.281C67.6633 80.3964 65.5629 81.3235 63.448 82.0912C62.434 82.4534 61.391 82.7866 60.3625 83.1052C59.841 80.3674 58.4648 77.0357 56.6976 73.9791C54.9303 70.8792 52.9747 67.9675 51.6855 65.6498C51.0336 64.5054 50.5411 63.5204 50.2224 62.8251C49.8892 62.1298 49.7299 61.7241 49.7299 61.7241C49.7299 61.7241 49.8603 62.1442 50.1355 62.8685C50.3962 63.5928 50.8163 64.6213 51.3523 65.8381C52.4387 68.2572 54.1336 71.3717 55.5966 74.5441C57.0742 77.702 58.0882 81.0338 58.32 83.5253C58.32 83.5833 58.32 83.6267 58.3345 83.6702C55.2924 84.4524 52.1925 85.0029 49.0635 85.3071C49.0635 85.2636 49.0635 85.2202 49.078 85.1767C49.136 83.5978 49.0056 81.7725 48.6724 79.8894C48.3392 77.9917 47.8033 76.0362 47.1804 74.1385C45.8911 70.3432 44.3411 66.7218 43.4285 63.897C42.965 62.4919 42.6318 61.3041 42.429 60.4639C42.2262 59.6237 42.1248 59.1312 42.1248 59.1312C42.1248 59.1312 42.1683 59.6237 42.2986 60.4784C42.4145 61.333 42.6463 62.5643 42.9795 64.0129C43.6313 66.9246 44.8337 70.7198 45.7318 74.5296C46.1664 76.4273 46.4851 78.3539 46.6299 80.1356C46.7748 81.9174 46.7168 83.5833 46.543 84.9594C46.514 85.1477 46.4851 85.3216 46.4561 85.4954C43.5589 85.6547 40.6328 85.5968 37.7356 85.3505C37.808 83.4384 37.7646 81.0048 37.4893 78.5857C37.2141 76.0217 36.6926 73.5011 36.1856 71.6614C35.6931 69.8073 35.2585 68.6194 35.2585 68.6194C35.2585 68.6194 35.5048 69.8652 35.7076 71.7484C35.9249 73.6315 36.0552 76.1375 35.9538 78.6436C35.8524 80.9903 35.5482 83.308 35.2151 85.0753C30.0581 84.409 25.0026 83.1052 20.2367 81.1497C18.4694 80.4254 16.7311 79.5852 15.0942 78.6146C14.6742 78.2525 14.2541 77.8759 13.8485 77.4847C13.8774 77.4413 13.9064 77.4123 13.9499 77.3689C14.6886 76.4852 15.4129 75.0222 15.6012 73.2404C15.8185 71.4442 15.4564 69.4885 14.9639 67.6054C14.4714 65.7367 13.9933 63.7666 13.6022 61.7676C12.791 57.784 12.5013 53.699 12.7041 50.628C12.791 49.0925 13.0083 47.8322 13.1531 46.9486C13.3415 46.065 13.4429 45.5724 13.4429 45.5724C13.4429 45.5724 13.2835 46.0649 13.0228 46.9196C12.791 47.7888 12.4578 49.0345 12.226 50.5845C11.719 53.6555 11.6321 57.8564 12.0812 61.9994C12.284 64.0708 12.6027 66.1423 12.9069 68.04C13.2111 69.9087 13.327 71.589 13.0373 72.8637C12.791 74.0516 12.2695 74.8773 11.8204 75.3553C10.1401 73.3563 8.6915 71.0675 7.61955 68.4166C5.64948 63.5638 4.69341 59.5803 4.34575 56.1326C4.46164 55.7125 4.62098 55.0607 4.78033 54.2639C5.08453 52.8443 5.37424 50.9757 5.7219 49.1215C6.06956 47.2818 6.50414 45.4565 7.02563 44.1528C7.27189 43.5009 7.53264 42.965 7.72095 42.6029C7.92375 42.2407 8.03964 42.0379 8.03964 42.0379C8.03964 42.0379 7.93824 42.2552 7.67749 42.5739Z" fill="white"/>
<path d="M39.0683 64.882C39.7057 67.3157 40.5314 69.6624 41.2412 71.8497C42.0235 74.0226 42.7333 76.0362 43.1968 77.8034C43.7328 79.5562 44.066 81.0483 44.2108 82.1202C44.3267 82.6562 44.3557 83.0763 44.4136 83.366C44.4571 83.6557 44.4716 83.815 44.4716 83.815C44.4716 83.815 44.486 83.6557 44.515 83.366C44.5295 83.0763 44.6019 82.6417 44.6019 82.1057C44.6309 81.0193 44.5585 79.4403 44.3122 77.5717C44.008 75.7175 43.501 73.5881 42.9216 71.3283C42.2842 69.0974 41.5599 66.7507 41.0384 64.3895C40.4155 62.0573 39.981 59.6672 39.7637 57.4218C39.4595 55.1765 39.387 53.0326 39.4015 51.2074C39.3581 49.3677 39.445 47.8322 39.5319 46.7603C39.5898 45.6739 39.6478 45.0654 39.6478 45.0654C39.6478 45.0654 39.445 45.6594 39.1553 46.7023C38.8945 47.7598 38.5469 49.2808 38.2716 51.135C38.0688 53.0037 37.9385 55.191 38.0109 57.5522C38.1557 59.9134 38.5034 62.4339 39.0683 64.882Z" fill="white"/>
<path d="M17.2961 65.0702C18.0494 66.8955 18.8171 68.5613 19.6138 69.9085C20.0194 70.5893 20.425 71.1833 20.7872 71.6903C21.1493 72.2118 21.468 72.6608 21.7577 73.0085C22.3517 73.7038 22.6848 74.0949 22.6848 74.0949C22.6848 74.0949 22.4675 73.6169 22.1054 72.7912C21.9026 72.4001 21.6708 71.8931 21.4246 71.3281C21.1783 70.7632 20.9031 70.1113 20.6423 69.387C20.0339 67.9964 19.4835 66.3015 18.962 64.4908C18.426 62.6801 17.9769 60.7245 17.6727 58.7544C17.3106 56.7844 17.0933 54.7853 17.0209 52.9021C16.9195 51.019 16.8905 49.2517 17.0354 47.7307C17.0354 46.9629 17.0933 46.2676 17.1512 45.6447C17.1947 45.0218 17.2526 44.4859 17.3251 44.0368C17.412 43.1387 17.4699 42.6172 17.4699 42.6172C17.4699 42.6172 17.2816 43.0952 16.9484 43.9499C16.7891 44.37 16.6297 44.9059 16.4559 45.5144C16.2676 46.1228 16.0793 46.8181 15.9199 47.5858C15.6013 49.1213 15.3985 50.9466 15.2826 52.9166C15.2681 54.8867 15.3985 56.9872 15.6882 59.0731C16.0938 61.1881 16.6442 63.216 17.2961 65.0702Z" fill="white"/>
<path d="M26.7264 52.5257C27.0161 53.5832 27.3492 54.6407 27.7114 55.5967C28.0735 56.5673 28.5226 57.422 28.8992 58.1462C29.2759 58.885 29.667 59.45 29.9277 59.8411C30.203 60.2322 30.3623 60.4495 30.3623 60.4495C30.3623 60.4495 30.2609 60.1888 30.1016 59.7397C29.9132 59.3051 29.7104 58.6533 29.4207 57.9C29.1165 57.1467 28.8703 56.2341 28.5516 55.2925C28.2474 54.3365 27.9577 53.308 27.7259 52.265C27.4507 51.2365 27.2334 50.1935 27.0595 49.194C26.9002 48.209 26.7119 47.2819 26.625 46.4707C26.5236 45.6739 26.4222 44.9931 26.3787 44.5296C26.3208 44.0515 26.2918 43.7908 26.2918 43.7908C26.2918 43.7908 26.2483 44.066 26.1904 44.5296C26.1469 45.0076 26.06 45.6884 26.06 46.5141C26.06 47.3398 26.0745 48.2959 26.1904 49.3244C26.3063 50.3674 26.4946 51.4538 26.7264 52.5257Z" fill="white"/>
<path d="M25.9731 60.3335C26.2048 60.7391 26.4656 61.1882 26.7119 61.7097C27.2913 62.6947 27.8562 63.897 28.3922 65.2007C28.9572 66.49 29.4786 67.9096 29.8842 69.3437C30.3478 70.7778 30.7099 72.2264 30.9417 73.617C31.2169 75.0077 31.4053 76.3114 31.4777 77.4558C31.5501 78.0207 31.5936 78.5422 31.6081 79.0202C31.637 79.4838 31.666 79.8894 31.6515 80.2371C31.6805 80.9179 31.695 81.309 31.695 81.309C31.695 81.309 31.7964 80.9324 31.9702 80.2661C32.0571 79.9329 32.1151 79.5272 32.1875 79.0492C32.2744 78.5712 32.3468 78.0497 32.3903 77.4558C32.4772 76.2824 32.4482 74.9063 32.3468 73.4287C32.173 71.9657 31.8543 70.4012 31.4487 68.8802C30.9417 67.3736 30.3188 65.9251 29.667 64.5924C28.9282 63.3031 28.1894 62.1442 27.4651 61.2171C27.103 60.7536 26.7408 60.348 26.4221 60.0003C26.1034 59.6382 25.8282 59.3485 25.5675 59.1022C25.0605 58.6387 24.7707 58.3779 24.7707 58.3779C24.7707 58.3779 24.9735 58.7111 25.3212 59.305C25.524 59.5803 25.7413 59.9279 25.9731 60.3335Z" fill="white"/>
<path d="M45.8621 64.404C46.4271 66.0698 47.0934 67.6922 47.7743 69.1843C48.542 70.6329 49.3098 71.9656 50.0341 73.0375C50.4107 73.5735 50.7728 74.0516 51.106 74.4717C51.4247 74.8917 51.7144 75.2539 51.9607 75.5436C52.4677 76.1085 52.7719 76.4272 52.7719 76.4272C52.7719 76.4272 52.5691 76.0361 52.2359 75.3698C52.0476 75.0511 51.8303 74.6454 51.5985 74.1674C51.3523 73.7039 51.0915 73.1824 50.8453 72.5885C50.2513 71.4586 49.6719 70.0824 49.078 68.6049C48.4696 67.1418 47.9046 65.5483 47.4266 63.9259C46.9051 62.318 46.4561 60.6956 46.1374 59.1311C45.7752 57.5811 45.4855 56.1181 45.3406 54.8578C45.2248 54.2204 45.1378 53.641 45.0799 53.1195C45.0075 52.598 44.9495 52.149 44.935 51.7723C44.8481 51.0191 44.7902 50.5845 44.7902 50.5845C44.7902 50.5845 44.7322 51.0191 44.6164 51.7723C44.5729 52.149 44.5294 52.6125 44.5005 53.134C44.457 53.67 44.428 54.2639 44.428 54.9158C44.428 56.2195 44.5584 57.755 44.7322 59.3774C45.0075 60.9998 45.3986 62.7091 45.8621 64.404Z" fill="white"/>
<path d="M52.7574 54.264C52.9602 55.1621 53.192 56.1182 53.5107 57.0742C53.8294 58.0303 54.1481 59.0298 54.5827 60.0004C55.0027 60.9854 55.4663 61.956 55.9443 62.9265C56.4658 63.8681 57.0163 64.8097 57.5812 65.7078C58.1317 66.6059 58.7546 67.4171 59.2906 68.2283C60.406 69.8218 61.3765 71.2704 62.0573 72.6031C62.7382 73.9358 63.1583 75.1381 63.3611 76.0217C63.4625 76.4563 63.5204 76.8184 63.5639 77.0647C63.5928 77.3109 63.6218 77.4413 63.6218 77.4413C63.6218 77.4413 63.6653 77.3109 63.7377 77.0647C63.8101 76.8184 63.897 76.4563 63.9695 75.9782C64.1143 75.0367 64.1143 73.6026 63.7087 71.9802C63.3321 70.3433 62.5499 68.547 61.5793 66.7942C61.0868 65.9251 60.6232 65.0125 60.0873 64.1578C59.5803 63.2886 59.0877 62.3905 58.6387 61.4924C58.1462 60.5943 57.6826 59.6962 57.2625 58.7836C56.8424 57.871 56.3934 56.9873 56.0168 56.1037C55.6546 55.22 55.249 54.3799 54.9158 53.5542C54.5827 52.7285 54.264 51.9463 53.9743 51.2365C53.4093 49.7734 52.9458 48.5421 52.6271 47.6874C52.3084 46.8183 52.1056 46.3113 52.1056 46.3113C52.1056 46.3113 52.0621 46.8472 52.0476 47.7888C52.0331 48.7304 52.0766 50.0776 52.3084 51.671C52.4098 52.4967 52.5402 53.3659 52.7574 54.264Z" fill="white"/>
<path d="M22.0185 66.041C22.3227 66.8087 22.6269 67.7213 22.9166 68.6919C23.2498 69.6479 23.5685 70.6909 23.8148 71.7339C24.1479 72.7624 24.4232 73.8054 24.6405 74.7904C24.9157 75.7754 25.133 76.7025 25.2778 77.5137C25.4951 78.3249 25.6255 79.0058 25.7269 79.4983C25.8428 79.9908 25.9152 80.2661 25.9152 80.2661C25.9152 80.2661 25.9876 79.9908 26.118 79.4983C26.2049 79.0058 26.3353 78.296 26.4222 77.4413C26.4657 76.5867 26.4512 75.5871 26.3932 74.5007C26.2484 73.4287 26.0456 72.2988 25.7848 71.1689C25.4227 70.068 25.0026 68.9961 24.5535 68.0255C24.032 67.0695 23.525 66.2148 23.047 65.505C22.5255 64.8242 22.0475 64.2737 21.7143 63.9116C21.3522 63.5639 21.1349 63.3611 21.1349 63.3611C21.1349 63.3611 21.2218 63.6363 21.3666 64.1143C21.526 64.5779 21.7723 65.2298 22.0185 66.041Z" fill="white"/>
<path d="M70.2128 50.9756C70.3577 50.4106 70.546 49.7587 70.6619 49.0489C70.7778 48.3391 70.8792 47.5714 70.9661 46.8036C71.0095 46.0359 71.024 45.2682 71.0385 44.5439C71.053 43.8196 70.9661 43.1532 70.9226 42.5738C70.8792 41.9943 70.7633 41.5163 70.7198 41.1831C70.6474 40.85 70.6039 40.6616 70.6039 40.6616C70.6039 40.6616 70.575 40.85 70.517 41.1831C70.4881 41.5163 70.4011 41.9943 70.3432 42.5593C70.2997 43.1242 70.1983 43.7906 70.1549 44.5004C70.1114 45.2102 70.039 45.9635 69.9521 46.7167C69.9086 47.47 69.8507 48.2233 69.7782 48.9331C69.7058 49.6429 69.7058 50.3092 69.6479 50.8742C69.6044 51.4391 69.6044 51.9316 69.5899 52.2648C69.5899 52.598 69.5899 52.8008 69.5899 52.8008C69.5899 52.8008 69.6624 52.6269 69.7927 52.3082C69.8797 51.9896 70.068 51.5405 70.2128 50.9756Z" fill="white"/>
<path d="M9.18398 64.9835C9.37229 65.8816 9.60407 66.6204 9.76341 67.1274C9.92276 67.6344 10.0242 67.9241 10.0242 67.9241C10.0242 67.9241 9.9807 67.6199 9.92276 67.0839C9.83584 66.5625 9.76341 65.7947 9.64752 64.8966C9.51715 63.9984 9.45921 62.9265 9.34332 61.7966C9.24192 60.6667 9.16949 59.4499 9.14052 58.2476C9.08258 57.0452 9.06809 55.8285 9.09706 54.6841C9.12603 53.5542 9.12604 52.4822 9.19846 51.5696C9.25641 50.657 9.27089 49.8892 9.31435 49.3677C9.34332 48.8318 9.35781 48.5276 9.35781 48.5276C9.35781 48.5276 9.28538 48.8318 9.15501 49.3388C9.03912 49.8603 8.8508 50.6135 8.73492 51.5261C8.60454 52.4387 8.45968 53.5107 8.38726 54.6551C8.32931 55.7995 8.30034 57.0308 8.32931 58.2621C8.40174 59.4934 8.50314 60.7102 8.63351 61.8545C8.76389 63.0279 8.98118 64.0854 9.18398 64.9835Z" fill="white"/>
<path d="M55.785 21.555C56.1037 21.6274 56.4803 21.7578 56.9149 21.9027C57.3495 22.0475 57.8275 22.2068 58.349 22.4241C59.4064 22.7718 60.5798 23.3078 61.8111 23.9162C63.0424 24.5246 64.3316 25.2344 65.534 26.0601C66.7653 26.8423 67.9531 27.697 68.9816 28.6096C70.039 29.4788 70.9951 30.3624 71.7339 31.1881C72.1395 31.5792 72.4872 31.9558 72.7769 32.3035C73.0811 32.6367 73.3418 32.9409 73.5446 33.2016C73.9792 33.7086 74.2255 33.9983 74.2255 33.9983C74.2255 33.9983 74.0806 33.6507 73.8199 33.0278C73.6895 32.7236 73.4867 32.3614 73.2694 31.9558C73.0521 31.5358 72.7914 31.0867 72.4727 30.6086C71.8208 29.6526 70.9661 28.6096 69.9666 27.5521C68.9236 26.5381 67.7213 25.5676 66.4466 24.6839C65.1283 23.8727 63.7377 23.1774 62.405 22.6125C61.0289 22.1344 59.7396 21.7433 58.6097 21.5405C58.0448 21.4391 57.5233 21.3812 57.0453 21.3377C56.5817 21.2798 56.1761 21.2508 55.8429 21.2363C55.1766 21.2363 54.7999 21.2363 54.7999 21.2363C54.7999 21.2363 55.1476 21.3522 55.785 21.555Z" fill="white"/>
<path d="M65.418 30.0003C65.2152 29.6092 64.911 29.0588 64.404 28.5083C63.897 27.9578 63.2452 27.3494 62.4484 26.8569C61.6517 26.3499 60.7681 25.9008 59.8555 25.5097C58.9284 25.1476 58.0013 24.8434 57.1321 24.5537C56.263 24.2639 55.4518 24.0322 54.771 23.7715C54.0901 23.5107 53.5107 23.3224 53.1341 23.1341C52.7429 22.9747 52.5112 22.8733 52.5112 22.8733C52.5112 22.8733 52.6995 23.0326 53.0471 23.2789C53.4093 23.5252 53.9163 23.8728 54.5826 24.1915C55.249 24.5102 56.0312 24.9013 56.8859 25.22C57.7405 25.5532 58.6532 25.8864 59.5368 26.2775C60.4349 26.6251 61.3041 27.0163 62.0718 27.4653C62.8396 27.9144 63.5494 28.3635 64.0853 28.8415C64.6213 29.305 65.0414 29.7541 65.2877 30.0873C65.5629 30.4204 65.6933 30.6232 65.6933 30.6232C65.6933 30.6232 65.6064 30.3915 65.418 30.0003Z" fill="white"/>
<path d="M19.0489 30.6228C18.7302 31.1009 18.4694 31.5644 18.2522 31.97C18.0204 32.3756 17.8321 32.7378 17.7017 33.042C17.441 33.6649 17.2961 34.0125 17.2961 34.0125C17.2961 34.0125 17.5424 33.7228 17.9769 33.2158C18.1652 32.9551 18.4405 32.6509 18.7447 32.3177C19.0344 31.97 19.3821 31.5934 19.7877 31.2023C20.5264 30.3766 21.4825 29.4929 22.54 28.6238C23.5685 27.7112 24.7563 26.8565 25.9876 26.0743C27.1899 25.2486 28.4792 24.5388 29.7105 23.9304C30.9418 23.322 32.1296 22.786 33.1726 22.4383C33.6941 22.2211 34.1721 22.0472 34.6067 21.9168C35.0412 21.772 35.4179 21.6416 35.7366 21.5692C36.3739 21.3664 36.7361 21.2505 36.7361 21.2505C36.7361 21.2505 36.3595 21.2505 35.6931 21.2505C35.3599 21.2505 34.9543 21.294 34.4908 21.3519C34.0272 21.3954 33.5057 21.4533 32.9263 21.5547C31.7964 21.772 30.5072 22.1631 29.131 22.6267C27.7983 23.1916 26.4077 23.8869 25.0895 24.6981C23.8147 25.5818 22.6124 26.5668 21.5694 27.5663C20.5554 28.6238 19.7007 29.6668 19.0489 30.6228Z" fill="white"/>
<path d="M31.6661 25.495C30.7535 25.8861 29.8553 26.3352 29.0731 26.8422C28.2764 27.3348 27.6245 27.9431 27.1175 28.4936C26.596 29.0441 26.2918 29.609 26.1035 29.9857C25.9152 30.3768 25.8428 30.6085 25.8428 30.6085C25.8428 30.6085 25.9731 30.3913 26.2484 30.0726C26.4946 29.7249 26.9147 29.2903 27.4507 28.8268C27.9867 28.3488 28.682 27.8997 29.4642 27.4506C30.232 27.0016 31.1011 26.596 31.9993 26.2628C32.8829 25.8861 33.7955 25.5385 34.6502 25.2053C35.5048 24.8722 36.2871 24.4955 36.9534 24.1769C37.6198 23.8437 38.1268 23.496 38.4889 23.2642C38.8366 23.018 39.0249 22.8586 39.0249 22.8586C39.0249 22.8586 38.8076 22.96 38.402 23.1194C38.0109 23.2932 37.4314 23.496 36.7651 23.7568C36.0843 24.0175 35.2731 24.2493 34.4039 24.539C33.5203 24.8287 32.5932 25.1474 31.6661 25.495Z" fill="white"/>
</svg>
