<svg width="80" height="126" viewBox="0 0 80 126" fill="none" xmlns="http://www.w3.org/2000/svg">
<path d="M77.0329 121.266C76.0195 120.223 75.07 119.052 74.5473 118.371C77.5023 114.636 77.2996 108.336 73.7152 103.089C71.3789 99.6623 68.0292 97.2998 64.5088 96.5762C64.4981 96.5762 64.4768 96.5655 64.4661 96.5655C64.4661 96.5655 64.4555 96.5655 64.4448 96.5655C58.8762 95.4907 57.9694 92.894 57.0093 90.1484C56.4119 88.435 55.7931 86.6578 54.0436 85.2744C50.1072 82.1562 49.5844 80.9963 48.315 78.1974C48.2083 77.9633 48.0909 77.7079 47.9736 77.4418C46.9388 75.1857 44.1438 69.0027 40.5594 61.0744C43.8344 49.6024 48.1763 34.2353 50.2138 26.4347C50.5339 25.1896 50.8646 23.9658 51.174 22.7739C54.897 8.66259 56.7106 1.23447 54.1183 0.0532102C54.0436 0.0212842 53.9689 0 53.8943 0C53.8196 0 53.7556 0.010642 53.6916 0.042568C53.5529 0.095778 53.4462 0.21284 53.3929 0.351186C53.2435 0.776866 43.3544 28.4674 35.6095 50.1345C25.795 28.3929 13.8897 1.95813 13.6977 1.53245C13.6336 1.40474 13.527 1.29832 13.399 1.25576C13.3349 1.23447 13.2816 1.22383 13.2176 1.22383C13.1429 1.22383 13.0576 1.24511 12.9829 1.27704C10.1346 2.6605 12.5989 10.2908 17.6021 24.7959C18.0288 26.0197 18.4555 27.2754 18.8929 28.5525C21.6239 36.5233 27.1392 51.2199 31.2997 62.1918C29.1341 68.2259 27.4912 72.8126 26.8192 74.6749C23.9068 82.6883 20.0877 91.4041 11.6067 93.3303C11.3827 93.3942 11.1694 93.4474 10.9667 93.5219C8.001 94.4797 5.23801 96.5549 3.17911 99.3856C1.12021 102.216 -0.0105931 105.484 7.47965e-05 108.591C0.0107427 111.922 1.30156 114.678 3.62716 116.37C5.01399 117.381 6.72085 117.924 8.55573 117.945H8.70508C12.7695 117.945 17.0687 115.487 19.949 111.539C19.949 111.539 19.949 111.528 19.9597 111.528C22.0719 108.623 23.1921 105.271 23.1067 102.057C23.1281 101.993 23.1281 101.929 23.1281 101.855C22.5733 96.1611 22.4987 90.1271 28.0246 84.3485C33.7213 78.3996 36.2816 75.7391 36.3029 75.7178C36.3563 75.6646 36.3776 75.6008 36.4096 75.5369C36.5589 75.9307 36.6443 76.1542 36.6549 76.1754C36.687 76.2606 36.7403 76.3351 36.8043 76.3883C36.8363 76.4202 40.4741 79.5277 47.2588 85.3808C53.5316 90.7869 53.9583 99.1302 53.7342 104.941C53.7342 104.983 53.7236 105.037 53.7236 105.1C53.7129 105.217 53.7022 105.335 53.7022 105.452C53.7022 105.515 53.7022 105.59 53.7022 105.664C53.7022 105.707 53.7022 105.739 53.7022 105.781V105.856L53.6916 106.058C53.6916 106.122 53.6916 106.186 53.7129 106.239C53.7983 109.112 54.8224 112.135 56.6039 114.753C58.5775 117.637 61.2871 119.808 64.2208 120.84C65.4263 121.266 66.6317 121.489 67.7839 121.51H67.9225C69.5227 121.51 71.0376 121.095 72.3391 120.329C72.9898 120.851 74.2059 121.883 75.2834 122.979C76.8196 124.565 77.1183 125.544 77.417 125.852C77.7157 126.161 78.089 126.023 79.0491 125.086C80.0199 124.15 80.1586 123.788 79.8599 123.479C79.5505 123.16 78.5691 122.841 77.0329 121.266ZM4.75796 113.635C4.62995 113.54 4.43792 113.401 4.22457 113.188C3.79785 112.773 3.24312 112.082 2.89108 111.092C2.70973 110.602 2.58171 110.049 2.50704 109.464C2.46436 109.166 2.44303 108.868 2.43236 108.548C2.42169 108.25 2.43236 107.931 2.46436 107.601C2.56037 106.303 2.93375 104.951 3.48848 103.685C3.77651 103.057 4.10722 102.451 4.48059 101.876C4.66195 101.589 4.85397 101.312 5.05666 101.046C5.24868 100.79 5.46203 100.535 5.67539 100.28C6.51816 99.3005 7.45693 98.5236 8.31036 97.949C9.16379 97.3743 9.96389 97.0231 10.5186 96.8103C10.796 96.7039 11.02 96.64 11.18 96.5974C11.3294 96.5549 11.4147 96.5336 11.4147 96.5336C11.4147 96.5336 11.0947 96.6506 10.5613 96.9061C10.2946 97.0338 9.97456 97.204 9.62252 97.4169C9.27048 97.6297 8.88643 97.8958 8.48105 98.1937C6.8702 99.3963 5.06733 101.471 3.9792 103.908C3.42447 105.122 3.06176 106.409 2.93374 107.644C2.90174 107.942 2.89108 108.25 2.88041 108.559C2.88041 108.846 2.88041 109.144 2.90174 109.432C2.94441 109.996 3.04043 110.528 3.18978 111.007C3.47781 111.964 3.92586 112.688 4.32057 113.124C4.5126 113.348 4.67261 113.508 4.80063 113.614C4.91797 113.72 4.98199 113.774 4.98199 113.774C4.98199 113.774 4.88598 113.731 4.75796 113.635ZM16.93 109.347C14.7538 112.326 11.5427 114.253 8.74775 114.253C7.61695 114.253 6.62484 113.955 5.80341 113.359C4.45926 112.39 3.7125 110.687 3.7125 108.58C3.70184 106.25 4.58727 103.76 6.17678 101.567C7.77697 99.375 9.87855 97.7681 12.0975 97.055C12.8869 96.7996 13.655 96.6719 14.3804 96.6719H14.4657C15.5539 96.6826 16.5033 96.9912 17.2927 97.5552C20.2691 99.6943 20.0984 104.983 16.93 109.347ZM37.6577 48.1125C38.0844 46.7716 38.6712 44.8454 39.4286 42.5574C40.186 40.2693 41.0395 37.5875 42.0102 34.7248C42.981 31.8728 44.0158 28.8292 45.0613 25.7749C46.128 22.742 47.2055 19.709 48.2083 16.8676C49.2111 14.0262 50.2032 11.3869 51.0246 9.12019C51.846 6.85345 52.5821 4.98046 53.0728 3.66085C53.5849 2.35188 53.8729 1.5963 53.8729 1.5963C53.8729 1.5963 53.6382 2.36252 53.2222 3.71406C52.7955 5.05495 52.2087 6.98115 51.4513 9.26918C50.6939 11.5572 49.8405 14.239 48.8697 17.1017C47.8989 19.9538 46.8641 22.9974 45.8187 26.0516C44.7519 29.0846 43.6744 32.1176 42.6716 34.959C41.6689 37.8004 40.6767 40.4396 39.8553 42.7063C39.0339 44.9731 38.2978 46.8461 37.8071 48.1657C37.295 49.4747 37.007 50.2302 37.007 50.2302C37.007 50.2302 37.2417 49.4534 37.6577 48.1125ZM27.8326 50.1345C26.9685 47.9635 25.9017 45.4839 24.8883 42.7596C23.8642 40.0458 22.7867 37.1406 21.7199 34.2353C20.7171 31.3088 19.7143 28.3822 18.7756 25.6366C17.8475 22.8909 17.058 20.2943 16.354 18.0914C15.6499 15.8779 15.1272 14.0155 14.7324 12.7278C14.3591 11.4295 14.1457 10.6846 14.1457 10.6846C14.1457 10.6846 14.4337 11.4082 14.9245 12.664C15.4045 13.9304 16.1193 15.7289 16.9087 17.9105C17.6981 20.0921 18.6689 22.6143 19.6397 25.3492C20.6211 28.0736 21.6666 30.9895 22.712 33.8948C23.7255 36.8107 24.7603 39.7266 25.7417 42.4509C26.7231 45.1753 27.6086 47.74 28.3767 49.911C28.59 50.4324 28.8247 50.9007 29.1554 51.2625C29.4648 51.635 29.8808 51.8372 30.3076 51.9862C31.161 52.2522 31.9931 52.1032 32.6225 51.901C33.2519 51.6882 33.7213 51.4328 34.0307 51.2412C34.34 51.0497 34.4894 50.9326 34.4894 50.9326C34.4894 50.9326 34.3507 51.071 34.0627 51.2838C33.7746 51.4966 33.3266 51.8053 32.6972 52.0926C32.0678 52.348 31.2037 52.5928 30.2115 52.3799C29.7315 52.2629 29.1981 52.05 28.7927 51.6243C28.3767 51.2093 28.0886 50.6772 27.8326 50.1345ZM27.0218 84.3698C26.9365 84.3059 26.8298 84.1995 26.7018 84.0824C26.5738 83.9654 26.4244 83.8377 26.2751 83.6887C26.1151 83.5503 25.9551 83.4014 25.795 83.263C25.4643 82.9863 25.123 82.7203 24.8456 82.5181C24.5682 82.3265 24.3549 82.1882 24.3549 82.1882C24.3549 82.1882 24.6109 82.1137 24.9843 82.1882C25.1656 82.2201 25.379 82.2839 25.5924 82.3904C25.8057 82.4861 26.0084 82.6351 26.2111 82.7841C26.3924 82.9544 26.5738 83.1353 26.7018 83.3162C26.8298 83.5078 26.9472 83.6993 27.0112 83.8696C27.1605 84.2101 27.1712 84.4656 27.1712 84.4656C27.1712 84.4656 27.1072 84.4336 27.0218 84.3698ZM33.4973 77.1545C33.3372 77.3354 33.1452 77.5589 32.8999 77.793C32.6545 78.0272 32.3665 78.2825 31.9931 78.4954C31.8011 78.6018 31.609 78.6976 31.3317 78.7402C31.193 78.7615 31.1183 78.7615 30.9583 78.7402C30.841 78.7189 30.7129 78.6976 30.5956 78.6657C30.1155 78.5486 29.6355 78.3464 29.1768 78.0591C28.718 77.7824 28.2807 77.3993 27.982 76.8672C27.8433 76.6011 27.7686 76.2819 27.8006 75.9413L27.8326 75.7391L27.8433 75.6859C27.8539 75.622 27.8539 75.6433 27.8646 75.6114L27.8966 75.5156L28.014 75.1219C28.3447 74.0683 28.6647 73.0148 28.9741 72.0357C29.2834 71.046 29.5928 70.1414 29.8488 69.3539C30.1049 68.5664 30.3502 67.9173 30.4996 67.4596C30.6596 67.002 30.7556 66.7466 30.7556 66.7466C30.7556 66.7466 30.6916 67.0127 30.5849 67.4809C30.4676 67.9492 30.3076 68.6196 30.0942 69.4178C29.8702 70.2159 29.6355 71.1524 29.3474 72.1421C29.0594 73.1318 28.75 74.196 28.4513 75.2496L28.334 75.6433L28.302 75.7391C28.302 75.7498 28.2807 75.7923 28.2913 75.7604L28.2807 75.8136L28.238 76.0158C28.2273 76.2286 28.27 76.4628 28.366 76.6756C28.59 77.1013 28.9741 77.4631 29.3901 77.7292C29.8062 77.9952 30.2435 78.2081 30.6809 78.3464C30.905 78.4209 31.097 78.4635 31.3103 78.4422C31.481 78.4209 31.6944 78.3464 31.8651 78.2613C32.2171 78.0804 32.5265 77.8569 32.7825 77.6547C33.0385 77.4418 33.2626 77.2503 33.4333 77.08C33.7853 76.7501 33.9666 76.5373 33.9666 76.5373C33.9666 76.5373 33.8173 76.7927 33.4973 77.1545ZM36.5696 73.8448C36.3563 73.334 36.0255 72.621 35.6628 71.7484C35.3001 70.8757 34.8734 69.8541 34.436 68.758C33.9987 67.6618 33.5399 66.4806 33.0919 65.31C32.6438 64.1287 32.2064 62.9474 31.8011 61.8407C31.3957 60.7339 31.0436 59.6803 30.7343 58.7864C30.4249 57.8925 30.1902 57.1369 30.0089 56.6154C29.8382 56.0833 29.7528 55.7854 29.7528 55.7854C29.7528 55.7854 29.8808 56.0727 30.1049 56.5729C30.3182 57.0837 30.6489 57.7967 31.0116 58.6693C31.3743 59.542 31.8011 60.5636 32.2384 61.6597C32.6758 62.7559 33.1345 63.9371 33.5826 65.1078C34.0307 66.289 34.468 67.4703 34.8734 68.5771C35.2788 69.6838 35.6308 70.7374 35.9402 71.6313C36.2496 72.5252 36.4843 73.2808 36.6656 73.8023C36.8363 74.3344 36.9216 74.6324 36.9216 74.6324C36.9216 74.6324 36.7936 74.3557 36.5696 73.8448ZM37.6151 59.7761C37.1457 59.4143 36.655 59.3185 36.3349 59.2972C36.1642 59.2972 36.0469 59.3079 35.9615 59.3185C35.8762 59.3292 35.8335 59.3398 35.8335 59.3398C35.8335 59.3398 35.8762 59.3504 35.9615 59.3717C36.0469 59.393 36.1642 59.4356 36.2922 59.4888C36.5696 59.6058 36.9323 59.8187 37.231 60.1805C37.5297 60.5423 37.7537 61.0425 37.7431 61.5853C37.7431 61.6491 37.7431 61.7342 37.7324 61.7768C37.7217 61.8513 37.7217 61.9577 37.7004 62.0109C37.6684 62.1174 37.6364 62.2663 37.5831 62.3834C37.4764 62.6388 37.3164 62.8729 37.1137 63.0645C36.911 63.256 36.6763 63.4157 36.4096 63.5115C36.1429 63.5966 35.8869 63.6604 35.5882 63.6498C35.3321 63.6392 35.0654 63.586 34.8307 63.4902C34.596 63.3838 34.3827 63.256 34.212 63.0964C33.86 62.7878 33.6573 62.4153 33.5399 62.1386C33.4973 62.0003 33.4439 61.8832 33.4333 61.7981C33.4119 61.713 33.4012 61.6704 33.4012 61.6704C33.4012 61.6704 33.3906 61.713 33.3799 61.7981C33.3586 61.8832 33.3479 62.0003 33.3479 62.1706C33.3586 62.4898 33.4439 62.9794 33.7853 63.4582C33.9026 63.6285 34.052 63.7881 34.2333 63.9371C33.5079 63.437 33.0492 62.6069 33.0599 61.6704C33.0812 60.1699 34.3187 58.978 35.8122 58.9992C36.751 59.0099 37.5831 59.5101 38.0524 60.2444C37.9458 60.0528 37.7857 59.8932 37.6151 59.7761ZM44.5279 72.4614C44.2398 71.8867 43.8131 71.0673 43.3331 70.0669C42.853 69.0666 42.2876 67.9066 41.7009 66.6508C41.1141 65.3951 40.4954 64.0542 39.8873 62.7133C39.2793 61.3618 38.6819 60.0209 38.1271 58.7438C37.5724 57.4774 37.0817 56.2855 36.6443 55.2639C36.2069 54.2423 35.8762 53.3803 35.6308 52.7843C35.3961 52.1777 35.2575 51.8372 35.2575 51.8372C35.2575 51.8372 35.4281 52.1671 35.7268 52.7418C36.0149 53.3164 36.4416 54.1359 36.9216 55.1362C37.4017 56.1366 37.9671 57.2965 38.5538 58.5523C39.1406 59.808 39.7593 61.1489 40.3674 62.4898C40.9754 63.8414 41.5729 65.1823 42.1276 66.4593C42.6823 67.7257 43.173 68.9176 43.6104 69.9392C44.0478 70.9609 44.3785 71.8229 44.6239 72.4188C44.8586 73.0254 44.9972 73.366 44.9972 73.366C44.9972 73.366 44.8266 73.036 44.5279 72.4614ZM55.7611 91.0423C55.4731 90.2761 55.2171 89.4779 54.833 88.7543C54.7477 88.5627 54.6517 88.3924 54.545 88.2222C54.4383 88.0519 54.3423 87.871 54.225 87.7114C53.9689 87.4027 53.7449 87.0622 53.4355 86.8068L52.9982 86.4024C52.8381 86.2747 52.6781 86.147 52.5288 86.0193C52.2087 85.7639 51.91 85.4978 51.6113 85.2424C50.4165 84.2102 49.3924 83.1034 48.7097 82.0179C48.0269 80.9324 47.6642 79.9427 47.3762 79.2616C47.0988 78.5805 46.9495 78.1868 46.9495 78.1868C46.9495 78.1868 47.1415 78.5592 47.4722 79.2191C47.8029 79.8789 48.2509 80.826 48.9657 81.8476C49.3177 82.3584 49.7551 82.8693 50.2565 83.3801C50.7579 83.8803 51.334 84.3804 51.9207 84.8912C52.2194 85.136 52.5181 85.3914 52.8488 85.6468C53.0088 85.7745 53.1689 85.9022 53.3289 86.0299L53.7983 86.4556C54.1396 86.7217 54.3743 87.0835 54.6624 87.4134C54.7904 87.5837 54.897 87.7752 55.0144 87.9561C55.1317 88.137 55.2491 88.3286 55.3344 88.5202C55.7291 89.2864 55.9745 90.1058 56.2625 90.8827C56.5292 91.6595 56.8066 92.4151 57.148 93.1069C57.3187 93.4474 57.5213 93.7667 57.724 94.0753C57.8307 94.2243 57.9481 94.3626 58.0547 94.5116L58.2148 94.7244C58.2788 94.7883 58.3428 94.8521 58.4068 94.9054C58.8868 95.4162 59.4416 95.7993 59.9643 96.1292C60.5084 96.4165 61.0098 96.7039 61.4898 96.8635C61.7245 96.9593 61.9485 97.0444 62.1512 97.1295C62.3539 97.204 62.5566 97.2466 62.7379 97.2998C63.442 97.502 63.8474 97.6191 63.8474 97.6191C63.8474 97.6191 63.4314 97.5446 62.7059 97.3956C62.5246 97.353 62.3219 97.3317 62.1085 97.2679C61.8952 97.204 61.6605 97.1295 61.4151 97.055C61.1698 96.9699 60.8924 96.9167 60.6364 96.789C60.3697 96.6613 60.0923 96.5336 59.8043 96.3952C59.2495 96.076 58.6521 95.7035 58.1187 95.1821C58.0547 95.1182 57.9801 95.0543 57.9161 94.9905L57.7347 94.7777C57.6174 94.6287 57.4893 94.4797 57.3613 94.3307C57.1373 94.0114 56.9239 93.6709 56.7319 93.3197C56.3372 92.5854 56.0385 91.8192 55.7611 91.0423ZM67.6665 118.988C67.0798 118.988 66.493 118.903 65.917 118.765C65.3409 118.626 64.7862 118.435 64.2421 118.19C63.7087 117.945 63.186 117.658 62.6953 117.339C62.2046 117.009 61.7352 116.647 61.2978 116.264C60.8497 115.881 60.4443 115.455 60.0603 115.008C59.6869 114.572 59.3242 114.114 59.0042 113.635L58.9935 113.625C58.6308 113.071 58.2894 112.486 58.0014 111.879C57.7134 111.273 57.4787 110.656 57.2867 110.017C57.1906 109.698 57.1053 109.378 57.0306 109.049C56.956 108.719 56.9133 108.389 56.8706 108.07C56.8279 107.74 56.8066 107.41 56.8066 107.08C56.7959 106.75 56.8173 106.42 56.8386 106.09C56.8599 106.75 56.9346 107.399 57.0626 108.038C57.2013 108.676 57.372 109.304 57.5854 109.911C57.8094 110.517 58.0761 111.113 58.3748 111.688C58.6735 112.262 59.0149 112.816 59.3882 113.337C59.7189 113.795 60.0603 114.253 60.4337 114.668C60.8071 115.093 61.2018 115.498 61.6285 115.87C62.4713 116.626 63.3994 117.275 64.4128 117.764C64.9142 117.999 65.4476 118.222 65.981 118.382C66.5251 118.541 67.0798 118.648 67.6452 118.68C68.2106 118.712 68.776 118.68 69.3307 118.563C69.8854 118.435 70.4188 118.222 70.9202 117.935C70.0455 118.658 68.8506 118.999 67.6665 118.988ZM70.6642 116.977C69.8748 117.509 68.9467 117.786 67.9012 117.786C67.1224 117.786 66.2904 117.637 65.4476 117.328C63.25 116.551 61.1911 114.88 59.6656 112.646C59.6656 112.646 59.6656 112.635 59.6549 112.635C58.1294 110.4 57.3293 107.889 57.404 105.558C57.468 103.451 58.2681 101.769 59.6336 100.844C60.4337 100.301 61.3725 100.024 62.4286 100.024H62.5139C65.3409 100.067 68.5306 102.089 70.6429 105.164C73.6725 109.623 73.6939 114.923 70.6642 116.977ZM78.3024 123.351C78.0037 123.213 77.673 123.032 77.3316 122.809C77.1609 122.681 76.9902 122.585 76.8196 122.436C76.6489 122.298 76.4889 122.138 76.3395 121.979C75.7421 121.34 75.262 120.616 74.9313 120.063C74.6006 119.51 74.4406 119.105 74.4406 119.105C74.4406 119.105 74.75 119.414 75.1767 119.893C75.3901 120.127 75.6354 120.414 75.9021 120.712C76.1688 121.01 76.4355 121.329 76.7236 121.627C76.8622 121.776 77.0116 121.925 77.1503 122.053C77.2889 122.181 77.4596 122.319 77.609 122.436C77.9184 122.681 78.2171 122.904 78.4624 123.096C78.9745 123.49 79.3158 123.745 79.3158 123.745C79.3158 123.745 78.8891 123.639 78.3024 123.351Z" fill="white"/>
</svg>
