<svg width="120" height="116" viewBox="0 0 120 116" fill="none" xmlns="http://www.w3.org/2000/svg">
<path d="M1.52588e-05 0C2.1044 0.264397 3.90121 0.901107 5.08829 1.4245C5.44982 1.27882 5.84371 1.20867 6.25919 1.20867C7.9373 1.20867 10.0093 2.35798 13.4141 5.17462C16.4735 7.70527 20.569 11.2503 22.0043 12.5022C26.5908 11.164 31.8625 10.5974 32.0945 10.5759L32.4722 10.5381L32.8068 10.7162C33.3518 11.0021 46.4313 17.9952 72.1102 41.2459C93.8986 60.9785 107.437 79.8262 111.068 85.1357C111.343 85.5404 111.597 85.9775 111.829 86.4361C112.266 87.3157 112.584 88.2491 112.768 89.2042L114.133 95.3771L114.187 95.3824L114.354 95.4526C114.84 95.6576 116.135 96.5533 116.836 97.0659C118.8 98.5066 119.173 99.0678 119.221 99.7045C119.238 99.8826 119.211 100.061 119.162 100.228L119.378 100.465L115.892 102.624L113.275 104.242L111.888 105.1L111.532 105.322L110.146 106.18L107.534 107.793L107.172 108.02L105.43 109.099L101.07 111.797L95.8087 115.05L90.9309 116L72.0022 110.55L71.7972 108.457L71.6839 108.424L69.3637 101.329C66.6927 99.1811 63.8113 96.4886 60.7789 93.3104L60.2339 93.6774L37.6469 76.8909C36.8915 76.3297 36.4436 75.434 36.4544 74.4897L36.5029 68.8079C36.5083 68.128 36.7511 67.4697 37.1828 66.9517C37.6199 66.4283 38.2242 66.0884 38.8825 65.9805C32.2672 56.6888 26.1483 47.3702 21.5294 40.3394C18.6319 35.9256 16.1282 32.1161 14.3799 29.6394L14.2397 29.4452L14.1857 29.2131C13.3925 25.9055 13.3709 21.1248 14.9735 17.4178C10.5489 12.2702 6.02178 9.73411 4.04691 8.62796C3.25911 8.1855 2.89758 7.98586 2.64936 7.69988C2.45512 7.48404 2.32021 7.21965 2.24467 6.90669C1.67271 6.68006 0.890335 6.41566 0.00541687 6.2322V0H1.52588e-05Z" fill="white"/>
<path d="M87.4721 111.543L112.843 96.4724L113.869 96.5857C114.414 96.8177 118.439 99.5696 117.937 99.8772L116.394 99.0408L117.446 100.185L117.068 100.417L115.52 99.575L116.572 100.724L116.2 100.956L114.646 100.115L115.703 101.264L115.331 101.496L113.771 100.649L114.829 101.804L114.457 102.03L112.892 101.183L113.955 102.343L113.588 102.57L112.018 101.717L113.086 102.877L112.719 103.104L111.144 102.251L112.212 103.417L111.845 103.643L110.264 102.786L111.338 103.956L110.971 104.183L109.39 103.325L110.464 104.496L110.102 104.723L108.516 103.859L109.595 105.036L109.234 105.257L107.642 104.394L108.726 105.57L108.365 105.791L106.768 104.928L107.852 106.109L107.496 106.331L105.894 105.462L106.984 106.649L106.627 106.87L105.019 106.001L106.109 107.189L105.753 107.41L104.14 106.536L105.235 107.728L104.879 107.949L103.266 107.075L104.367 108.273L104.016 108.489L102.397 107.609L103.498 108.807L103.147 109.023L101.523 108.144L102.629 109.347L102.278 109.563L100.649 108.678L101.755 109.886L101.41 110.102L99.7747 109.217L100.886 110.426L100.541 110.642L98.9005 109.752L100.012 110.966L99.6668 111.181L98.021 110.291L99.138 111.511L98.7926 111.721L97.1415 110.825L98.2638 112.045L97.9239 112.255L96.2728 111.36L97.3951 112.584L97.0552 112.795L95.3986 111.894L96.5264 113.124L95.3555 113.847L90.9956 114.694L73.1677 109.557L72.9519 107.329L87.4721 111.543Z" fill="#212121"/>
<path d="M111.624 89.8625L112.843 96.4725L91.5676 109.137L89.2905 102.273L111.624 89.8625Z" fill="#212121"/>
<path d="M91.4219 109.525L113.129 96.6073L111.543 89.447L88.9722 102.154L91.4219 109.525ZM112.552 96.3429L91.7133 108.743L89.6089 102.392L111.435 90.2618L112.552 96.3429Z" fill="white"/>
<path d="M89.2905 102.273L87.4667 104.874L88.411 108.192L91.5676 109.136L89.2905 102.273Z" fill="#212121"/>
<path d="M91.7672 109.331L89.3283 101.982L87.321 104.847L88.3031 108.295L91.7672 109.331ZM89.2474 102.559L91.3625 108.937L88.5189 108.084L87.6124 104.895L89.2474 102.559Z" fill="white"/>
<path d="M111.624 89.8625L111.543 89.447C111.295 88.152 110.782 86.9218 110.038 85.8318C106.217 80.2471 92.8626 61.7123 71.2738 42.1632C45.4169 18.7452 32.2294 11.8115 32.2294 11.8115C32.2294 11.8115 20.6931 13.031 17.1156 16.0904C14.5148 19.7974 14.6066 25.6141 15.3997 28.9056C24.1734 41.3106 50.0573 84.526 70.6209 100.719L87.4721 104.879L89.2959 102.278L111.624 89.8625Z" fill="#212121"/>
<path d="M88.1844 105.198L88.411 108.192L92.5442 109.428L94.0443 111.964L90.0729 112.293L72.7684 107.286L70.6155 100.714L88.1844 105.198Z" fill="#212121"/>
<path d="M90.0622 112.423L94.2601 112.077L92.6306 109.32L88.5351 108.095L88.3085 105.1L70.4212 100.536L72.6659 107.399L72.7307 107.421L90.0622 112.423ZM93.8231 111.851L90.0837 112.158L72.8656 107.178L70.8098 100.897L88.0603 105.3L88.2869 108.289L92.4579 109.536L93.8231 111.851Z" fill="white"/>
<path d="M72.7577 95.6469C73.5077 94.2925 73.1624 92.5928 71.9375 91.6486L64.8258 86.1394L63.3473 86.6628L61.5721 91.2169L69.2612 96.4725C70.4429 97.2818 72.0616 96.8987 72.7577 95.6469Z" fill="#212121"/>
<path d="M61.5721 91.2169C61.5721 91.2169 61.912 91.4597 62.511 91.8913C63.1099 92.3176 63.9679 92.9219 64.9985 93.6504C66.0345 94.3734 67.2377 95.2098 68.5274 96.1109C68.6892 96.2242 68.8511 96.3375 69.0184 96.4508L69.1425 96.5372L69.2126 96.5803L69.2774 96.6181C69.3637 96.6721 69.45 96.726 69.5526 96.7692C69.9411 96.9526 70.3727 97.0444 70.8044 97.012C71.6731 96.9688 72.5149 96.4293 72.9142 95.6307C73.3189 94.8591 73.3944 93.9148 73.1084 93.1054C72.9735 92.7007 72.7577 92.323 72.4825 92.0046C72.3422 91.8482 72.1911 91.7025 72.0293 91.573C71.8728 91.4489 71.7109 91.3302 71.5598 91.2115C70.308 90.2564 69.1371 89.3715 68.1334 88.6053C67.1244 87.8498 66.2827 87.2185 65.6945 86.7815C65.101 86.3444 64.7664 86.0962 64.7664 86.0962C64.7664 86.0962 65.0956 86.3606 65.6622 86.8246C66.2341 87.2833 67.0543 87.9416 68.0417 88.724C69.0292 89.5064 70.1839 90.4129 71.4195 91.3895C71.576 91.5082 71.7325 91.6323 71.889 91.7564C72.04 91.8805 72.1803 92.01 72.3044 92.1611C72.5581 92.4579 72.7577 92.8086 72.8764 93.1863C73.13 93.9418 73.0599 94.8051 72.6768 95.5227C72.326 96.235 71.5706 96.7314 70.7828 96.7746C70.3943 96.807 69.995 96.726 69.6497 96.5641C69.5633 96.5318 69.477 96.4778 69.3907 96.4239L69.3259 96.3861L69.2666 96.3483L69.1425 96.262C68.9752 96.1487 68.8133 96.0407 68.6514 95.9274C67.3456 95.0479 66.1208 94.2331 65.074 93.5317C64.0218 92.8356 63.1477 92.2583 62.5326 91.8536C61.9228 91.4489 61.5721 91.2169 61.5721 91.2169Z" fill="white"/>
<path d="M65.0848 84.839L40.2207 67.4427C39.5624 66.9787 38.6559 67.1028 38.1379 67.7233C37.8843 68.0255 37.7494 68.4032 37.744 68.7971L37.6954 74.4789C37.69 75.0239 37.9491 75.5419 38.3861 75.8657L60.2663 92.1288L62.6081 86.1448L65.0848 84.839Z" fill="#212121"/>
<path d="M65.0848 84.8389C65.0848 84.8389 64.7017 84.5583 64.0326 84.0727C63.3581 83.5871 62.3976 82.8964 61.2429 82.0655C60.0828 81.2399 58.7339 80.2794 57.2824 79.2488C55.8309 78.2236 54.2769 77.1336 52.7283 76.0437C51.1689 74.9591 49.6149 73.8799 48.1526 72.8655C46.6849 71.8565 45.3198 70.9176 44.1489 70.1136C42.9726 69.3151 41.9905 68.6514 41.3053 68.1819C40.6146 67.7179 40.2207 67.4535 40.2207 67.4535C40.2207 67.4535 40.6038 67.7341 41.2729 68.2197C41.9474 68.7053 42.9078 69.396 44.0625 70.227C45.2226 71.0525 46.5716 72.013 48.0231 73.0436C49.4746 74.0688 51.0286 75.1588 52.5772 76.2487C54.1366 77.3333 55.6906 78.4125 57.1529 79.4269C58.6205 80.4359 59.9857 81.3748 61.1566 82.1788C62.3329 82.9774 63.3149 83.6464 64.0002 84.1105C64.6909 84.5745 65.0848 84.8389 65.0848 84.8389Z" fill="white"/>
<path d="M65.0848 85.9128V84.839L62.6081 86.1448L60.2717 92.1288L61.5721 91.2169L63.3473 86.6628L65.0848 85.9128Z" fill="#212121"/>
<path d="M60.2716 92.1288C60.7141 91.8374 61.1566 91.546 61.5936 91.2492L61.6044 91.2438L61.6098 91.233C61.9174 90.4776 62.2196 89.7222 62.5217 88.9614C62.8239 88.206 63.1099 87.4398 63.4066 86.6843L63.3743 86.7167C63.9516 86.4631 64.5236 86.2041 65.1009 85.9451L65.1171 85.9343V85.9181L65.0902 84.8444L65.0632 85.9181L65.0794 85.8911C64.4966 86.1286 63.9139 86.3714 63.3311 86.6142L63.3095 86.625L63.2987 86.6466C63.002 87.4074 62.6944 88.1574 62.4084 88.9236C62.117 89.6844 61.8257 90.4452 61.5451 91.2115L61.5613 91.1953C61.1188 91.492 60.6979 91.8158 60.2716 92.1288Z" fill="white"/>
<path d="M65.0848 84.839C64.8689 84.9307 64.6585 85.0278 64.4481 85.1304C64.2376 85.2275 64.0218 85.3246 63.8167 85.4271C63.4013 85.6322 62.9804 85.8318 62.5595 86.0423L62.5217 86.0585L62.5056 86.1016C62.0955 87.0891 61.707 88.0873 61.3293 89.0909C61.1404 89.5927 60.9623 90.0999 60.7843 90.6018C60.6926 90.8554 60.6062 91.109 60.5199 91.3626C60.4336 91.6162 60.3472 91.8698 60.2717 92.1288C60.3904 91.886 60.4983 91.6432 60.6062 91.395C60.7195 91.1521 60.8274 90.9039 60.93 90.6557C61.1404 90.1647 61.3508 89.6737 61.5559 89.1719C61.9606 88.179 62.3491 87.1808 62.7214 86.1772L62.6674 86.2365C63.0775 86.0099 63.4768 85.7779 63.8869 85.5512C64.0919 85.4379 64.2916 85.3138 64.4912 85.2005C64.6855 85.0818 64.8851 84.9631 65.0848 84.839Z" fill="white"/>
<path d="M62.2195 86.1446C62.2195 86.1446 55.5988 81.5636 48.9727 76.9825C47.3162 75.8386 45.6597 74.6946 44.1111 73.6209C43.3341 73.0867 42.584 72.5633 41.8718 72.0723C41.5264 71.8294 41.2081 71.5705 40.9167 71.2953C40.62 71.0147 40.334 70.7503 40.0588 70.4913C39.7836 70.2323 39.5192 69.9841 39.271 69.752C39.1469 69.6333 39.0228 69.52 38.9041 69.4067L38.8663 69.3689L38.8231 69.3258C38.8016 69.2988 38.7854 69.2826 38.7692 69.2556C38.7314 69.2071 38.699 69.1531 38.6774 69.0991C38.5749 68.8779 38.5803 68.6405 38.6666 68.4678C38.6882 68.4247 38.7098 68.3869 38.7476 68.3383C38.7692 68.3114 38.8015 68.2736 38.8339 68.2466C38.8987 68.1926 38.9688 68.1549 39.0444 68.1279C39.3627 68.0416 39.6919 68.1441 39.8915 68.2088C39.994 68.2412 40.075 68.2736 40.1235 68.3006C40.1775 68.3221 40.2045 68.3329 40.2045 68.3329L40.2153 68.3383C40.3501 68.3923 40.5012 68.3275 40.5552 68.198C40.6091 68.0631 40.5444 67.9121 40.4149 67.8581H40.4095C40.4095 67.8581 40.3771 67.8473 40.3178 67.8203C40.2584 67.7934 40.1667 67.761 40.048 67.7232C39.9293 67.6854 39.7728 67.6423 39.5839 67.6153C39.3951 67.5883 39.1577 67.5775 38.8879 67.6585C38.753 67.7016 38.6181 67.7772 38.4994 67.8797C38.44 67.9336 38.3861 67.993 38.3321 68.0631C38.2943 68.1171 38.2512 68.1926 38.2134 68.2682C38.0731 68.5758 38.0785 68.9642 38.2404 69.2988C38.2835 69.3797 38.3267 69.4661 38.3861 69.5416C38.4131 69.5794 38.4562 69.6225 38.4832 69.6549L38.5263 69.6981L38.5803 69.7466C38.699 69.8546 38.8231 69.9679 38.9526 70.0866C39.2062 70.3186 39.476 70.5614 39.7566 70.815C40.0372 71.0686 40.3286 71.333 40.6307 71.6082C40.9383 71.8888 41.2782 72.1586 41.6452 72.4068C42.3628 72.887 43.1236 73.3942 43.906 73.9176C45.4762 74.9644 47.1489 76.0868 48.8216 77.2037C55.5233 81.6715 62.2195 86.1446 62.2195 86.1446Z" fill="white"/>
<path d="M41.2675 71.8998C41.2675 71.8998 41.2405 71.9807 41.2027 72.1264C41.1649 72.2721 41.1056 72.4771 41.0462 72.7307C40.9221 73.2326 40.7818 73.9016 40.6631 74.5761C40.5444 75.2506 40.4473 75.9305 40.3879 76.4431C40.3556 76.6967 40.3448 76.9125 40.3286 77.0636C40.3178 77.2147 40.3124 77.301 40.3124 77.301C40.3124 77.301 40.3394 77.2201 40.3772 77.0744C40.4149 76.9287 40.4743 76.7237 40.5336 76.4701C40.6577 75.9683 40.798 75.2992 40.9167 74.6247C41.0355 73.9502 41.1326 73.2703 41.1919 72.7577C41.2243 72.5041 41.2351 72.2883 41.2513 72.1372C41.2621 71.9861 41.2675 71.8998 41.2675 71.8998Z" fill="white"/>
<path d="M17.0563 16.1497C17.0563 16.1497 17.3747 16.4519 17.9682 17.0347C18.5564 17.6174 19.4197 18.4754 20.5043 19.5761C21.5888 20.6769 22.9054 22.0204 24.4001 23.569C25.1501 24.346 25.9433 25.1662 26.785 26.0349C27.6214 26.9091 28.4955 27.8264 29.4128 28.7814C31.2366 30.7023 33.2061 32.7798 35.2943 34.9813C35.8069 35.5424 36.3249 36.109 36.8537 36.6863C37.3825 37.2583 37.9221 37.8357 38.4401 38.4346C39.4815 39.6325 40.5768 40.8196 41.6614 42.0714C42.7567 43.3125 43.8683 44.5751 44.9906 45.8539C46.1022 47.1489 47.2407 48.4385 48.39 49.7497C50.6671 52.3775 52.9657 55.0646 55.2481 57.7679C56.3921 59.1169 57.5306 60.4713 58.6529 61.8256C59.7806 63.18 60.903 64.5235 62.0199 65.8617C64.243 68.5434 66.4229 71.182 68.5273 73.745C70.6263 76.3135 72.6552 78.7956 74.5761 81.1482C76.4916 83.5061 78.2992 85.74 79.9719 87.8012C81.6338 89.8679 83.1555 91.7672 84.4883 93.4561C85.1627 94.2978 85.7671 95.1018 86.3444 95.8357C86.6304 96.2026 86.8786 96.5641 87.1322 96.904L87.1808 96.9688C87.1862 96.9688 87.2024 97.0066 87.2132 97.0282L87.2887 97.1684C87.3373 97.2602 87.3858 97.3519 87.4398 97.4382C87.5153 97.6163 87.5855 97.789 87.6502 97.9616C87.8822 98.6739 87.92 99.3592 87.893 99.9473C87.8607 100.535 87.7689 101.037 87.6664 101.431C87.5639 101.825 87.4614 102.127 87.3858 102.321C87.3103 102.521 87.2671 102.613 87.2671 102.613L87.429 102.694C87.429 102.694 87.483 102.591 87.5639 102.392C87.6448 102.192 87.7581 101.89 87.8768 101.485C87.9956 101.08 88.1035 100.573 88.1574 99.9635C88.206 99.3538 88.1844 98.6361 87.9632 97.8645C87.9038 97.6756 87.8229 97.476 87.7473 97.2764C87.6988 97.1846 87.6556 97.0929 87.6071 97.0012L87.5369 96.8609C87.5207 96.8339 87.5207 96.8231 87.4937 96.7799L87.4506 96.7152C87.2024 96.3591 86.9542 95.976 86.679 95.6036C86.1232 94.8536 85.5297 94.0334 84.8822 93.1755C83.5871 91.4488 82.1141 89.5117 80.5007 87.4019C78.882 85.2976 77.1229 83.0259 75.2667 80.614C74.3387 79.4107 73.3728 78.1804 72.3854 76.9232C71.3979 75.666 70.3889 74.3872 69.3637 73.0814C67.3133 70.4752 65.1765 67.788 63.0074 65.0685C61.9174 63.7088 60.822 62.3382 59.7159 60.9623C58.6151 59.5863 57.5036 58.2104 56.3867 56.8345C54.169 54.0772 51.9135 51.3469 49.712 48.6435C48.6005 47.3 47.4997 45.9672 46.3989 44.6614C45.2874 43.361 44.1867 42.0768 43.1075 40.8142C42.5679 40.1883 42.0067 39.5731 41.4617 38.9634C40.9114 38.3537 40.3664 37.7547 39.8268 37.1612C38.7476 35.9687 37.6523 34.8679 36.6001 33.7672C35.5155 32.688 34.4633 31.6412 33.4489 30.6322C32.4237 29.634 31.4308 28.6681 30.4704 27.7508C28.5549 25.9108 26.7689 24.2543 25.1663 22.7974C23.5637 21.3459 22.1554 20.0995 20.9737 19.0905C19.7974 18.0815 18.8531 17.3045 18.2056 16.7865C17.5581 16.2684 17.202 15.9987 17.202 15.9987L17.0563 16.1497Z" fill="white"/>
<path d="M21.7075 13.8835C21.7075 13.8835 16.398 9.24849 12.6209 6.12429C8.84383 3.0001 6.50203 1.76445 5.13688 2.80584C3.77173 3.84724 3.05408 6.25379 3.57747 6.84194C4.10087 7.43009 10.4086 9.89599 16.4304 17.1804C17.4556 15.6048 18.2704 15.3512 18.2704 15.3512L21.7075 13.8835Z" fill="#212121"/>
<path d="M113.701 96.9203L116.906 99.7261L113.879 96.7314L113.723 96.7152L113.701 96.9203Z" fill="white"/>
<path d="M112.843 97.4274L116.049 100.228L113.021 97.2332L112.843 97.4274Z" fill="white"/>
<path d="M111.985 97.9292L115.191 100.735L112.164 97.7404L111.985 97.9292Z" fill="white"/>
<path d="M111.128 98.431L114.333 101.237L111.306 98.2422L111.128 98.431Z" fill="white"/>
<path d="M110.27 98.9329L113.475 101.739L110.448 98.744L110.27 98.9329Z" fill="white"/>
<path d="M109.412 99.4401L112.617 102.241L109.59 99.2458L109.412 99.4401Z" fill="white"/>
<path d="M108.554 99.9419L111.759 102.748L108.732 99.7531L108.554 99.9419Z" fill="white"/>
<path d="M107.696 100.444L110.901 103.25L107.874 100.255L107.696 100.444Z" fill="white"/>
<path d="M106.838 100.951L110.043 103.751L107.01 100.757L106.838 100.951Z" fill="white"/>
<path d="M105.98 101.453L109.185 104.259L106.153 101.264L105.98 101.453Z" fill="white"/>
<path d="M105.117 101.954L108.327 104.76L105.295 101.766L105.117 101.954Z" fill="white"/>
<path d="M104.259 102.456L107.469 105.262L104.437 102.268L104.259 102.456Z" fill="white"/>
<path d="M103.401 102.964L106.611 105.764L103.579 102.769L103.401 102.964Z" fill="white"/>
<path d="M102.543 103.465L105.753 106.271L102.721 103.276L102.543 103.465Z" fill="white"/>
<path d="M101.685 103.967L104.89 106.773L101.863 103.778L101.685 103.967Z" fill="white"/>
<path d="M100.827 104.469L104.032 107.275L101.005 104.28L100.827 104.469Z" fill="white"/>
<path d="M99.9689 104.976L103.174 107.782L100.147 104.782L99.9689 104.976Z" fill="white"/>
<path d="M99.111 105.478L102.316 108.284L99.289 105.289L99.111 105.478Z" fill="white"/>
<path d="M98.2531 105.98L101.458 108.786L98.4311 105.791L98.2531 105.98Z" fill="white"/>
<path d="M97.3951 106.487L100.6 109.288L97.5731 106.293L97.3951 106.487Z" fill="white"/>
<path d="M96.5372 106.989L99.7423 109.795L96.7152 106.8L96.5372 106.989Z" fill="white"/>
<path d="M95.6792 107.491L98.8843 110.297L95.8519 107.302L95.6792 107.491Z" fill="white"/>
<path d="M94.8213 107.993L98.0264 110.798L94.994 107.804L94.8213 107.993Z" fill="white"/>
<path d="M93.9579 108.5L97.1685 111.3L94.136 108.305L93.9579 108.5Z" fill="white"/>
<path d="M93.1 109.002L96.3105 111.807L93.2781 108.813L93.1 109.002Z" fill="white"/>
<path d="M93.1917 109.077L113.858 96.9364L113.723 96.7152L92.9705 108.904L93.1917 109.077Z" fill="white"/>
<path d="M94.7512 112.665C94.7512 112.665 94.6432 112.676 94.4544 112.703C94.2655 112.73 93.9957 112.752 93.672 112.784C93.3482 112.816 92.9705 112.843 92.5658 112.86C92.3608 112.876 92.1558 112.876 91.9399 112.881C91.7295 112.892 91.5137 112.881 91.2978 112.881C91.082 112.876 90.8661 112.865 90.6557 112.86C90.4453 112.838 90.2348 112.827 90.0352 112.806C89.8355 112.773 89.6413 112.757 89.4578 112.725C89.2744 112.687 89.1017 112.66 88.9452 112.622C88.7888 112.574 88.6485 112.541 88.519 112.509C88.3895 112.482 88.2869 112.428 88.1952 112.396C88.0171 112.331 87.9092 112.293 87.9092 112.293C87.9092 112.293 88.001 112.347 88.1736 112.439C88.26 112.482 88.3571 112.547 88.4812 112.595C88.6053 112.644 88.7456 112.703 88.9021 112.763C89.0585 112.811 89.2312 112.86 89.4147 112.908C89.5981 112.957 89.7924 112.989 89.9974 113.027C90.2025 113.059 90.4129 113.081 90.6287 113.108C90.8446 113.119 91.0658 113.135 91.287 113.14C91.5083 113.135 91.7295 113.146 91.9453 113.129C92.1612 113.124 92.3716 113.108 92.5766 113.086C92.9867 113.054 93.3644 112.984 93.6882 112.93C94.3357 112.806 94.7512 112.665 94.7512 112.665Z" fill="white"/>
<path d="M1.52588e-05 1.2572C3.17278 1.68887 5.56312 3.03244 5.7196 3.11877L3.91741 6.28613C3.89043 6.26995 2.21772 5.34725 0.00541639 4.94796V1.2572H1.52588e-05Z" fill="#212121"/>
<path d="M63.2717 86.857C63.2717 86.857 66.1315 88.7293 68.9698 90.634C69.6766 91.1089 70.3889 91.5891 71.0472 92.0478C71.209 92.1611 71.3709 92.2744 71.5274 92.3877C71.6029 92.4471 71.6839 92.501 71.7486 92.5604C71.8134 92.6251 71.8781 92.6953 71.9321 92.7654C72.1641 93.046 72.3152 93.3643 72.3745 93.6773C72.4393 93.9903 72.4231 94.287 72.3907 94.5406C72.3692 94.6701 72.3476 94.7888 72.3152 94.8968C72.2882 95.0047 72.2612 95.1072 72.2288 95.1935C72.1749 95.3716 72.1155 95.5065 72.0724 95.5982C72.0346 95.69 72.013 95.7385 72.013 95.7385C72.013 95.7385 72.0346 95.69 72.0778 95.5982C72.1209 95.5065 72.1803 95.3716 72.2397 95.1935C72.272 95.1072 72.3044 95.0047 72.3314 94.8968C72.3637 94.7888 72.3853 94.6701 72.4123 94.5406C72.4555 94.2816 72.4717 93.9849 72.4123 93.6665C72.3583 93.3482 72.2127 93.0136 71.9752 92.7276C71.9159 92.6521 71.8565 92.5819 71.7918 92.5118C71.7216 92.4417 71.6461 92.3877 71.5652 92.3283C71.4141 92.2096 71.2522 92.0963 71.0903 91.9776C70.4428 91.5082 69.7414 91.0172 69.0399 90.5261C66.2341 88.5674 63.412 86.6411 63.412 86.6411L63.2717 86.857Z" fill="white"/>
<path d="M110.712 86.9757C110.712 86.9757 110.345 87.1484 109.714 87.4613C109.083 87.7797 108.176 88.2222 107.097 88.7725C106.018 89.3229 104.766 89.9704 103.428 90.6773C102.759 91.0334 102.068 91.4003 101.366 91.7726C100.665 92.1503 99.9582 92.5334 99.2459 92.9165C98.5391 93.305 97.8322 93.6935 97.1361 94.0766C96.4401 94.4652 95.7602 94.8429 95.0965 95.2098C93.7745 95.949 92.5497 96.6505 91.5029 97.2548C90.4561 97.8591 89.5927 98.3825 88.983 98.7387C88.3787 99.1002 88.0333 99.316 88.0333 99.316C88.0333 99.316 88.4003 99.1434 89.0316 98.8304C89.6629 98.512 90.5694 98.0696 91.6485 97.5192C92.7277 96.9688 93.9796 96.3213 95.3177 95.6145C95.9868 95.2583 96.6775 94.8914 97.379 94.5191C98.0804 94.1414 98.7873 93.7583 99.4995 93.3752C100.206 92.9867 100.913 92.5982 101.609 92.2151C102.305 91.8266 102.985 91.4489 103.649 91.082C104.971 90.3427 106.196 89.6413 107.243 89.0369C108.289 88.4326 109.153 87.9092 109.762 87.5531C110.367 87.1861 110.712 86.9757 110.712 86.9757Z" fill="white"/>
<path d="M20.256 13.7432C20.256 13.7432 8.46605 2.33096 6.12425 2.96227C6.12425 2.96227 4.56485 3.35617 4.13858 6.38324C4.95335 3.74467 9.02182 2.76802 20.256 13.7432Z" fill="white"/>
<path d="M-2.52724e-05 1.82385C0.0863085 1.84004 0.172626 1.85623 0.253564 1.87242C0.631274 1.94796 0.987417 2.03969 1.31656 2.13142C1.96946 2.31487 2.48745 2.52531 2.85437 2.6764C3.21589 2.83288 3.41016 2.94079 3.41016 2.94079C3.41016 2.94079 3.20511 2.85446 2.8328 2.72496C2.46588 2.59546 1.93169 2.43359 1.27879 2.27711C0.890287 2.18538 0.458622 2.10444 -2.52724e-05 2.03429V1.82385Z" fill="white"/>
<path d="M32.0568 12.1083C32.0568 12.1083 31.8247 12.1245 31.4147 12.1622C31.01 12.2054 30.4272 12.2594 29.7312 12.3565C29.0351 12.459 28.2257 12.5723 27.3678 12.7396C26.5098 12.9069 25.5925 13.1065 24.686 13.3385C23.7795 13.5813 22.8838 13.8511 22.0583 14.1533C21.2327 14.4501 20.4827 14.7954 19.8622 15.1246C19.5492 15.2864 19.274 15.4591 19.0366 15.6156C18.7992 15.7775 18.5995 15.9231 18.4376 16.0526C18.2758 16.1767 18.1625 16.2955 18.0815 16.3656C18.0006 16.4411 17.9574 16.4789 17.9574 16.4789C17.9574 16.4789 18.0006 16.4411 18.0869 16.3764C18.1733 16.3116 18.2973 16.2037 18.4646 16.0904C18.6265 15.9717 18.8369 15.8368 19.0797 15.6965C19.328 15.5562 19.6085 15.4051 19.9215 15.2541C20.5474 14.9465 21.3029 14.6497 22.1284 14.3637C22.9486 14.0778 23.8443 13.8188 24.7454 13.5867C25.6465 13.3439 26.553 13.1389 27.4055 12.9608C28.2581 12.7828 29.0621 12.6209 29.7474 12.5022C30.438 12.3781 31.01 12.2755 31.4147 12.2108C31.8247 12.146 32.0568 12.1083 32.0568 12.1083Z" fill="white"/>
<path d="M89.7599 62.7106C89.7599 62.7106 89.5981 62.5164 89.3013 62.1603C88.9991 61.7987 88.5567 61.2753 87.9793 60.6117C87.4074 59.948 86.7005 59.1548 85.8911 58.2429C85.0764 57.3364 84.1645 56.3058 83.1338 55.2158C82.6212 54.6654 82.0871 54.0935 81.5367 53.4999C80.9809 52.9118 80.4036 52.3074 79.81 51.6869C78.6283 50.4351 77.3495 49.1509 76.0275 47.8127C75.3584 47.1544 74.6786 46.4853 73.9879 45.8054C73.2972 45.131 72.6065 44.4349 71.8889 43.7658C70.4536 42.4115 69.0237 41.0139 67.5398 39.6704C66.8006 38.9959 66.056 38.3268 65.3168 37.6523C64.5775 36.9832 63.8221 36.3411 63.0829 35.6882C62.3383 35.0407 61.6044 34.3986 60.876 33.7619C60.1367 33.1414 59.4029 32.5316 58.6852 31.9273C57.9622 31.3284 57.2553 30.7348 56.5593 30.1575C55.847 29.5963 55.1564 29.0513 54.4765 28.5171C53.1221 27.4542 51.8541 26.4343 50.6346 25.5548C49.426 24.6645 48.3198 23.8443 47.3378 23.1213C46.3341 22.4306 45.4546 21.8263 44.737 21.3299C43.2909 20.3424 42.4653 19.7812 42.4653 19.7812C42.4653 19.7812 43.2693 20.3748 44.6776 21.4162C45.3845 21.9342 46.2424 22.5601 47.2245 23.2832C48.1849 24.0278 49.2749 24.8749 50.4566 25.7922C51.6545 26.6933 52.9063 27.7347 54.2391 28.8193C54.9028 29.3643 55.588 29.9201 56.2841 30.492C56.9694 31.0748 57.6762 31.6737 58.3885 32.278C59.1007 32.8824 59.8292 33.4975 60.5684 34.1234C61.2915 34.7601 62.0199 35.4076 62.7591 36.0605C63.493 36.7134 64.2484 37.3609 64.9768 38.0354C65.7106 38.7099 66.4445 39.3844 67.1837 40.0589C68.673 41.3916 70.1137 42.7784 71.549 44.1219C72.272 44.791 72.9627 45.4817 73.6587 46.1508C74.3494 46.8253 75.0347 47.4889 75.7038 48.1418C76.3675 48.8055 77.0204 49.453 77.6625 50.0897C78.3046 50.7211 78.9305 51.3416 79.5348 51.9567C80.1392 52.5664 80.7273 53.1654 81.2939 53.7373C81.855 54.3201 82.4 54.8813 82.918 55.4208C83.9594 56.5 84.9037 57.4983 85.7455 58.3778C86.5818 59.2681 87.3102 60.0397 87.8984 60.6872C88.4919 61.3347 88.956 61.8365 89.2743 62.1819C89.5873 62.5272 89.7599 62.7106 89.7599 62.7106Z" fill="white"/>
<path d="M16.8243 19.2686C16.8243 19.2686 15.4267 22.1337 16.3171 28.3336C21.7831 36.2709 32.3481 52.5124 32.3481 52.5124C32.3481 52.5124 14.6174 26.6231 16.8243 19.2686Z" fill="white"/>
<path d="M69.3745 79.6428C69.3745 79.6428 68.7809 78.8712 67.7341 77.5168C66.6873 76.1679 65.2035 74.2308 63.3905 71.9267C61.5828 69.6227 59.4731 66.9356 57.1798 64.0758C56.0359 62.6459 54.8488 61.1728 53.6455 59.6727C52.4369 58.1781 51.2066 56.6619 49.9764 55.1456C48.7353 53.6402 47.4889 52.1347 46.2694 50.6509C45.0338 49.1778 43.8197 47.7263 42.6488 46.3234C41.4563 44.9313 40.307 43.5877 39.2116 42.3143C38.1001 41.0571 37.0533 39.8646 36.0821 38.7638C35.0946 37.6793 34.1935 36.6864 33.3787 35.8177C32.5532 34.9598 31.8301 34.2151 31.2366 33.6C29.9902 32.4291 29.2833 31.76 29.2833 31.76C29.2833 31.76 29.9847 32.4399 31.2096 33.6324C31.7923 34.2583 32.5046 35.0137 33.314 35.8824C34.1126 36.762 34.9975 37.7764 35.9741 38.861C36.9346 39.9671 37.9706 41.165 39.066 42.4384C40.1505 43.7226 41.289 45.0716 42.4707 46.4691C43.6416 47.8774 44.8503 49.3289 46.0806 50.8074C47.3 52.2912 48.5357 53.8021 49.7767 55.3129C51.0124 56.8237 52.2426 58.34 53.4567 59.8292C54.6654 61.3239 55.8525 62.7969 57.0018 64.2214C59.295 67.0759 61.4372 69.736 63.2717 72.0238C66.9355 76.5941 69.3745 79.6428 69.3745 79.6428Z" fill="white"/>
</svg>
