<svg width="92" height="79" viewBox="0 0 92 79" fill="none" xmlns="http://www.w3.org/2000/svg">
<path d="M0.526769 6.29411C0.0367694 6.94411 -0.123223 7.68412 0.0967767 8.36412L9.07677 36.5341C10.4868 40.9541 10.9668 43.2441 11.4268 45.4641C11.8568 47.5341 12.2668 49.4941 13.3668 52.9341C14.3668 56.0641 16.1468 59.0541 17.9768 61.8041C17.3068 62.7541 17.0368 63.8841 17.1168 64.9541C17.2668 67.1641 18.9168 69.4541 21.7668 69.5541C21.9168 69.5541 22.0768 69.5541 22.2268 69.5541C22.4368 69.5441 22.6768 69.5241 22.9268 69.5041C23.2768 70.1841 23.5768 70.8341 23.7668 71.4541C24.4368 73.5441 24.2668 75.1641 24.1568 76.2441C24.0668 77.1541 23.9968 77.8641 24.4968 78.4441C24.6968 78.6641 25.0468 78.9341 25.6368 78.9541C25.9768 78.9641 26.3568 78.8941 26.8768 78.7241C27.3168 78.5841 27.9268 78.2341 28.2868 77.3741C28.9968 75.7041 28.4268 72.4641 27.3168 68.8741C34.3268 67.6341 46.0768 64.7441 57.6068 60.1341C74.0768 53.5541 86.3768 45.4541 89.7568 42.5641C91.3168 41.2341 91.8568 39.2141 91.1868 37.3041C90.5068 35.3541 88.7168 34.0041 86.7468 33.9341C85.6468 33.8941 84.5568 34.2341 83.5068 34.9341C79.8668 37.3641 66.9568 45.6841 53.9268 50.8941C42.5368 55.4441 29.5868 58.2041 23.6168 59.3241C23.1868 58.3841 22.7668 57.4941 22.3768 56.7041C19.2068 50.2441 17.6768 45.8541 17.0968 44.0541C19.7768 42.8641 23.0668 40.4241 22.0168 37.1241L11.5668 4.34413C11.3768 3.76413 10.8168 3.05413 9.18677 3.00413C6.82677 2.91413 2.02677 4.30411 0.526769 6.29411ZM22.5068 59.5241C22.2068 59.5741 21.9368 59.6241 21.6868 59.6741C20.9968 58.0941 19.8568 55.3341 18.9168 52.4941C18.6068 51.5841 18.3168 50.6741 18.0568 49.7941C18.8868 51.8141 19.9768 54.2841 21.3968 57.1841C21.7668 57.9541 22.1368 58.7341 22.5068 59.5241ZM18.9068 62.3841C19.1268 62.4341 19.4168 62.5141 19.7968 62.6041C20.0468 62.6641 20.3468 62.7341 20.6668 62.7941C20.0868 63.5541 19.8968 64.5741 20.2768 65.5241C20.3968 65.8241 20.5768 66.0941 20.7768 66.3341C20.4168 66.3641 20.0968 66.3941 19.8268 66.4041C19.2068 66.4441 18.8568 66.4741 18.8568 66.4741C18.8568 66.4741 19.2068 66.5041 19.8268 66.5641C20.1368 66.5841 20.5168 66.6141 20.9468 66.6341C20.9968 66.6341 21.0468 66.6341 21.0868 66.6441C21.5568 67.0341 22.1368 67.2641 22.7668 67.2841C23.1568 67.2941 23.5368 67.2341 23.8968 67.0841C24.2068 66.9641 24.4668 66.7841 24.7068 66.5741C25.1468 66.5441 25.5868 66.5141 26.0468 66.4541C27.3768 66.2941 28.7868 66.0641 30.1768 65.7741C31.5668 65.4341 32.9368 65.0341 34.1968 64.6041C35.4568 64.1641 36.6068 63.6641 37.5768 63.2141C38.0668 62.9941 38.4968 62.7741 38.8768 62.5641C39.2568 62.3641 39.5868 62.1741 39.8568 62.0241C40.3868 61.7041 40.6968 61.5241 40.6968 61.5241C40.6968 61.5241 40.3668 61.6541 39.7868 61.8841C39.5068 62.0141 39.1468 62.1441 38.7468 62.2941C38.3468 62.4441 37.8868 62.6141 37.3968 62.8041C36.4168 63.1941 35.2268 63.5341 33.9768 63.9441C32.7168 64.3341 31.3568 64.6841 29.9868 64.9841C28.6168 65.3041 27.2468 65.5741 25.9368 65.7641C25.7168 65.7941 25.4968 65.8241 25.2768 65.8541C25.6668 65.1441 25.7568 64.2841 25.4368 63.4741C25.3768 63.3141 25.2968 63.1741 25.2068 63.0341C25.3768 63.0141 25.5468 63.0041 25.7168 62.9841C26.5468 62.8941 27.4168 62.7841 28.3168 62.6441C30.1168 62.3741 32.0368 61.9241 33.8668 61.2941C35.7068 60.6841 37.4968 59.9441 39.1768 59.2541C40.8468 58.5641 42.4168 57.9341 43.7768 57.4641C45.1368 56.9841 46.2968 56.6641 47.1168 56.4641C47.9368 56.2741 48.4168 56.1841 48.4168 56.1841C48.4168 56.1841 47.9368 56.2641 47.1068 56.4141C46.2768 56.5841 45.1068 56.8641 43.7168 57.2941C42.3268 57.7241 40.7368 58.2941 39.0468 58.9241C37.3468 59.5541 35.5468 60.2241 33.7068 60.7641C31.8668 61.3141 29.9968 61.6941 28.2168 61.8941C26.8668 62.0341 25.5668 62.1741 24.4168 62.2041C23.9868 61.9141 23.4768 61.7341 22.9368 61.7141C22.5468 61.7041 22.1668 61.7641 21.8068 61.9141C21.7568 61.9341 21.7168 61.9641 21.6668 61.9841C21.0368 61.8641 20.4768 61.7141 20.0368 61.5941C19.9568 61.5741 19.8768 61.5441 19.7968 61.5241C20.2968 61.1941 20.9068 60.9341 21.6568 60.8041C26.9468 59.8841 41.5668 57.0141 54.3168 51.9241C67.0568 46.8341 79.6368 38.8341 84.0968 35.8541C85.0068 35.2541 85.8868 35.0141 86.6868 35.0341C87.4068 35.0541 88.0568 35.3041 88.6068 35.6741C88.0868 35.7941 87.4468 35.9941 86.7668 36.3241C86.6668 36.3741 86.5668 36.4341 86.4568 36.4841C86.3468 36.4641 86.2468 36.4541 86.1368 36.4541C85.7468 36.4441 85.3668 36.5041 85.0068 36.6541C84.3168 36.9341 83.7668 37.4641 83.4768 38.1441C83.3968 38.3241 83.3468 38.5041 83.3068 38.6941C82.5968 39.2941 81.8768 39.9341 81.1368 40.5241C79.1768 42.0841 76.9968 43.3641 75.3468 44.2841C73.6968 45.2041 72.5768 45.7941 72.5768 45.7941C72.5768 45.7941 73.7268 45.2641 75.4268 44.4441C77.1268 43.6141 79.3868 42.4541 81.4668 40.9741C82.0968 40.5341 82.6968 40.0641 83.2868 39.6141C83.3168 39.8441 83.3668 40.0741 83.4568 40.2941C83.8668 41.3241 84.8468 42.0141 85.9568 42.0441C86.3468 42.0541 86.7268 41.9941 87.0868 41.8441C88.5168 41.2741 89.2168 39.6441 88.6468 38.2141C88.4468 37.7141 88.1068 37.2941 87.6868 36.9841C88.2968 36.7741 88.8268 36.6741 89.2168 36.6441C89.3568 36.6341 89.4668 36.6241 89.5768 36.6241C90.0868 37.3241 90.3668 38.1741 90.3468 39.0441C89.9068 39.6041 89.2068 40.4041 88.1168 41.4141C87.7368 41.6941 87.2968 41.9941 86.7968 42.3241C85.9168 42.8741 84.8568 43.4841 83.6568 44.0241C82.4068 44.5041 81.0968 45.1041 79.8268 45.7441C77.2768 47.0341 74.8268 48.5041 73.0768 49.7341C72.1968 50.3441 71.4868 50.8741 70.9968 51.2641C70.5068 51.6441 70.2268 51.8741 70.2268 51.8741C70.2268 51.8741 70.5368 51.7041 71.0768 51.3841C71.6068 51.0641 72.3768 50.6141 73.2868 50.0641C73.7468 49.8041 74.2368 49.4941 74.7668 49.1941C75.2868 48.8841 75.8468 48.5641 76.4268 48.2341C77.5768 47.5741 78.8268 46.9041 80.0968 46.2941C81.3668 45.6741 82.6568 45.1141 83.9068 44.6541C84.0168 44.6141 84.1268 44.5741 84.2368 44.5341C79.3268 48.0441 70.9868 52.8141 56.9368 58.4341C52.9168 60.0441 49.2868 61.3741 46.0168 62.4741C46.5668 62.1141 47.0768 61.7041 47.5768 61.3241C48.6868 60.4441 49.9968 59.8641 51.2368 59.3341C52.4768 58.7941 53.6268 58.2941 54.6368 57.8941C56.6368 57.0841 58.0268 56.6741 58.0268 56.6741C58.0268 56.6741 56.6268 57.0141 54.5868 57.7341C53.5668 58.0941 52.3868 58.5341 51.1168 59.0141C49.8668 59.4841 48.4768 60.0241 47.2768 60.8841C46.6768 61.2941 46.1068 61.7241 45.5068 62.0641C44.9068 62.4141 44.2868 62.7041 43.6768 62.9541C42.4468 63.4441 41.2468 63.7941 40.2068 64.1141C39.1668 64.4341 38.3068 64.7241 37.6968 64.9541C37.4768 65.0341 37.3068 65.1041 37.1668 65.1641C26.6868 67.9541 21.4468 67.7441 19.3468 67.4241C18.0568 66.1141 17.7868 63.9141 18.9068 62.3841ZM85.4568 37.6641C85.6768 37.5741 85.9068 37.5341 86.1368 37.5441C86.7868 37.5641 87.3868 37.9641 87.6468 38.6041C87.9968 39.4641 87.5668 40.4541 86.7068 40.7941C86.4868 40.8841 86.2568 40.9241 86.0268 40.9141C85.3768 40.8941 84.7768 40.4941 84.5168 39.8541C84.1668 38.9941 84.5868 38.0141 85.4568 37.6641ZM22.2468 62.9241C22.4668 62.8341 22.6968 62.7941 22.9268 62.8041C23.5768 62.8241 24.1768 63.2241 24.4368 63.8641C24.7868 64.7241 24.3568 65.7141 23.4968 66.0541C23.2768 66.1441 23.0468 66.1841 22.8168 66.1741C22.1668 66.1541 21.5668 65.7541 21.3068 65.1141C20.9568 64.2541 21.3768 63.2741 22.2468 62.9241ZM24.0968 69.3641C24.4768 69.3141 24.8868 69.2641 25.3268 69.1941C25.5868 69.7641 26.0068 70.7341 26.3068 71.7641C26.8168 73.3741 27.0168 75.0841 27.0168 75.0841C27.0168 75.0841 27.1568 73.9241 27.1468 72.5241C27.7368 75.3241 27.6468 77.2941 26.5368 77.6541C26.1468 77.7741 25.8668 77.8341 25.6668 77.8241C24.4268 77.7841 26.1668 75.3441 24.8068 71.0941C24.6368 70.5441 24.3868 69.9641 24.0968 69.3641ZM9.15677 4.10414C9.88677 4.12414 10.3968 4.30411 10.5168 4.67411C11.0868 6.45411 19.7968 33.7641 20.9668 37.4541C22.0268 40.7841 16.9268 42.9441 15.9268 43.3341C15.7168 43.3641 15.5268 43.3441 15.3568 43.2741C15.2168 43.2141 15.0668 43.1041 14.9368 42.9441C15.0368 42.9141 15.1368 42.8741 15.2568 42.8341C15.7868 42.6341 16.4468 42.3141 17.0768 41.9341C17.6968 41.5541 18.2768 41.1141 18.6768 40.7541C18.8868 40.5841 19.0368 40.4241 19.1568 40.3141C19.2668 40.2041 19.3368 40.1441 19.3368 40.1441C19.3368 40.1441 19.2568 40.1941 19.1268 40.2741C18.9968 40.3541 18.8068 40.4841 18.5768 40.6141C18.1168 40.8841 17.4868 41.2041 16.8368 41.4441C16.1868 41.6841 15.5168 41.8641 15.0168 41.9441C14.7668 41.9841 14.5568 42.0141 14.4168 42.0241C14.4068 42.0241 14.3968 42.0241 14.3768 42.0241C14.0168 41.2741 13.7068 40.3741 13.4068 39.4341C13.0468 38.2941 12.6668 37.0741 12.2568 35.8341C11.4368 33.3341 10.5568 30.6741 9.67678 28.0141C8.78678 25.3541 7.88677 22.7041 7.04677 20.2141C6.20677 17.7241 5.38678 15.4141 4.70678 13.4241C4.00678 11.4441 3.41678 9.79413 3.00678 8.63413C2.58678 7.48413 2.34678 6.82414 2.34678 6.82414C2.34678 6.82414 2.53677 7.50412 2.85677 8.68412C3.19677 9.86412 3.67677 11.5541 4.24677 13.5741C4.83677 15.5941 5.51677 17.9541 6.26677 20.4641C7.02677 22.9841 7.83678 25.6641 8.64678 28.3441C9.47678 31.0241 10.2968 33.7041 11.0768 36.2141C11.4668 37.4741 11.8468 38.6741 12.2268 39.8241C12.6268 40.9741 12.9668 42.0841 13.5868 43.0741C13.8868 43.5441 14.2868 44.0241 14.8768 44.2741C15.0868 44.9241 16.4068 48.9541 18.1368 52.8241C19.3268 55.5741 20.7168 58.2041 21.5468 59.7241C21.5268 59.7241 21.5068 59.7341 21.4968 59.7341C20.3768 59.9341 19.4968 60.3541 18.8168 60.9141C18.1268 59.4941 17.0968 57.3241 16.1768 55.1041C14.5768 51.3141 13.3068 47.3941 13.3068 47.3941C13.3068 47.3941 14.3768 51.3741 15.7868 55.2541C16.0768 56.0641 16.3768 56.8641 16.6768 57.6341C15.7568 56.0041 14.9668 54.3341 14.4168 52.6141C12.1468 45.5041 12.8568 44.7741 10.1268 36.2141C7.39678 27.6541 1.14678 8.04411 1.14678 8.04411C0.52678 6.09411 6.39677 4.01414 9.15677 4.10414Z" fill="white"/>
<path d="M11.3667 10.1241C11.8967 11.7041 12.5367 13.5441 13.1767 15.5241C13.8167 17.5041 14.5067 19.6241 15.1967 21.7341C15.8567 23.8541 16.5267 25.9741 17.1467 27.9641C17.7667 29.9541 18.3167 31.8242 18.7967 33.4142C19.2767 35.0142 19.6467 36.3541 19.9267 37.2841C20.1867 38.2241 20.3367 38.7542 20.3367 38.7542C20.3367 38.7542 20.1467 38.2341 19.8167 37.3141C19.4967 36.3941 19.0267 35.0842 18.4967 33.5042C17.9667 31.9242 17.3267 30.0842 16.6867 28.1042C16.0467 26.1242 15.3567 24.0041 14.6667 21.8941C14.0067 19.7741 13.3367 17.6542 12.7167 15.6642C12.0967 13.6742 11.5467 11.8041 11.0667 10.2141C10.5867 8.61414 10.2167 7.27415 9.93674 6.34415C9.67674 5.40415 9.52673 4.87415 9.52673 4.87415C9.52673 4.87415 9.71674 5.39415 10.0467 6.31415C10.3667 7.24415 10.8367 8.54415 11.3667 10.1241Z" fill="white"/>
<path d="M45.7768 59.6241C46.4368 59.2141 47.1768 58.3941 48.0768 57.4141C48.5368 56.9241 49.0268 56.3841 49.6468 55.8941C50.2568 55.4041 50.9468 54.9541 51.7068 54.5641C53.2168 53.7741 54.9068 53.1841 56.5568 52.5541C58.2168 51.9441 59.8468 51.2541 61.3368 50.5341C62.8368 49.8141 64.2168 49.1141 65.3768 48.4641C66.5368 47.8041 67.4968 47.2541 68.1568 46.8341C68.8168 46.4241 69.1968 46.1941 69.1968 46.1941C69.1968 46.1941 68.8468 46.4641 68.2268 46.9441C67.5968 47.4041 66.7068 48.0741 65.5768 48.7941C64.4468 49.5041 63.1068 50.3241 61.6068 51.0641C60.1068 51.8141 58.4768 52.5441 56.8068 53.1941C55.1268 53.8041 53.4468 54.3641 51.9768 55.0941C51.2468 55.4641 50.5668 55.8541 49.9568 56.2941C49.3468 56.7241 48.8368 57.2241 48.3668 57.6941C47.4268 58.6441 46.5568 59.3841 45.8668 59.7541C45.5168 59.9441 45.2268 60.0541 45.0368 60.1141C44.8368 60.1741 44.7268 60.2041 44.7268 60.2041C44.7268 60.2041 44.8268 60.1641 45.0268 60.0841C45.1868 59.9741 45.4568 59.8441 45.7768 59.6241Z" fill="white"/>
<path d="M58.3167 55.2441C58.9167 55.1541 59.5667 55.0741 60.2567 55.0041C60.9367 54.9341 61.6567 54.8541 62.3467 54.6641C63.7467 54.3041 64.9567 53.2441 66.2167 52.2441C67.4867 51.2641 68.7967 50.3141 70.0367 49.4641C71.2767 48.6041 72.4767 47.8741 73.5067 47.2441C74.5367 46.6141 75.4267 46.1441 76.0367 45.8041C76.6567 45.4841 77.0167 45.2941 77.0167 45.2941C77.0167 45.2941 76.6867 45.5141 76.0967 45.9041C75.5067 46.2841 74.6867 46.8641 73.6967 47.5341C72.6967 48.2041 71.5667 49.0341 70.3467 49.9041C69.1267 50.7741 67.8567 51.7441 66.6067 52.7341C65.3567 53.6941 64.0567 54.8041 62.4967 55.1841C61.7367 55.3841 60.9867 55.4141 60.3067 55.4541C59.6167 55.4841 58.9767 55.5241 58.3767 55.5841C57.1867 55.7041 56.1867 55.8241 55.4967 55.9341C54.8067 56.0341 54.4067 56.1141 54.4067 56.1141C54.4067 56.1141 54.7867 55.9941 55.4667 55.8141C56.1367 55.6541 57.1167 55.4141 58.3167 55.2441Z" fill="white"/>
<path d="M22.9267 64.6442C23.6567 64.3542 23.8967 63.2442 24.1867 63.9642C24.4767 64.6942 24.1267 65.5142 23.3967 65.8042C22.6667 66.0942 21.8467 65.7442 21.5567 65.0142C21.2567 64.2942 22.1967 64.9342 22.9267 64.6442Z" fill="white"/>
<path d="M86.1368 39.3842C86.8668 39.0942 87.1068 37.9842 87.3968 38.7042C87.6868 39.4342 87.3368 40.2542 86.6068 40.5442C85.8768 40.8342 85.0568 40.4842 84.7668 39.7542C84.4668 39.0342 85.4068 39.6742 86.1368 39.3842Z" fill="white"/>
<path d="M54 8.57726C54 8.57726 53.892 8.82265 53.7101 9.20746C53.8409 8.28169 53.875 7.37266 53.8522 6.6867C53.8409 6.31862 53.8181 6.01189 53.7954 5.79997C53.7727 5.58805 53.7613 5.46536 53.7613 5.46536C53.7613 5.46536 53.7499 5.58805 53.7272 5.79997C53.7045 6.01189 53.6647 6.31304 53.6022 6.66997C53.5965 6.72016 53.5851 6.77036 53.5738 6.81497C53.642 5.90036 53.6306 5.16978 53.6306 5.16978C53.6306 5.16978 53.5169 5.53786 53.3294 6.05093C53.2555 5.56016 53.1589 5.18652 53.1589 5.18652C53.1589 5.18652 53.0679 5.47651 52.9145 5.84459C52.8918 4.73478 52.7156 3.76441 52.7156 3.76441C52.7156 3.76441 52.6246 4.35556 52.4314 5.09729C52.4144 4.7794 52.3859 4.47825 52.3518 4.22729C52.2836 3.69749 52.2041 3.35171 52.2041 3.35171C52.2041 3.35171 52.1813 3.70864 52.1018 4.22729C52.0677 4.44479 52.0222 4.70132 51.9597 4.96344C51.9256 3.97633 51.8233 3.16767 51.8233 3.16767C51.8233 3.16767 51.7267 3.64729 51.5505 4.29421C51.488 3.46883 51.3118 2.77729 51.3118 2.77729C51.3118 2.77729 51.2265 3.21229 51.056 3.75882C50.9481 3.3071 50.823 2.96691 50.823 2.96691C50.823 2.96691 50.7094 3.34614 50.5218 3.76998C50.4025 3.29037 50.2945 2.90556 50.2945 2.90556C50.2945 2.90556 50.2206 3.10076 50.1126 3.37403C49.9762 2.63787 49.8057 1.96306 49.8057 1.96306C49.8057 1.96306 49.6864 2.4148 49.5102 2.95576C49.3681 2.44268 49.209 2.01326 49.209 2.01326C49.209 2.01326 49.1237 2.27538 48.993 2.61557C48.9362 2.45941 48.8737 2.31441 48.8225 2.1973C48.743 2.02442 48.6804 1.91845 48.6804 1.91845C48.6804 1.91845 48.6407 2.03557 48.5725 2.20287C48.527 2.30883 48.4645 2.43153 48.3963 2.55979C48.3167 1.8348 48.1633 1.19346 48.1633 1.19346C48.1633 1.19346 48.0098 1.70095 47.7768 2.26422C47.6631 1.87384 47.5495 1.56711 47.5495 1.56711C47.5495 1.56711 47.4642 1.77345 47.3392 2.05229L47.1175 0.953645L46.6742 1.90172C46.5719 1.22692 46.5265 0.585576 46.5265 0.585576C46.5265 0.585576 46.3332 0.975957 46.1116 1.4723C46.0036 0.892304 45.9695 0.334609 45.9695 0.334609C45.9695 0.334609 45.7024 0.780762 45.458 1.33845L45.2193 0.217499L44.6965 1.52249L44.4464 0.630184L44.2418 1.24365L43.9804 0.0223039L43.6735 1.09307L43.3893 0L43.0767 1.31615C42.9119 0.741728 42.7187 0.195186 42.7187 0.195186C42.7187 0.195186 42.5198 0.758456 42.2867 1.30499L41.9514 0.234229L41.5252 1.63961L41.3206 1.02057L40.883 2.08575L40.65 1.09865L40.1612 2.23076L39.8884 1.31615L39.6497 2.04115C39.5474 1.76788 39.4622 1.57268 39.4622 1.57268C39.4622 1.57268 39.3087 1.92402 39.1212 2.30325L38.9336 1.37191L38.3141 2.74383L38.138 1.74556L37.5639 2.97806C37.4901 2.64903 37.4446 2.39807 37.4446 2.39807C37.4446 2.39807 37.2002 2.7996 36.9729 3.27921C36.8478 2.9446 36.7569 2.67133 36.7569 2.67133C36.7569 2.67133 36.5921 3.0171 36.4216 3.44095C36.2397 2.97249 36.0636 2.57652 36.0636 2.57652C36.0636 2.57652 35.9272 3.0171 35.751 3.49114C35.6828 3.35729 35.6316 3.26806 35.6316 3.26806C35.6316 3.26806 35.5634 3.47999 35.4611 3.74768L35.0803 2.31441L34.7678 4.18825L34.4552 3.4019L34.2904 4.38902C34.1312 3.92056 34.0232 3.54133 34.0232 3.54133C34.0232 3.54133 33.8868 4.04325 33.7732 4.65113L33.58 4.17709L33.3526 5.54344L33.023 4.94671L32.8582 6.09555C32.6649 5.70516 32.5456 5.40402 32.5456 5.40402C32.5456 5.40402 32.4831 6.0119 32.5229 6.7369C32.1876 5.8669 32 5.16421 32 5.16421C32 5.16421 32 5.54343 32.0284 6.11228C32.0625 6.68112 32.1421 7.43958 32.2842 8.20361C32.4092 8.92861 32.6081 9.63688 32.7786 10.189C32.9548 10.8861 33.1935 11.678 33.489 12.5424C33.256 11.9457 33.0514 11.3825 32.8866 10.875C32.7729 10.5403 32.6763 10.228 32.5968 9.95476C32.5115 9.68149 32.4433 9.43611 32.3921 9.24092C32.2842 8.83938 32.2273 8.61073 32.2273 8.61073C32.2273 8.61073 32.2614 8.84496 32.3296 9.25207C32.3581 9.45842 32.4035 9.70381 32.4547 9.98823C32.5058 10.2727 32.5683 10.5905 32.6422 10.9363C32.7843 11.6334 32.9946 12.4365 33.239 13.2953C33.4947 14.1542 33.7959 15.0576 34.1369 15.9499C34.171 16.0336 34.2051 16.1172 34.2392 16.1953C33.6879 15.303 33.3356 14.6449 33.3356 14.6449C33.3356 14.6449 33.4606 15.1915 33.6879 16.0057C33.8869 16.7363 34.1881 17.6732 34.5404 18.6268C34.2904 18.2588 34.154 18.0022 34.154 18.0022C34.154 18.0022 34.2335 18.3591 34.4211 18.889C34.6029 19.4188 34.9155 20.1047 35.319 20.7628C35.427 20.9413 35.5464 21.1141 35.6657 21.2814C35.751 21.4543 35.8305 21.6216 35.9101 21.7778C35.535 21.8447 35.1883 21.9339 34.8814 22.0511C33.9607 22.4024 32.8639 23.2166 32.8639 25.0682C32.8639 27.1874 33.4151 29.6301 33.7391 30.8681C33.2787 31.3533 32.9093 32.1564 32.9093 33.4112C32.9093 34.7775 33.3697 35.3575 33.8414 35.8316C34.0289 36.0212 34.0346 36.0268 34.0346 36.3223C34.0346 36.6848 33.8982 36.9023 33.5856 37.3541C33.148 37.9954 32.5399 38.8766 32.5399 40.4716C32.5399 42.1112 33.8641 43.2042 36.4841 43.7062C38.4221 44.0798 40.9341 44.13 43.1335 44.13C45.333 44.13 47.8393 44.0798 49.783 43.7062C52.3973 43.2042 53.7272 42.1167 53.7272 40.4716C53.7272 38.8766 53.1248 37.9954 52.6815 37.3541C52.3689 36.9023 52.2325 36.6848 52.2325 36.3223C52.2325 36.0268 52.2382 36.0212 52.4257 35.8316C52.8974 35.3575 53.3578 34.7775 53.3578 33.4112C53.3578 32.1564 52.9884 31.3533 52.528 30.8681C52.7838 29.8754 53.1873 28.1131 53.3407 26.362C53.3976 26.0887 53.4317 25.8099 53.443 25.531C53.4544 25.2912 53.4317 25.0459 53.3919 24.806C53.2612 22.5418 51.4937 21.867 49.5557 21.6662C49.7887 21.2201 50.0558 20.6791 50.3059 20.127C50.9083 18.8165 51.38 17.4724 51.38 17.4724C51.38 17.4724 51.1697 17.768 50.8458 18.1918C51.1072 17.6732 51.3857 17.1043 51.6414 16.5243C52.5735 14.4999 53.3009 12.4142 53.3009 12.4142C53.3009 12.4142 52.9145 13.089 52.3405 14.0147C52.5678 13.4626 52.8122 12.8269 53.0225 12.1855C53.6306 10.4121 54 8.57726 54 8.57726ZM35.177 36.3502C35.177 34.7608 34.046 35.3798 34.046 33.4391C34.046 31.4983 35.0519 31.3812 35.0519 31.3812C35.0519 31.3812 34.0062 27.8901 34.0062 25.096C34.0062 23.0047 35.7225 22.7426 39.1212 22.7426C40.2635 22.7426 41.5991 22.7705 43.1222 22.7705C44.6453 22.7705 45.9752 22.7426 47.1232 22.7426C47.7313 22.7426 48.2769 22.7537 48.7771 22.7761C49.1578 23.0605 49.4818 23.3839 49.7375 23.7464C49.908 23.9918 50.0444 24.2484 50.1524 24.516C49.9705 24.5328 49.783 24.5495 49.5898 24.5662C48.0269 24.6945 45.9297 24.8284 43.8326 24.9176C41.7355 25.0068 39.6327 25.057 38.0527 25.0737C37.2627 25.0849 36.6092 25.0849 36.1488 25.0849C35.6885 25.0849 35.427 25.0849 35.427 25.0849C35.427 25.0849 35.6885 25.1072 36.1488 25.1462C36.6092 25.1853 37.2627 25.2466 38.0527 25.308C39.627 25.4362 41.7298 25.5812 43.8383 25.6816C45.9468 25.782 48.0553 25.8378 49.6409 25.8545C49.9421 25.8545 50.2206 25.8601 50.482 25.8601C50.5673 26.7189 50.4536 27.6001 50.2831 28.3976C50.1013 29.2285 49.7887 30.0372 49.4988 30.8458C49.1237 30.8849 48.652 30.9351 48.1007 30.9852C46.7027 31.1135 44.8329 31.2474 42.9574 31.331C41.0819 31.4202 39.2007 31.4593 37.7913 31.4704C37.0865 31.4816 36.4955 31.476 36.0863 31.476C35.6714 31.476 35.4384 31.476 35.4384 31.476C35.4384 31.476 35.6714 31.4983 36.0806 31.5429C36.4898 31.582 37.0752 31.6433 37.7799 31.7047C39.1894 31.8329 41.0705 31.9779 42.9574 32.0727C44.8442 32.1731 46.7368 32.2233 48.1576 32.2345C48.4872 32.2345 48.7884 32.2345 49.0612 32.2345C49.0158 32.4185 48.9703 32.6026 48.9419 32.7922C48.8225 33.4447 48.7998 34.1027 48.8339 34.7608C48.652 34.7775 48.4645 34.7943 48.2656 34.8166C46.8675 34.9448 44.9977 35.0787 43.1222 35.1624C41.2467 35.2516 39.3655 35.2906 37.9561 35.3018C37.2514 35.3129 36.6603 35.3073 36.2511 35.3073C35.8362 35.3073 35.6032 35.3073 35.6032 35.3073C35.6032 35.3073 35.8362 35.3297 36.2454 35.3743C36.6546 35.4133 37.24 35.4747 37.9447 35.536C39.3542 35.6643 41.2353 35.8093 43.1222 35.9041C45.009 36.0045 46.9016 36.0547 48.3224 36.0658C48.5554 36.0658 48.7657 36.0658 48.9703 36.0658C49.0726 36.7964 49.2204 37.527 49.3567 38.2519C49.5045 39.0271 49.6352 39.8469 49.2658 40.5719C49.084 40.9233 48.8055 41.2189 48.4588 41.4698C48.186 41.5144 47.9018 41.5646 47.6006 41.6037C47.1573 41.6706 46.6913 41.7264 46.2025 41.7766C45.7138 41.8379 45.2079 41.8658 44.6965 41.9104C44.185 41.9494 43.6564 41.9662 43.1335 41.9996C42.6107 42.0108 42.0822 42.0219 41.565 42.0331C41.0478 42.0275 40.5363 42.0219 40.0419 42.0164C39.5474 41.994 39.07 41.9773 38.621 41.955C38.1664 41.9383 37.7401 41.8937 37.348 41.8658C36.9558 41.8323 36.5921 41.8156 36.2682 41.771C35.9499 41.7375 35.6714 41.704 35.4384 41.6817C34.9781 41.6315 34.7166 41.6037 34.7166 41.6037C34.7166 41.6037 34.978 41.6594 35.427 41.7487C35.6544 41.7933 35.9271 41.8546 36.2454 41.916C36.5637 41.9885 36.9217 42.0442 37.3139 42.1112C37.706 42.1725 38.1323 42.2562 38.5813 42.3175C39.0359 42.3789 39.5133 42.4458 40.0021 42.5127C40.4965 42.5629 41.0137 42.6187 41.5309 42.6744C42.0537 42.7135 42.588 42.7525 43.1165 42.7915C43.3438 42.7971 43.5655 42.8083 43.7928 42.8194C42.9858 42.9087 41.9628 42.97 40.2805 42.9756C36.7512 42.8362 33.705 42.3119 33.705 40.4994C33.6879 38.2129 35.177 37.9396 35.177 36.3502ZM35.3929 16.6972C35.3929 16.6972 35.2622 16.4463 35.069 16.067C34.9781 15.8774 34.8701 15.6544 34.7621 15.4145C34.6541 15.1747 34.5347 14.9182 34.4154 14.6672C34.3017 14.4107 34.1938 14.1542 34.0858 13.9144C33.9835 13.669 33.8869 13.4459 33.8073 13.2507C33.6538 12.8547 33.5515 12.5926 33.5515 12.5926C33.5515 12.5926 33.6993 12.8324 33.9266 13.1949C34.0289 13.379 34.1483 13.5965 34.2733 13.8307C34.387 14.0705 34.512 14.3215 34.6314 14.578C34.7393 14.8401 34.8473 15.0967 34.9496 15.342C35.0406 15.593 35.1201 15.8217 35.194 16.0224C35.3134 16.4295 35.3929 16.6972 35.3929 16.6972ZM33.2731 10.2559C33.131 9.7038 33.0344 9.33015 33.0344 9.33015C33.0344 9.33015 33.1821 9.6815 33.3981 10.2113C33.4947 10.479 33.6084 10.7913 33.7334 11.1315C33.8471 11.4717 33.9664 11.8286 34.0915 12.1911C34.2051 12.5536 34.3245 12.9161 34.4381 13.2507C34.5461 13.5909 34.6541 13.9032 34.7507 14.1709C34.9269 14.7119 35.0633 15.0744 35.0633 15.0744C35.0633 15.0744 34.8814 14.7397 34.6257 14.2211C34.5063 13.959 34.3756 13.6522 34.2392 13.3176C34.1142 12.983 33.9835 12.6205 33.8584 12.2636C33.7448 11.9011 33.6368 11.533 33.5288 11.1928C33.4379 10.8526 33.3469 10.5348 33.2731 10.2559ZM34.6939 5.63266C34.6257 5.22555 34.5632 4.95786 34.5632 4.95786C34.5632 4.95786 34.6768 5.20882 34.8246 5.5992C34.8928 5.79439 34.961 6.02863 35.0349 6.27401C35.0974 6.52497 35.1599 6.79266 35.2167 7.06593C35.2622 7.3392 35.302 7.61247 35.3361 7.869C35.3588 8.12554 35.3759 8.37092 35.3872 8.57726C35.3872 8.98996 35.3759 9.2688 35.3759 9.2688C35.3759 9.2688 35.3304 8.99554 35.2508 8.594C35.2224 8.39324 35.177 8.15343 35.1315 7.90246C35.0917 7.6515 35.0406 7.38381 34.9837 7.11612C34.9383 6.84843 34.8871 6.58074 34.8303 6.32978C34.7848 6.06766 34.7394 5.83343 34.6939 5.63266ZM41.1956 2.77729C41.1956 2.77729 41.2979 3.71422 41.4229 5.12517C41.4797 5.82786 41.5309 6.65323 41.5763 7.53996C41.6161 8.42111 41.6445 9.36918 41.6673 10.3117C41.6786 11.2542 41.673 12.1967 41.6673 13.0834C41.6445 13.9701 41.6218 14.7955 41.5934 15.4982C41.5138 16.9092 41.4456 17.8517 41.4456 17.8517C41.4456 17.8517 41.4627 16.9092 41.457 15.4926C41.4684 14.7844 41.4627 13.959 41.457 13.0778C41.457 12.1967 41.4456 11.2542 41.4286 10.3117C41.4172 9.36918 41.3945 8.42669 41.3661 7.54554C41.3433 6.66439 41.3149 5.83901 41.2865 5.13075C41.241 3.71979 41.1956 2.77729 41.1956 2.77729ZM34.1028 10.5348C34.0005 10.2782 33.8925 9.99938 33.7846 9.72611C33.6936 9.44727 33.6027 9.16284 33.5118 8.90073C33.4379 8.63303 33.3697 8.38208 33.3128 8.17015C33.2219 7.73516 33.1651 7.44516 33.1651 7.44516C33.1651 7.44516 33.2787 7.71843 33.4436 8.13112C33.5231 8.33747 33.6141 8.57727 33.7107 8.83938C33.8073 9.09592 33.9096 9.37477 34.0119 9.64804C34.1085 9.92688 34.2108 10.2001 34.3017 10.4623C34.3927 10.7244 34.4779 10.9642 34.5461 11.1761C34.6825 11.5999 34.7734 11.8788 34.7734 11.8788C34.7734 11.8788 34.6314 11.6167 34.4211 11.2263C34.3245 11.0255 34.2165 10.7913 34.1028 10.5348ZM33.58 7.31689C33.58 7.31689 33.8584 8.12554 34.2847 9.33572C34.4893 9.94361 34.7393 10.6463 35.0065 11.4048C35.2679 12.1632 35.5577 12.9663 35.8533 13.7694C36.1374 14.5724 36.433 15.3755 36.7114 16.1284C36.9842 16.8813 37.2457 17.584 37.4787 18.1807C37.9277 19.3797 38.2289 20.1828 38.2289 20.1828C38.2289 20.1828 37.8765 19.402 37.3537 18.2309C37.1036 17.6397 36.8194 16.9482 36.5182 16.2009C36.2284 15.4536 35.9215 14.6505 35.6259 13.853C35.3418 13.0444 35.0633 12.2357 34.8075 11.4773C34.5632 10.7132 34.3415 9.99938 34.154 9.38592C33.8073 8.14227 33.58 7.31689 33.58 7.31689ZM35.0008 8.99553C35.1201 9.28553 35.2509 9.62573 35.3872 9.9938C35.5123 10.3675 35.6373 10.7634 35.7567 11.1649C35.8646 11.5721 35.9612 11.9736 36.0465 12.3584C36.1204 12.7432 36.1886 13.1001 36.2341 13.4124C36.3136 14.0315 36.3534 14.4497 36.3534 14.4497C36.3534 14.4497 36.2625 14.0426 36.1033 13.4403C36.0351 13.1392 35.9442 12.7823 35.8419 12.4086C35.7453 12.0294 35.6373 11.6278 35.5236 11.2319C35.4157 10.8303 35.302 10.4344 35.1883 10.0607C35.0803 9.68707 34.9724 9.3413 34.8757 9.04015C34.6996 8.44342 34.5689 8.04189 34.5689 8.04189C34.5689 8.04189 34.7507 8.42111 35.0008 8.99553ZM35.3532 5.27017C35.3532 5.27017 35.5066 5.78882 35.7282 6.57516C35.8305 6.96554 35.9556 7.42843 36.0806 7.91919C36.2 8.40996 36.3307 8.93977 36.4614 9.464C36.5807 9.9938 36.7001 10.518 36.8137 11.0144C36.916 11.5107 37.0127 11.9736 37.0979 12.3751C37.2457 13.1726 37.3423 13.708 37.3423 13.708C37.3423 13.708 37.1888 13.1894 36.9672 12.403C36.8649 12.0126 36.7399 11.5498 36.6148 11.059C36.4955 10.5682 36.3648 10.0384 36.2341 9.51419C36.1147 8.98438 35.9954 8.46016 35.8817 7.96381C35.7794 7.46747 35.6828 7.00458 35.5975 6.60305C35.4498 5.79997 35.3532 5.27017 35.3532 5.27017ZM42.7926 3.62498C42.8153 3.90383 42.8437 4.22729 42.8664 4.57306C42.8835 4.91882 42.9062 5.29247 42.929 5.66055C42.9403 6.0342 42.9517 6.40228 42.9574 6.74804C42.9574 7.09381 42.9574 7.42285 42.9631 7.7017C42.946 8.25939 42.9346 8.63304 42.9346 8.63304C42.9346 8.63304 42.8892 8.26496 42.8267 7.70727C42.8039 7.42843 42.7755 7.10497 42.7528 6.7592C42.7357 6.41343 42.713 6.03978 42.6903 5.67171C42.6789 5.29805 42.6675 4.92998 42.6618 4.58421C42.6618 4.23844 42.6618 3.9094 42.6562 3.63056C42.6732 3.07287 42.6846 2.69922 42.6846 2.69922C42.6846 2.69922 42.73 3.06729 42.7926 3.62498ZM42.6164 12.4588C42.6164 11.8063 42.6107 11.1092 42.5936 10.4121C42.5823 9.71496 42.5652 9.01785 42.5425 8.36535C42.5254 7.71285 42.497 7.09939 42.4686 6.58074C42.4288 5.53229 42.3834 4.83517 42.3834 4.83517C42.3834 4.83517 42.48 5.52671 42.5993 6.56959C42.6505 7.09381 42.7016 7.7017 42.7471 8.35419C42.7812 9.00669 42.8096 9.70938 42.8323 10.4065C42.838 11.1036 42.838 11.8063 42.8267 12.4588C42.8039 13.1113 42.7755 13.7248 42.7471 14.249C42.6675 15.2974 42.5936 15.989 42.5936 15.989C42.5936 15.989 42.6107 15.2919 42.6107 14.2434C42.6221 13.7247 42.6221 13.1113 42.6164 12.4588ZM41.8889 5.78882C41.8889 5.78882 41.9401 6.31863 42.0196 7.11055C42.048 7.50651 42.0821 7.96938 42.1219 8.46573C42.1503 8.96207 42.1844 9.49188 42.2129 10.0217C42.2356 10.5515 42.2526 11.0813 42.2697 11.5776C42.2811 12.074 42.2924 12.5369 42.2981 12.9328C42.2981 13.7303 42.2924 14.2601 42.2924 14.2601C42.2924 14.2601 42.2413 13.7303 42.1617 12.9384C42.1333 12.5424 42.0992 12.0796 42.0594 11.5832C42.031 11.0869 41.9969 10.5571 41.9685 10.0273C41.9457 9.49746 41.9287 8.96766 41.9116 8.47131C41.9003 7.97497 41.8889 7.51208 41.8832 7.11612C41.8832 6.31862 41.8889 5.78882 41.8889 5.78882ZM43.6792 9.464C43.6848 8.9565 43.6848 8.449 43.6792 7.96939C43.6792 7.48977 43.6792 7.0492 43.6735 6.66439C43.6792 5.90036 43.6792 5.38729 43.6792 5.38729C43.6792 5.38729 43.7303 5.89478 43.8099 6.65882C43.8326 7.04362 43.861 7.4842 43.8894 7.96381C43.9065 8.44342 43.9178 8.95092 43.9235 9.464C43.9178 9.97707 43.9065 10.4846 43.8894 10.9642C43.861 11.4438 43.8326 11.8899 43.8099 12.2692C43.7303 13.0332 43.6792 13.5407 43.6792 13.5407C43.6792 13.5407 43.6792 13.0332 43.6735 12.2636C43.6735 11.8844 43.6735 11.4382 43.6792 10.9586C43.6848 10.4846 43.6848 9.9715 43.6792 9.464ZM47.2596 6.15132C47.2369 6.51939 47.2028 6.95439 47.163 7.41728C47.1119 7.88016 47.0437 8.37093 46.9755 8.86169C46.8902 9.35246 46.7936 9.83765 46.697 10.2894C46.589 10.7411 46.4867 11.165 46.3901 11.5219C46.1798 12.2357 46.0207 12.7042 46.0207 12.7042C46.0207 12.7042 46.1286 12.219 46.2594 11.4884C46.3389 11.1259 46.4128 10.7021 46.4981 10.2448C46.5833 9.79303 46.6686 9.30227 46.7424 8.81708C46.8277 8.33189 46.9016 7.8467 46.9641 7.38939C47.0323 6.93209 47.0891 6.50266 47.1346 6.13459C47.2426 5.39844 47.2937 4.90767 47.2937 4.90767C47.2937 4.90767 47.2824 5.40959 47.2596 6.15132ZM47.3221 8.85054C47.3733 8.57727 47.4244 8.29842 47.4699 8.04189C47.5267 7.78535 47.5779 7.54555 47.6234 7.3392C47.7313 6.93209 47.8052 6.65882 47.8052 6.65882C47.8052 6.65882 47.7882 6.93766 47.7597 7.36151C47.737 7.57343 47.7086 7.81323 47.6802 8.07535C47.6404 8.33746 47.6006 8.61073 47.5608 8.88958C47.5097 9.16285 47.4585 9.44169 47.4131 9.69823C47.3562 9.95476 47.3051 10.1946 47.2596 10.4009C47.1516 10.808 47.0777 11.0813 47.0777 11.0813C47.0777 11.0813 47.0948 10.8025 47.1232 10.3786C47.146 10.1667 47.1744 9.92688 47.2028 9.66477C47.2426 9.40823 47.2824 9.12938 47.3221 8.85054ZM45.4182 12.0126C45.4353 11.6948 45.458 11.3323 45.4807 10.9363C45.5092 10.5403 45.5319 10.1221 45.5489 9.7038C45.5774 9.28553 45.6001 8.86727 45.6172 8.47131C45.6399 8.07535 45.6569 7.70727 45.6797 7.39497C45.7194 6.76478 45.7479 6.34093 45.7479 6.34093C45.7479 6.34093 45.7763 6.76478 45.8161 7.39497C45.8217 7.71285 45.8274 8.08093 45.8274 8.47688C45.8218 8.87284 45.8047 9.29669 45.7876 9.71496C45.7592 10.1388 45.7251 10.5571 45.6854 10.953C45.6342 11.3434 45.5887 11.7115 45.5489 12.0294C45.441 12.654 45.3671 13.0723 45.3671 13.0723C45.3671 13.0723 45.3898 12.6428 45.4182 12.0126ZM45.7195 10.9753C45.7536 10.6128 45.799 10.1834 45.8388 9.73169C45.8899 9.27438 45.9468 8.79477 46.0036 8.30958C46.0718 7.82439 46.14 7.34477 46.2025 6.88747C46.2764 6.43574 46.3389 6.01189 46.3958 5.64939C46.5265 4.92997 46.6174 4.44479 46.6174 4.44479C46.6174 4.44479 46.5833 4.92998 46.5322 5.66613C46.4981 6.02863 46.4526 6.45805 46.4128 6.90978C46.3617 7.36708 46.3048 7.8467 46.248 8.33189C46.1798 8.81708 46.1116 9.29669 46.0491 9.75399C45.9752 10.2057 45.9127 10.6296 45.8558 10.9921C45.7251 11.7115 45.6342 12.1967 45.6342 12.1967C45.6342 12.1967 45.6683 11.7059 45.7195 10.9753ZM44.8101 11.8955C44.8215 11.4717 44.8329 10.9809 44.8442 10.4567C44.867 9.93246 44.884 9.36919 44.9067 8.80592C44.9408 8.24265 44.9749 7.68496 45.0034 7.16074C45.0431 6.63651 45.0772 6.14574 45.1113 5.72747C45.1909 4.88536 45.2477 4.32767 45.2477 4.32767C45.2477 4.32767 45.2477 4.89094 45.2477 5.73305C45.2364 6.1569 45.225 6.64766 45.2136 7.17189C45.1909 7.69612 45.1739 8.25938 45.1511 8.82265C45.117 9.38592 45.0829 9.9436 45.0545 10.4678C45.0147 10.9921 44.9806 11.4828 44.9465 11.9011C44.867 12.7432 44.8101 13.3009 44.8101 13.3009C44.8101 13.3009 44.8101 12.7376 44.8101 11.8955ZM40.4056 10.5626C40.4283 11.3434 40.4681 12.1186 40.5249 12.8492C40.5761 13.5797 40.6272 14.2601 40.6954 14.8401C40.7977 16.0057 40.9057 16.7809 40.9057 16.7809C40.9057 16.7809 40.7466 16.0169 40.559 14.8569C40.4738 14.2769 40.3942 13.5965 40.3146 12.8659C40.2521 12.1353 40.201 11.3546 40.1669 10.5682C40.1498 9.78746 40.1441 9.00112 40.1555 8.27054C40.1782 7.53439 40.2123 6.854 40.2578 6.26843C40.3601 5.09728 40.4681 4.3221 40.4681 4.3221C40.4681 4.3221 40.417 5.10286 40.3942 6.27401C40.3715 6.85959 40.3658 7.53997 40.3658 8.27054C40.3601 9.00112 40.3772 9.78188 40.4056 10.5626ZM41.0705 15.1636C41.0705 15.1636 41.0194 14.6226 40.9398 13.8084C40.9114 13.4013 40.8773 12.9272 40.8375 12.4142C40.8091 11.9067 40.7807 11.3601 40.7466 10.8192C40.7295 10.2726 40.7068 9.73169 40.6897 9.21861C40.6784 8.70554 40.6727 8.2315 40.6613 7.82439C40.667 7.00458 40.667 6.46362 40.667 6.46362C40.667 6.46362 40.7182 7.00458 40.7977 7.81881C40.8261 8.22592 40.8602 8.69996 40.9 9.21303C40.9284 9.72053 40.9569 10.2671 40.991 10.808C41.008 11.3546 41.0307 11.8955 41.0478 12.4086C41.0592 12.9217 41.0648 13.3957 41.0762 13.8028C41.0705 14.6171 41.0705 15.1636 41.0705 15.1636ZM40.0134 10.8917C40.0021 11.4717 39.985 12.0071 39.9793 12.4699C39.9225 13.3957 39.8884 14.0092 39.8884 14.0092C39.8884 14.0092 39.8714 13.3901 39.8429 12.4699C39.8316 12.0071 39.8202 11.4717 39.8032 10.8917C39.7918 10.3173 39.7747 9.69822 39.752 9.08476C39.7406 8.47131 39.7236 7.85228 39.7009 7.27785C39.6838 6.70343 39.6668 6.16247 39.6497 5.69959C39.627 4.77383 39.6099 4.16036 39.6099 4.16036C39.6099 4.16036 39.6781 4.77382 39.7861 5.69401C39.8202 6.15689 39.8657 6.69228 39.9111 7.27227C39.9452 7.85227 39.9736 8.46573 39.9964 9.08476C40.0077 9.69822 40.0134 10.3173 40.0134 10.8917ZM39.627 10.5459C39.6668 11.3378 39.7122 12.1353 39.752 12.8771C39.7804 13.6244 39.8145 14.3159 39.8373 14.9126C39.8657 16.1061 39.8884 16.9036 39.8884 16.9036C39.8884 16.9036 39.8145 16.1117 39.7009 14.9238C39.6554 14.3271 39.5986 13.6355 39.5417 12.8938C39.4906 12.1521 39.4394 11.3546 39.3883 10.5626C39.3485 9.77073 39.303 8.97323 39.2632 8.2315C39.2348 7.4842 39.2007 6.79266 39.178 6.19594C39.1496 5.00248 39.1268 4.20498 39.1268 4.20498C39.1268 4.20498 39.2007 4.9969 39.3144 6.18478C39.3598 6.78151 39.4167 7.47304 39.4735 8.21477C39.519 8.9565 39.5758 9.754 39.627 10.5459ZM38.2459 12.0405C38.1834 11.7059 38.1152 11.3211 38.0413 10.9028C37.9731 10.4846 37.8993 10.044 37.8311 9.59784C37.7685 9.15169 37.706 8.70554 37.6492 8.28727C37.598 7.869 37.5526 7.47862 37.5128 7.13843C37.456 6.46363 37.4162 6.01747 37.4162 6.01747C37.4162 6.01747 37.5071 6.45804 37.6492 7.12169C37.7117 7.45631 37.7799 7.84112 37.8538 8.25939C37.922 8.67765 37.9959 9.11823 38.0641 9.56438C38.1266 10.0105 38.1891 10.4567 38.2459 10.875C38.2971 11.2932 38.3425 11.6836 38.3823 12.0238C38.4392 12.6986 38.479 13.1447 38.479 13.1447C38.479 13.1447 38.388 12.7042 38.2459 12.0405ZM38.5926 15.0744C38.5926 15.0744 38.4448 14.4888 38.2175 13.6188C38.1152 13.1782 37.9959 12.6651 37.8652 12.1186C37.7458 11.5665 37.6151 10.9809 37.4901 10.3953C37.3707 9.80419 37.257 9.21861 37.1491 8.6665C37.0468 8.11438 36.9501 7.59573 36.8706 7.14958C36.7285 6.25728 36.6319 5.66613 36.6319 5.66613C36.6319 5.66613 36.7796 6.2517 37.007 7.12169C37.1093 7.56227 37.2286 8.07535 37.3593 8.62188C37.4787 9.17399 37.6094 9.75958 37.7344 10.3451C37.8538 10.9363 37.9675 11.5219 38.0811 12.074C38.1834 12.6261 38.28 13.1447 38.3596 13.5909C38.496 14.4832 38.5926 15.0744 38.5926 15.0744ZM36.9729 9.03457C37.0979 9.49188 37.2343 9.98265 37.365 10.4734C37.4901 10.9642 37.6151 11.4605 37.7288 11.9234C37.8367 12.3863 37.939 12.8213 38.0243 13.1949C38.1777 13.9422 38.28 14.4442 38.28 14.4442C38.28 14.4442 38.1266 13.959 37.8936 13.2284C37.7856 12.8603 37.6606 12.4365 37.5298 11.9792C37.4048 11.5219 37.2684 11.0311 37.1377 10.5403C37.0127 10.0496 36.8876 9.55323 36.774 9.09035C36.666 8.62746 36.5637 8.19246 36.4784 7.81881C36.325 7.0715 36.2227 6.57516 36.2227 6.57516C36.2227 6.57516 36.3761 7.06035 36.6092 7.79093C36.7171 8.14785 36.8422 8.57169 36.9729 9.03457ZM38.712 14.7063C38.6494 14.1542 38.5812 13.5072 38.5074 12.8157C38.4392 12.1242 38.371 11.3824 38.2971 10.6463C38.2346 9.90457 38.1777 9.16842 38.1209 8.47131C38.0754 7.7742 38.03 7.12727 37.9902 6.57516C37.9334 5.45978 37.8936 4.71805 37.8936 4.71805C37.8936 4.71805 37.9845 5.4542 38.1266 6.564C38.1891 7.11612 38.2573 7.76305 38.3312 8.45458C38.3994 9.14612 38.4676 9.88784 38.5415 10.624C38.604 11.3657 38.6608 12.1019 38.7176 12.799C38.7688 13.4961 38.8086 14.143 38.8484 14.6951C38.9052 15.8105 38.945 16.5522 38.945 16.5522C38.945 16.5522 38.8484 15.8161 38.712 14.7063ZM35.8021 8.32631C35.893 8.594 35.9954 8.90631 36.0977 9.2465C36.1943 9.58669 36.2909 9.94919 36.3818 10.3173C36.4614 10.6853 36.5296 11.059 36.5921 11.4048C36.6433 11.7561 36.6887 12.0796 36.7228 12.364C36.774 12.9273 36.791 13.3009 36.791 13.3009C36.791 13.3009 36.7171 12.9328 36.5864 12.3807C36.5296 12.1019 36.4614 11.784 36.3818 11.4438C36.3079 11.098 36.2284 10.7355 36.1374 10.373C36.0579 10.005 35.9726 9.64245 35.8874 9.30226C35.8078 8.96207 35.7339 8.63862 35.66 8.36535C35.535 7.81324 35.4441 7.45074 35.4441 7.45074C35.4441 7.45074 35.5975 7.7965 35.8021 8.32631ZM34.7337 12.2301C34.8928 12.6428 35.0747 13.1169 35.2736 13.6299C35.4611 14.143 35.6657 14.6951 35.8703 15.2472C36.0635 15.7994 36.2568 16.357 36.433 16.8757C36.6035 17.3999 36.7683 17.8851 36.9047 18.3034C37.1604 19.1455 37.3366 19.7032 37.3366 19.7032C37.3366 19.7032 37.115 19.1622 36.7796 18.348C36.6205 17.9353 36.4387 17.4613 36.2397 16.9482C36.0522 16.4351 35.8476 15.883 35.643 15.3309C35.4498 14.7788 35.2565 14.2211 35.0803 13.7024C34.9098 13.1782 34.745 12.693 34.6086 12.2748C34.3529 11.4326 34.1767 10.875 34.1767 10.875C34.1767 10.875 34.3983 11.4159 34.7337 12.2301ZM47.7541 10.1332C47.7711 10.0161 47.7939 9.87669 47.8166 9.73169C47.845 9.58669 47.8791 9.43054 47.9132 9.27996C47.9587 9.12938 47.9984 8.97323 48.0382 8.83381C48.0894 8.69438 48.1292 8.56054 48.1689 8.449C48.2656 8.22592 48.3281 8.08092 48.3281 8.08092C48.3281 8.08092 48.3167 8.24265 48.2997 8.48246C48.2826 8.59957 48.2599 8.739 48.2371 8.884C48.2087 9.029 48.1746 9.18515 48.1405 9.33572C48.0951 9.4863 48.0553 9.64245 48.0155 9.78188C47.9644 9.9213 47.9246 10.0551 47.8848 10.1667C47.7882 10.3898 47.7257 10.5348 47.7257 10.5348C47.7257 10.5348 47.737 10.373 47.7541 10.1332ZM48.419 9.18515C48.4304 9.10708 48.4474 9.01227 48.4588 8.91188C48.4758 8.8115 48.4986 8.70554 48.5099 8.60515C48.5327 8.49919 48.5554 8.3988 48.5781 8.29842C48.6066 8.20361 48.6293 8.10881 48.6463 8.03073C48.7032 7.87458 48.7316 7.76304 48.7316 7.76304C48.7316 7.76304 48.7543 7.87458 48.7827 8.04189C48.7884 8.12554 48.7884 8.22035 48.7884 8.32631C48.7771 8.43227 48.7657 8.53823 48.7543 8.64977C48.7259 8.75573 48.6975 8.86727 48.6691 8.96207C48.6293 9.05688 48.5952 9.15169 48.5554 9.22419C48.4702 9.36919 48.4076 9.464 48.4076 9.464C48.4076 9.464 48.4133 9.35246 48.419 9.18515ZM44.5544 4.48941C44.6112 5.1196 44.6624 5.86132 44.7135 6.65324C44.7476 7.44516 44.7703 8.29284 44.776 9.13495C44.7703 9.98264 44.7419 10.8248 44.7078 11.6167C44.6567 12.4086 44.6055 13.1447 44.5487 13.7805C44.4123 15.0409 44.2929 15.8774 44.2929 15.8774C44.2929 15.8774 44.3611 15.0353 44.418 13.7694C44.4578 13.1392 44.4862 12.3974 44.5032 11.6111C44.5316 10.8192 44.543 9.97707 44.5373 9.13495C44.543 8.29284 44.5316 7.45074 44.5089 6.65882C44.4919 5.8669 44.4634 5.13074 44.4237 4.50055C44.3725 3.2346 44.3043 2.39249 44.3043 2.39249C44.3043 2.39249 44.4237 3.22345 44.5544 4.48941ZM43.4461 4.67344C43.4064 5.25343 43.3836 5.92824 43.3723 6.65324C43.3552 7.37823 43.3552 8.14785 43.3779 8.92304C43.395 9.69265 43.4291 10.4678 43.4802 11.1873C43.5257 11.9123 43.5825 12.5871 43.6451 13.1615C43.753 14.3159 43.8667 15.0855 43.8667 15.0855C43.8667 15.0855 43.7019 14.327 43.5086 13.1782C43.4234 12.6038 43.3438 11.929 43.2643 11.204C43.2018 10.479 43.1563 9.7038 43.1335 8.92861C43.1222 8.15342 43.1336 7.37266 43.162 6.64766C43.2018 5.92267 43.2529 5.24229 43.3154 4.66229C43.4518 3.50787 43.5825 2.74383 43.5825 2.74383C43.5825 2.74383 43.503 3.51344 43.4461 4.67344ZM38.388 4.08787C38.4562 4.30537 38.5358 4.5619 38.6097 4.84074C38.6779 5.11959 38.7404 5.42074 38.7915 5.7219C38.8199 5.93382 38.8484 6.14016 38.8711 6.34651C38.8711 6.22381 38.8711 6.10113 38.8711 5.99517C38.8881 5.56017 38.8995 5.27574 38.8995 5.27574C38.8995 5.27574 38.9393 5.56016 39.0018 5.98958C39.0245 6.20151 39.0473 6.45247 39.0757 6.72017C39.0927 6.98786 39.1155 7.27785 39.1325 7.56227C39.1439 7.8467 39.1496 8.13669 39.1609 8.40438C39.1609 8.67207 39.1609 8.92304 39.1609 9.14054C39.1439 9.57554 39.1325 9.85995 39.1325 9.85995C39.1325 9.85995 39.0927 9.57553 39.0302 9.14611C39.0075 8.93419 38.9848 8.68323 38.9563 8.41554C38.945 8.22035 38.9279 8.01958 38.9166 7.81323C38.9052 8.03073 38.8938 8.16458 38.8938 8.16458C38.8938 8.16458 38.8654 7.85785 38.7915 7.4117C38.7688 7.18304 38.729 6.92093 38.6892 6.64209C38.6551 6.36324 38.604 6.06209 38.5528 5.76651C38.5074 5.46536 38.4562 5.16978 38.4051 4.89093C38.3539 4.61209 38.3084 4.34998 38.2573 4.1269C38.1777 3.67517 38.1095 3.3796 38.1095 3.3796C38.1095 3.3796 38.2289 3.65287 38.388 4.08787ZM33.7618 6.22382C33.7618 6.22382 33.8982 6.53612 34.0971 7.01016C34.1881 7.24996 34.2904 7.53439 34.3983 7.83554C34.495 8.14227 34.5973 8.46573 34.6939 8.79476C34.7791 9.1238 34.853 9.45842 34.9212 9.7763C34.978 10.0942 35.0235 10.3898 35.0576 10.6407C35.1088 11.1538 35.1201 11.494 35.1201 11.494C35.1201 11.494 35.0519 11.1594 34.9212 10.663C34.8644 10.4121 34.7962 10.1276 34.7109 9.82092C34.6371 9.51419 34.5461 9.18515 34.4552 8.85611C34.3699 8.52707 34.279 8.19804 34.1938 7.89689C34.1085 7.59016 34.0289 7.30016 33.9664 7.05477C33.8414 6.55285 33.7618 6.22382 33.7618 6.22382ZM33.0344 8.41554C32.9377 7.89689 32.8695 7.5567 32.8695 7.5567C32.8695 7.5567 32.9889 7.88573 33.1651 8.38208C33.2503 8.63304 33.3469 8.92304 33.4492 9.22977C33.5515 9.54208 33.6595 9.87111 33.7675 10.2057C33.8755 10.5403 33.9778 10.8694 34.0801 11.1817C34.1767 11.494 34.2676 11.784 34.3472 12.0349C34.495 12.5369 34.5916 12.8771 34.5916 12.8771C34.5916 12.8771 34.4438 12.5592 34.2165 12.0796C34.1199 11.8342 34.0005 11.5498 33.8812 11.2486C33.7732 10.9363 33.6538 10.6073 33.5402 10.2782C33.4436 9.94361 33.3413 9.609 33.2503 9.29112C33.1708 8.96766 33.0969 8.67208 33.0344 8.41554ZM36.0124 17.517C35.9158 17.2494 35.8135 16.9705 35.7169 16.6861C35.6259 16.4017 35.535 16.1117 35.4498 15.844C35.3702 15.5707 35.302 15.3197 35.2395 15.1022C35.1315 14.6617 35.0633 14.3661 35.0633 14.3661C35.0633 14.3661 35.1827 14.6449 35.3702 15.0576C35.4498 15.2695 35.5464 15.5149 35.6544 15.777C35.751 16.0447 35.8533 16.3236 35.9499 16.608C36.0408 16.8924 36.1318 17.1824 36.217 17.4501C36.2966 17.7234 36.3648 17.9743 36.4273 18.1918C36.5353 18.6324 36.6035 18.928 36.6035 18.928C36.6035 18.928 36.4841 18.6491 36.2966 18.2365C36.2113 18.0301 36.1147 17.7792 36.0124 17.517ZM35.5691 18.1249C35.4611 17.8795 35.3418 17.6174 35.2224 17.3609C35.1144 17.0988 35.0065 16.8367 34.8928 16.5913C34.7905 16.3459 34.6939 16.1172 34.603 15.922C34.4381 15.5261 34.3074 15.2695 34.3074 15.2695C34.3074 15.2695 34.4836 15.4982 34.7223 15.8607C34.836 16.0447 34.9553 16.2678 35.086 16.5076C35.2054 16.7474 35.3247 17.0095 35.4441 17.2717C35.5521 17.5393 35.66 17.8015 35.7623 18.0524C35.8589 18.3034 35.9442 18.5376 36.0238 18.7384C36.1659 19.1455 36.2682 19.4132 36.2682 19.4132C36.2682 19.4132 36.1147 19.1678 35.8987 18.7941C35.8021 18.5934 35.6884 18.3647 35.5691 18.1249ZM35.1599 17.8572C35.2906 18.019 35.4384 18.2141 35.5861 18.4261C35.7282 18.6436 35.8646 18.8834 35.9953 19.1288C36.1147 19.3797 36.2227 19.6307 36.3136 19.8761C36.3932 20.1215 36.4671 20.3501 36.5182 20.5509C36.6035 20.958 36.6376 21.2257 36.6376 21.2257C36.6376 21.2257 36.5523 20.9636 36.3875 20.5899C36.3193 20.4003 36.2227 20.1828 36.1204 19.9486C36.0181 19.7143 35.9044 19.4745 35.7794 19.2347C35.66 18.9893 35.535 18.7551 35.4043 18.5376C35.2793 18.3145 35.1599 18.1138 35.0462 17.9409C34.8417 17.5895 34.6768 17.3609 34.6768 17.3609C34.6768 17.3609 34.8814 17.5449 35.1599 17.8572Z" fill="white"/>
<path d="M36.0635 25.7709C36.4329 25.8155 36.8592 25.8768 37.3195 25.9159C37.7799 25.9549 38.2743 25.9939 38.7631 26.033C39.2575 26.0553 39.752 26.072 40.2123 26.0888C40.6727 26.1055 41.1103 26.0943 41.4797 26.0943C41.8491 26.0943 42.1617 26.072 42.3776 26.0664C42.5936 26.0553 42.7186 26.0441 42.7186 26.0441C42.7186 26.0441 42.5936 26.0274 42.3833 26.0051C42.1674 25.9884 41.8605 25.9438 41.491 25.9159C41.1216 25.888 40.6954 25.8378 40.2294 25.8155C39.769 25.782 39.2802 25.7486 38.7858 25.7151C38.2914 25.6872 37.8026 25.6649 37.3423 25.6426C36.8819 25.6147 36.45 25.6091 36.0806 25.5924C35.7112 25.5757 35.4043 25.5813 35.1883 25.5757C34.9723 25.5757 34.8473 25.5757 34.8473 25.5757C34.8473 25.5757 34.9666 25.598 35.1826 25.637C35.3929 25.6649 35.6941 25.7263 36.0635 25.7709Z" fill="white"/>
<path d="M35.7566 31.9891C36.018 32.0281 36.3875 32.0895 36.8364 32.1397C37.2854 32.1898 37.8083 32.2568 38.3709 32.3014C38.9336 32.3404 39.536 32.385 40.1327 32.4241C40.7352 32.4408 41.3376 32.4575 41.9002 32.4743C42.4629 32.4854 42.9914 32.4687 43.4404 32.4631C43.8894 32.4575 44.2702 32.4297 44.5316 32.4185C44.793 32.4018 44.9465 32.3906 44.9465 32.3906C44.9465 32.3906 44.7987 32.3795 44.5316 32.3572C44.2702 32.3404 43.8951 32.3181 43.4461 32.2847C42.9971 32.2624 42.4742 32.2289 41.9116 32.201C41.349 32.1731 40.7522 32.1397 40.1498 32.1062C39.553 32.0783 38.9506 32.0504 38.388 32.0225C37.8253 32.0002 37.3025 31.9779 36.8535 31.9556C36.4045 31.9389 36.0294 31.9277 35.7623 31.9166C35.5008 31.911 35.3474 31.911 35.3474 31.911C35.3474 31.911 35.5009 31.9445 35.7566 31.9891Z" fill="white"/>
<path d="M37.706 35.9486C38.2346 36.0323 38.8597 36.1327 39.5303 36.1996C40.201 36.2665 40.9171 36.3279 41.6332 36.3725C42.3493 36.4004 43.071 36.4171 43.7417 36.4171C44.418 36.4171 45.0431 36.3836 45.583 36.3557C46.123 36.3279 46.5663 36.2777 46.8788 36.2498C47.1914 36.2107 47.3676 36.194 47.3676 36.194C47.3676 36.194 47.1857 36.194 46.8731 36.1884C46.5606 36.194 46.1116 36.1829 45.5774 36.1773C45.0431 36.1829 44.418 36.155 43.7473 36.1438C43.0767 36.1271 42.3663 36.0992 41.6502 36.0602C40.9341 36.0267 40.2237 35.9821 39.5588 35.9263C38.8938 35.865 38.2686 35.8315 37.7344 35.7702C37.2002 35.7144 36.7512 35.6809 36.4443 35.6419C36.1317 35.614 35.9556 35.5973 35.9556 35.5973C35.9556 35.5973 36.1317 35.6363 36.4386 35.7032C36.7342 35.7646 37.1718 35.865 37.706 35.9486Z" fill="white"/>
</svg>
