<svg width="86" height="146" viewBox="0 0 86 146" fill="none" xmlns="http://www.w3.org/2000/svg">
<path d="M84.4645 63.11C83.7745 61.54 82.4545 60.43 80.9445 60.15C80.6845 60.1 80.4145 60.07 80.1245 60.06C80.2045 59.6 80.2845 59.14 80.3645 58.67C82.1245 48.53 84.5145 34.72 79.4345 26.68C79.3745 23.36 77.7345 19.72 74.5345 15.82C73.0445 14 70.4845 12.04 67.2745 10.14C61.5745 6 55.1545 2.94999 48.3445 0.87999C50.2345 1.78999 52.0445 2.82999 53.7845 3.98999C46.9845 1.60999 39.6945 0 33.5645 0C28.1145 0 24.0945 1.29 21.6245 3.83L17.6445 7.91L21.1545 7.37C20.2945 7.93 19.4945 8.58 18.8145 9.33L17.1345 11.19C14.1145 11.25 10.9245 11.53 8.03453 12.8L2.85453 15.07L8.35453 16.4C8.39453 16.41 11.2045 17.1 13.9045 18.2C11.9045 18.51 9.25453 18.78 6.91453 18.91L3.62453 19.09L5.42453 21.85C5.42453 21.85 6.36453 23.38 5.57453 24.22C5.47453 24.33 5.18454 24.52 4.93454 24.69C1.64454 26.92 -1.64547 30.55 0.914531 45.61L1.93453 51.58L4.51453 46.1C4.53453 46.06 6.37453 42.31 9.70453 40.76C10.0845 45.81 11.2145 51.12 12.2345 55.88C12.4945 57.08 12.7345 58.24 12.9645 59.37C12.9545 59.37 12.9345 59.37 12.9345 59.37L12.4945 59.41V59.85V60.14C12.4445 60.15 12.3845 60.15 12.3345 60.16C10.8245 60.45 9.50453 61.55 8.81453 63.12C8.27453 64.35 8.19453 65.64 8.12453 66.59C7.91453 69.83 7.77453 73.59 8.75453 77.26C9.59453 80.39 11.2345 83.08 13.3845 84.97C13.4945 85.54 13.6445 86.13 13.8045 86.78C14.3445 88.95 15.0845 91.93 15.5045 97.04C15.6245 98.52 15.6045 99.86 15.4945 101.11C15.4345 101.48 15.3745 101.87 15.3145 102.29L11.5045 102.5L14.7545 105.42L14.7645 105.43C14.6045 106.13 14.4245 106.82 14.2545 107.52C13.4645 110.65 12.6545 113.84 12.9145 117.96C12.8945 118.26 12.8745 118.56 12.8545 118.85C12.8045 119.96 12.8145 121.05 12.8545 122.1C12.9345 124.21 13.2345 126.18 13.6445 127.82C14.0545 129.46 14.5945 130.77 15.0445 131.65C15.2545 132.09 15.4545 132.42 15.5945 132.65C15.7245 132.87 15.8045 132.99 15.8045 132.99C15.8045 132.99 15.7645 132.86 15.6845 132.61C15.6045 132.36 15.4745 132 15.3545 131.53C15.0945 130.6 14.7845 129.27 14.5845 127.64C14.5045 126.94 14.4345 126.19 14.3845 125.4C14.7345 126.49 15.1445 127.64 15.6345 128.85C22.1945 144.99 44.0445 145.46 46.5145 145.46H46.6145H46.7145C48.7145 145.46 63.3645 145.15 72.3745 136.51C72.2945 136.64 72.2145 136.77 72.1445 136.9C71.9645 137.17 71.7845 137.43 71.6245 137.67C71.3045 138.16 71.0245 138.6 70.7645 138.93C70.2645 139.62 69.9845 140.03 69.9845 140.03C69.9845 140.03 70.3845 139.74 71.0645 139.21C71.4145 138.95 71.7945 138.6 72.2345 138.18C72.4545 137.97 72.6845 137.75 72.9245 137.51C73.1545 137.26 73.3845 136.99 73.6345 136.71C74.6345 135.6 75.6345 134.16 76.5645 132.53C76.7845 132.12 77.0045 131.69 77.2345 131.27C77.4545 130.84 77.6445 130.39 77.8345 129.94C78.0345 129.49 78.2145 129.03 78.3745 128.56C78.5345 128.09 78.7245 127.62 78.8645 127.14C79.1245 126.17 79.3945 125.21 79.5745 124.24C79.8045 123.28 79.8645 122.31 79.9945 121.38C80.0145 121.07 80.0345 120.77 80.0545 120.47C80.9145 115.08 79.9445 111.25 78.9945 107.52C78.8145 106.82 78.6445 106.12 78.4745 105.42C78.5145 105.38 78.5545 105.35 78.5845 105.31L81.1845 102.48L77.8845 102.31C77.6645 100.71 77.5745 99.01 77.7345 97.05C78.0545 93.23 78.7045 90.48 79.2845 88.05C79.5445 86.96 79.7845 85.93 79.9645 84.93C82.0845 83.04 83.7045 80.37 84.5345 77.27C85.5145 73.6 85.3745 69.84 85.1645 66.6C85.0945 65.64 85.0045 64.34 84.4645 63.11ZM71.8645 100.43C71.3545 100.04 70.9245 99.59 70.6345 99.04C70.0845 97.99 69.1845 96.81 68.0245 95.63C69.4945 94.01 70.6845 92.32 71.6345 90.63C71.3645 93.93 71.5645 97.16 71.8645 100.43ZM70.3745 81.66C70.0745 82.48 69.6545 83.42 69.1045 84.29C68.3845 85.48 67.4245 86.54 66.5945 87.22C66.1845 87.56 65.8045 87.82 65.5345 87.99C65.2645 88.16 65.1045 88.25 65.1045 88.25C65.1045 88.25 65.2845 88.2 65.5845 88.1C65.8945 88 66.3245 87.85 66.8345 87.61C67.7945 87.17 68.9945 86.39 70.0545 85.4C69.9845 86.79 69.9745 88.19 70.0345 89.58C69.4545 90.62 68.7745 91.65 68.0045 92.67C68.4845 91.59 68.8145 90.58 68.8145 90.58C68.8145 90.58 67.9845 91.56 67.0545 92.4C66.5545 92.86 66.0345 93.28 65.6645 93.56C64.5945 92.75 63.3945 92.01 62.1045 91.37C61.4045 90.81 60.7345 90.24 60.0945 89.64C58.6245 87.58 57.1445 85.52 55.6745 83.47C54.6645 82.06 53.6445 80.64 52.9445 79.07C54.8245 80.03 57.6545 80.45 62.2645 80.45C66.4645 80.45 69.0845 79.8 70.7845 78.79C70.6245 79.75 70.4845 80.7 70.3745 81.66ZM49.7945 87.87C48.8145 88.39 47.9545 89.14 47.6445 89.42C47.2545 89.52 46.8645 89.61 46.4745 89.65C45.5645 89.75 44.6545 89.69 43.8145 89.56C43.7145 89.55 43.6245 89.53 43.5245 89.52C43.4445 89.44 43.2545 89.26 42.9845 89.04C42.6345 88.75 42.1245 88.42 41.6045 88.17C40.5645 87.65 39.4845 87.48 39.4845 87.48C39.4845 87.48 40.3745 88.13 40.9645 88.96C40.9745 88.97 40.9845 88.99 40.9945 89C40.5045 88.86 40.0745 88.72 39.7045 88.6C39.6545 88.58 39.6045 88.57 39.5545 88.55C39.3045 88.36 39.0645 88.15 38.8645 87.9C38.6545 87.62 38.5245 87.3 38.5045 86.96C38.4945 86.63 38.5645 86.29 38.6945 86.02C38.8145 85.75 38.9445 85.53 39.0445 85.38C39.1445 85.23 39.2045 85.15 39.2045 85.15C39.2045 85.15 39.1245 85.22 38.9945 85.34C38.8545 85.46 38.6745 85.64 38.4845 85.9C38.2845 86.15 38.1045 86.5 38.0145 86.92C37.9245 87.35 37.9945 87.85 38.1745 88.28C38.3645 88.72 38.6345 89.09 38.9045 89.42C34.5145 89.49 30.5145 91.33 27.4945 93.62C26.9745 93.2 26.0845 92.44 25.2845 91.53C24.0445 90.19 23.0845 88.58 23.0845 88.58C23.0845 88.58 23.6045 90.36 24.4945 92.05C18.6245 85.19 17.8345 80.5 17.8245 80.44L17.2045 75.89C18.3645 78.34 20.8245 80.45 28.3745 80.45C38.4245 80.45 40.0245 78.47 41.7445 73.23C43.1045 69.08 44.2745 67.06 45.3245 67.06C46.3745 67.06 47.5345 69.08 48.9045 73.23C49.2245 74.19 49.5345 75.05 49.8945 75.8C49.9045 75.98 49.9045 76.17 49.9045 76.35C49.8945 77.27 49.6545 78.34 49.7445 79.68C49.8045 80.34 50.0345 81.07 50.3245 81.67C50.6145 82.28 50.9745 82.82 51.3145 83.32C52.0045 84.3 52.6045 85.19 52.7645 86C52.8745 86.41 52.8945 86.71 52.7945 87.05C52.7545 87.21 52.6745 87.37 52.6045 87.47C52.5345 87.57 52.5345 87.57 52.4145 87.64C52.2945 87.7 52.0145 87.78 51.6845 87.9C51.3345 88.03 51.1145 88.13 50.8345 88.24C50.7745 88.26 50.7245 88.29 50.6645 88.31C51.4345 87.47 52.3145 86.85 52.3145 86.85C52.3145 86.85 51.0145 87.18 49.7945 87.87ZM36.5745 96.4C36.3145 96.54 35.9545 96.75 35.5345 97.03C34.6945 97.59 33.6645 98.47 32.6945 99.39C31.7245 100.31 30.7845 101.24 30.0545 101.87C29.9945 101.92 29.9345 101.97 29.8745 102.02C26.5145 103.62 23.1145 105.63 20.0345 105.63C19.0345 105.63 18.0645 105.41 17.1445 104.9C17.2545 104.89 17.3545 104.89 17.4645 104.88C18.9145 104.79 20.8945 104.61 22.8045 104.06C24.7145 103.53 26.4645 102.53 27.5345 101.53C28.0745 101.04 28.4545 100.56 28.7045 100.22C28.8345 100.05 28.9145 99.91 28.9745 99.81C29.0345 99.71 29.0645 99.66 29.0645 99.66C29.0645 99.66 29.0245 99.71 28.9545 99.79C28.8845 99.88 28.7845 100.01 28.6345 100.16C28.3545 100.47 27.9245 100.89 27.3445 101.29C26.1945 102.12 24.4245 102.85 22.5845 103.12C21.5545 103.28 20.5245 103.33 19.5645 103.33C21.3045 102.75 23.2245 101.72 24.1945 99.87C25.7945 96.81 31.7645 91.21 39.1545 91.21C41.1245 91.21 43.1945 91.61 45.3045 92.55V92.76C45.1245 92.97 44.8345 93.22 44.4145 93.46C43.5145 94.01 41.9245 94.35 40.5445 95.21C39.2145 96.01 37.9045 96.91 37.0945 97.76C36.6845 98.18 36.3845 98.57 36.1945 98.85C36.0045 99.13 35.9145 99.3 35.9145 99.3C35.9145 99.3 36.0245 99.14 36.2445 98.88C36.4545 98.62 36.7945 98.27 37.2345 97.9C38.1145 97.15 39.4545 96.41 40.8545 95.75C42.1845 95.09 43.7345 94.93 44.8945 94.39C45.0445 94.32 45.1845 94.25 45.3245 94.18V97.48C45.1945 97.1 45.0345 96.75 44.8745 96.5C44.6245 96.08 44.4245 95.85 44.4245 95.85C44.4245 95.85 44.4445 96.17 44.3945 96.61C44.3445 97.05 44.1945 97.62 43.9545 98.1C43.7545 98.5 43.5045 98.84 43.2745 99.09C42.3845 99.39 41.1645 99.69 39.4845 99.88C39.7445 99.48 40.0845 99.03 40.4745 98.6C40.9945 98.03 41.5945 97.52 42.0745 97.18C42.5545 96.83 42.9145 96.64 42.9145 96.64C42.9145 96.64 42.5245 96.72 41.9445 96.92C41.3645 97.11 40.6045 97.43 39.8845 97.86C39.1645 98.28 38.4845 98.81 38.0045 99.25C37.5245 99.69 37.2445 100.03 37.2445 100.03L37.2745 100.05C36.9345 100.06 36.5945 100.08 36.2245 100.08C35.1445 100.1 34.0245 100.36 32.8845 100.75C33.0645 100.5 33.2445 100.26 33.4245 100.01C34.2045 98.95 35.0245 97.93 35.7445 97.25C36.0945 96.9 36.4145 96.63 36.6345 96.46C36.8645 96.28 36.9945 96.18 36.9945 96.18C36.9945 96.18 36.8345 96.26 36.5745 96.4ZM19.9745 96.32C19.7645 95.9 19.4845 95.29 19.1745 94.55C18.5545 93.07 17.8845 91.05 17.4545 88.98C17.0545 87.04 16.8545 85.09 16.8245 83.57C17.8945 86.2 20.2145 90.48 25.1845 95.65C24.0345 96.82 23.1445 97.99 22.5945 99.04C22.5845 99.06 22.5645 99.08 22.5545 99.11C22.5445 98.91 22.5245 98.7 22.4945 98.48C22.4145 97.99 22.3045 97.46 22.1545 96.94C21.9845 96.43 21.7745 95.94 21.5645 95.48C21.3445 95.03 21.0845 94.64 20.8645 94.31C20.6445 93.98 20.4145 93.73 20.2645 93.56C20.1045 93.39 20.0145 93.3 20.0145 93.3C20.0145 93.3 20.0645 93.42 20.1645 93.63C20.2745 93.83 20.3945 94.14 20.5545 94.49C20.7245 94.84 20.8745 95.27 21.0645 95.71C21.2445 96.16 21.4145 96.64 21.5545 97.13C21.7145 97.62 21.8545 98.11 21.9545 98.58C22.0345 98.97 22.1145 99.32 22.1845 99.65C21.0445 101.05 18.9045 101.75 17.3245 102.06C17.5145 100.49 17.5745 98.79 17.4145 96.87C17.1545 93.7 16.7645 91.3 16.3845 89.42C17.1145 91.44 18.0545 93.35 18.8645 94.71C19.2745 95.41 19.6345 95.98 19.9045 96.37C20.1645 96.76 20.3245 96.98 20.3245 96.98C20.3245 96.98 20.1845 96.74 19.9745 96.32ZM17.4545 66.99C17.4745 68.13 17.6745 69.74 18.0845 71.64C18.3045 72.59 18.5845 73.6 18.9845 74.63C19.4045 75.64 19.8845 76.77 20.8545 77.37C21.8745 77.93 23.1245 78.19 24.3645 78.41C25.6145 78.61 26.9045 78.73 28.2045 78.78C29.4945 78.84 30.7945 78.84 32.0645 78.76C32.3845 78.73 32.6945 78.71 33.0145 78.68C33.3245 78.64 33.6345 78.6 33.9445 78.56C34.2445 78.51 34.5445 78.45 34.8445 78.4C35.1345 78.33 35.4545 78.25 35.7245 78.16C36.8245 77.77 37.6645 76.93 38.2745 76.03C38.8845 75.12 39.3045 74.15 39.6345 73.24C40.2645 71.41 40.5545 69.8 40.6945 68.67C40.7645 68.11 40.8045 67.66 40.8245 67.36C40.8445 67.06 40.8445 66.89 40.8445 66.89C40.8445 66.89 40.8445 67.05 40.8445 67.36C40.8445 67.66 40.8345 68.11 40.7845 68.68C40.7445 69.25 40.6545 69.94 40.5245 70.72C40.3745 71.5 40.1945 72.39 39.8945 73.32C39.5845 74.25 39.1845 75.25 38.5745 76.22C37.9645 77.17 37.0945 78.12 35.8645 78.56C35.5545 78.66 35.2745 78.73 34.9645 78.81C34.6545 78.87 34.3345 78.94 34.0245 78.99C33.7145 79.03 33.3945 79.08 33.0745 79.12C32.7545 79.15 32.4345 79.18 32.1145 79.21C30.8245 79.3 29.5145 79.32 28.2045 79.27C26.8945 79.21 25.5845 79.09 24.3145 78.87C23.0445 78.64 21.7845 78.37 20.6545 77.75C20.0745 77.4 19.7145 76.9 19.3845 76.36C19.0945 75.83 18.8545 75.3 18.6645 74.76C18.2745 73.69 18.0245 72.66 17.8345 71.7C17.4645 69.77 17.3645 68.13 17.3745 66.99C17.3745 66.42 17.4245 65.97 17.4645 65.67C17.5145 65.37 17.5345 65.21 17.5345 65.21C17.5345 65.21 17.5145 65.37 17.4845 65.68C17.4545 65.98 17.4345 66.43 17.4545 66.99ZM40.2145 66.4C40.2145 69.38 39.0245 76.29 35.5045 77.43C34.2245 77.84 32.1345 78.08 29.7745 78.08C25.6045 78.08 21.7945 77.37 20.7345 76.39C18.7845 74.6 17.6345 67.56 18.1345 64.8C18.5745 62.32 19.4645 61.24 26.1645 61.24C34.4345 61.25 40.2145 63.37 40.2145 66.4ZM36.2445 101.91C36.9345 101.9 37.5745 101.87 38.1745 101.83C39.4845 102.1 42.4245 102.55 47.0845 102.46C51.2645 102.38 54.0545 102.07 55.5345 101.86C55.9945 101.88 56.4745 101.9 56.9745 101.91C57.3045 101.92 57.6445 101.96 57.9945 102.01C56.6845 102.94 55.4545 103.69 54.2645 104.28C53.4745 104.67 52.6845 104.85 51.7145 104.85C50.9645 104.85 50.1945 104.74 49.3845 104.63C48.4945 104.51 47.5745 104.38 46.6045 104.38C45.5745 104.38 44.6245 104.57 43.7145 104.75C42.9245 104.91 42.1845 105.06 41.4945 105.06C40.9545 105.06 40.4945 104.97 40.0345 104.78C38.5345 104.15 36.9445 103.23 35.2345 102.01C35.5845 101.95 35.9245 101.91 36.2445 101.91ZM64.4745 61.25C71.1745 61.25 72.0645 62.34 72.5045 64.81C72.9945 67.58 71.8445 74.62 69.9045 76.4C68.8345 77.38 65.0345 78.09 60.8645 78.09C58.5045 78.09 56.4145 77.85 55.1345 77.44C51.6045 76.3 50.4245 69.39 50.4245 66.41C50.4145 63.37 56.1945 61.25 64.4745 61.25ZM50.9745 73.26C51.3045 74.17 51.7245 75.14 52.3445 76.05L52.5845 76.39C52.6645 76.5 52.7645 76.6 52.8545 76.71L53.1345 77.03L53.4545 77.31C53.8745 77.7 54.3445 77.96 54.9345 78.19C56.0345 78.53 57.3145 78.69 58.5745 78.77C59.8445 78.85 61.1445 78.85 62.4345 78.79C63.7245 78.75 65.0245 78.63 66.2745 78.43C66.9045 78.33 67.5245 78.21 68.1145 78.04C68.7145 77.89 69.2845 77.66 69.7845 77.41C70.7845 76.79 71.2745 75.67 71.6945 74.66C72.1045 73.63 72.3845 72.61 72.6045 71.66C73.0245 69.76 73.2145 68.14 73.2445 67C73.2645 66.43 73.2445 65.98 73.2245 65.68C73.1945 65.38 73.1745 65.21 73.1745 65.21C73.1745 65.21 73.2045 65.37 73.2445 65.67C73.2845 65.97 73.3345 66.42 73.3345 66.99C73.3545 68.13 73.2445 69.78 72.8745 71.71C72.6845 72.67 72.4245 73.71 72.0345 74.78C71.8445 75.31 71.6045 75.85 71.3045 76.38C71.2245 76.51 71.1345 76.64 71.0545 76.77C70.9745 76.9 70.8745 77.03 70.7645 77.14C70.6445 77.25 70.5745 77.38 70.4145 77.49L70.0445 77.76C69.4645 78.08 68.8645 78.31 68.2445 78.47C67.6245 78.65 66.9945 78.77 66.3545 78.88C65.0745 79.1 63.7645 79.23 62.4545 79.28C61.1445 79.33 59.8245 79.31 58.5345 79.22C57.2345 79.12 55.9845 78.97 54.7545 78.57L54.3345 78.39L54.1245 78.3C54.0545 78.26 53.9845 78.21 53.9245 78.17C53.6545 78 53.3845 77.82 53.1745 77.6L52.8445 77.29L52.5645 76.95C52.4745 76.83 52.3745 76.73 52.2845 76.61L52.0445 76.25C51.4245 75.29 51.0245 74.28 50.7145 73.35C50.4045 72.41 50.2245 71.53 50.0745 70.74C49.9445 69.95 49.8545 69.26 49.8145 68.69C49.7645 68.12 49.7545 67.67 49.7545 67.36C49.7545 67.05 49.7545 66.89 49.7545 66.89C49.7545 66.89 49.7645 67.05 49.7745 67.36C49.7945 67.66 49.8245 68.11 49.9045 68.68C50.0445 69.81 50.3345 71.42 50.9745 73.26ZM74.3645 60.2C72.5845 60.12 70.0545 60.09 67.0045 60.06C65.4845 60.05 63.8345 60.06 62.0845 60.08C60.3445 60.12 58.5345 60.26 56.6845 60.61C54.8345 60.96 52.9945 61.59 51.1945 62.43C50.2845 62.84 49.3745 63.28 48.3945 63.64C47.4245 64 46.3645 64.23 45.3045 64.23L44.5245 64.19C44.2645 64.17 43.9945 64.11 43.7245 64.07C43.2045 63.96 42.6945 63.82 42.2045 63.64C41.2245 63.28 40.3145 62.84 39.4045 62.43C37.6045 61.59 35.7645 60.97 33.9145 60.61C32.0645 60.25 30.2445 60.12 28.5145 60.08C26.7645 60.06 25.1245 60.05 23.5945 60.06C20.5545 60.08 18.0145 60.12 16.2345 60.19C14.4545 60.26 13.4445 60.32 13.4445 60.32C13.4445 60.32 14.4545 60.19 16.2245 60.04C17.9945 59.91 20.5345 59.72 23.5845 59.63C25.1045 59.58 26.7645 59.55 28.5045 59.52C30.2645 59.52 32.1245 59.6 34.0245 59.96C35.9245 60.3 37.8445 60.94 39.6745 61.78C40.5945 62.18 41.5045 62.62 42.4245 62.94C42.8845 63.11 43.3645 63.24 43.8345 63.33C44.0745 63.36 44.2945 63.41 44.5445 63.43L45.2845 63.47C46.2545 63.47 47.2145 63.28 48.1445 62.94C49.0745 62.61 49.9845 62.18 50.8945 61.78C52.7245 60.95 54.6445 60.31 56.5445 59.96C58.4445 59.6 60.3145 59.52 62.0645 59.52C63.8145 59.54 65.4645 59.58 66.9845 59.63C70.0345 59.72 72.5745 59.9 74.3445 60.04C76.1145 60.18 77.1245 60.32 77.1245 60.32C77.1245 60.32 76.1445 60.27 74.3645 60.2ZM7.65453 39.69C7.77453 39.57 7.87453 39.45 7.99453 39.33C9.11453 38.22 10.3945 37.27 11.4245 36.66C11.9345 36.35 12.3745 36.11 12.6945 35.95C13.0045 35.79 13.1845 35.7 13.1845 35.7C13.1845 35.7 12.9945 35.76 12.6645 35.88C12.3345 35.99 11.8545 36.17 11.3045 36.42C10.1945 36.9 8.75453 37.69 7.44453 38.68C6.31453 39.53 5.27453 40.53 4.51453 41.41C4.65453 40.62 4.85453 39.76 5.16453 38.85C5.85453 36.77 7.07453 34.44 8.95453 32.38C10.8245 30.33 13.3445 28.56 16.1945 27.65C17.6145 27.19 19.1045 26.96 20.5845 26.99C22.0645 27.01 23.5245 27.28 24.9145 27.67C27.6945 28.47 30.1345 29.75 32.2045 30.85C34.2745 31.97 36.0145 32.91 37.2545 33.49C38.4945 34.08 39.2345 34.36 39.2345 34.36C39.2345 34.36 38.5145 34.03 37.3145 33.37C36.1045 32.71 34.4445 31.67 32.4445 30.42C30.4345 29.18 28.0545 27.73 25.2145 26.71C23.7945 26.21 22.2545 25.82 20.6445 25.7C19.0345 25.57 17.3645 25.72 15.7645 26.12C12.5545 26.93 9.63453 28.7 7.40453 30.86C5.15453 33.03 3.60453 35.58 2.66453 37.91C2.42453 38.48 2.23453 39.04 2.06453 39.58C1.82453 36.66 1.89453 34.42 2.17453 32.68C2.32453 32.37 2.52453 31.98 2.77453 31.55C2.93453 31.28 3.11453 31 3.30453 30.71C3.49453 30.42 3.72453 30.14 3.94453 29.84C4.16453 29.54 4.44453 29.27 4.69453 28.98C4.95453 28.69 5.24453 28.43 5.54453 28.18C5.83453 27.91 6.14453 27.67 6.45453 27.45C6.77453 27.23 7.08453 27 7.40453 26.81C8.04453 26.43 8.68453 26.1 9.24453 25.84C9.81453 25.59 10.3145 25.39 10.6745 25.26C11.0345 25.13 11.2445 25.05 11.2445 25.05C11.2445 25.05 11.0245 24.99 10.6345 24.93C10.2445 24.87 9.67453 24.83 8.99453 24.9C8.41453 24.95 7.75453 25.1 7.08453 25.34C8.02453 24.2 7.84453 22.85 7.53453 21.91C8.02453 21.89 8.63453 21.88 9.35453 21.9C11.1545 21.92 13.5545 22.12 15.9245 22.56C18.2945 23.01 20.6345 23.69 22.3445 24.34C23.2045 24.65 23.9045 24.95 24.3945 25.17C24.8845 25.39 25.1645 25.51 25.1645 25.51C25.1645 25.51 24.8945 25.36 24.4345 25.09C23.9645 24.83 23.2945 24.46 22.4645 24.06C20.8145 23.24 18.5245 22.32 16.1545 21.63C14.3345 21.1 12.4645 20.71 10.8545 20.47C12.1845 20.34 13.6645 20.15 14.9445 19.92C15.1945 19.94 15.6145 19.96 16.1745 20C16.6545 20.02 17.2445 20.08 17.9045 20.17C18.2345 20.21 18.5945 20.25 18.9745 20.3C19.3445 20.35 19.7345 20.43 20.1445 20.5C21.7945 20.75 23.6745 21.24 25.6845 21.83C27.6745 22.48 29.7645 23.29 31.7845 24.27C33.7945 25.28 35.7445 26.41 37.4845 27.63C39.2045 28.86 40.7645 30.1 41.9945 31.28C42.3045 31.57 42.6045 31.85 42.8845 32.12C43.1545 32.4 43.4045 32.67 43.6445 32.92C44.1245 33.42 44.5445 33.86 44.8645 34.25C45.5145 35.01 45.8845 35.45 45.8845 35.45C45.8845 35.45 45.5545 34.98 44.9745 34.17C44.6945 33.75 44.3145 33.28 43.8745 32.73C43.6545 32.46 43.4245 32.17 43.1745 31.86C42.9145 31.57 42.6345 31.26 42.3445 30.94C41.2045 29.64 39.7445 28.25 38.0945 26.84C36.4345 25.45 34.5345 24.1 32.5545 22.88C30.5545 21.68 28.4545 20.65 26.4345 19.78C24.3945 18.98 22.4445 18.29 20.7245 17.86C20.2945 17.75 19.8845 17.63 19.4945 17.54C19.1045 17.46 18.7245 17.38 18.3745 17.3C17.6745 17.14 17.0545 17.02 16.5345 16.96C16.1445 16.9 15.8245 16.85 15.5745 16.81C14.6745 16.41 13.7445 16.05 12.8645 15.74C13.1445 15.8 13.4245 15.86 13.7145 15.91C14.1545 15.99 14.6045 16.08 15.0445 16.16C15.4945 16.23 15.9445 16.31 16.3845 16.38C16.8245 16.46 17.2645 16.5 17.6845 16.57C18.5345 16.69 19.3345 16.78 20.0245 16.84C21.4045 16.97 22.3645 16.95 22.3645 16.95C22.3645 16.95 21.5545 16.42 20.2545 15.89C19.6045 15.61 18.8345 15.35 17.9945 15.1C17.5745 14.99 17.1445 14.85 16.6945 14.76C16.2445 14.67 15.7945 14.57 15.3345 14.48C14.8745 14.41 14.4145 14.35 13.9545 14.28C13.5045 14.21 13.0445 14.2 12.6145 14.16C12.1845 14.12 11.7545 14.12 11.3545 14.11C10.9545 14.1 10.5745 14.11 10.2245 14.13C10.0345 14.14 9.85454 14.15 9.68454 14.16C12.0445 13.32 14.6245 13.11 17.1745 13.06C17.0445 13.12 16.9145 13.19 16.8045 13.25C16.5045 13.4 16.2845 13.56 16.1345 13.66C15.9845 13.76 15.9045 13.82 15.9045 13.82C15.9045 13.82 16.2845 13.81 16.9445 13.8C17.5945 13.79 18.5045 13.79 19.5745 13.85C20.6445 13.91 21.8645 14.03 23.1545 14.23C23.8045 14.33 24.4645 14.45 25.1445 14.57C25.8145 14.71 26.5045 14.85 27.1845 15.01C27.8645 15.17 28.5445 15.35 29.2245 15.52C29.9045 15.7 30.5645 15.88 31.2145 16.06C32.5145 16.42 33.7445 16.75 34.8145 17.01C35.8945 17.27 36.8045 17.46 37.4645 17.58C38.1145 17.7 38.5045 17.73 38.5045 17.73C38.5045 17.73 38.2245 17.47 37.6945 17.06C37.1745 16.65 36.4145 16.1 35.4645 15.49C34.5145 14.89 33.3645 14.25 32.0645 13.68C31.4145 13.39 30.7345 13.12 30.0245 12.88C29.4845 12.69 28.9245 12.53 28.3545 12.38C29.9445 12.43 31.6345 12.58 33.2945 12.89C36.5245 13.46 39.5245 15.24 41.3245 16.99C42.2345 17.87 42.8745 18.73 43.2645 19.36C43.6545 20 43.8045 20.4 43.8045 20.4C43.8045 20.4 43.6945 19.98 43.3845 19.29C43.0645 18.61 42.5145 17.66 41.6845 16.65C40.8645 15.63 39.7245 14.57 38.3645 13.63C38.0245 13.4 37.6745 13.15 37.3045 12.95C36.9345 12.73 36.5745 12.51 36.1645 12.33C35.7645 12.13 35.3645 11.94 34.9445 11.79C34.5345 11.62 34.1145 11.47 33.6845 11.35C30.2845 10.29 26.7745 9.92 24.1645 9.73C22.9945 9.65 22.0145 9.6 21.2645 9.58C23.8645 7.5 27.6645 6.48999 29.7445 6.06999C31.3345 5.88999 33.1245 5.78 34.9245 5.78C37.6345 5.78 40.3545 6.05 42.3745 6.39C43.3845 6.55 44.2245 6.73 44.8045 6.86C45.3845 6.99 45.7245 7.06999 45.7245 7.06999C45.7245 7.06999 45.3945 6.97 44.8245 6.78C44.2545 6.6 43.4345 6.34999 42.4345 6.09999C40.4445 5.57999 37.7245 5.07 34.9645 4.83C32.2045 4.59 29.4145 4.61 27.3345 4.78C27.3145 4.78 27.2945 4.78 27.2745 4.78C25.1345 4.79 22.9545 5.12 22.9545 5.12C25.1945 2.82 28.9945 1.87 33.5345 1.87C40.7245 1.87 49.7745 4.25 57.5245 7.45C56.8345 7.48 56.1945 7.56 55.6845 7.66C55.0145 7.78 54.5745 7.91 54.5745 7.91C54.5745 7.91 55.0245 7.89999 55.6945 7.95999C56.3645 8.00999 57.2345 8.14999 58.0745 8.37999C58.8645 8.59999 59.6045 8.89 60.1645 9.16C61.9945 10.94 63.6645 12.87 65.1445 14.94C67.5745 18.33 69.5045 22.06 70.8545 25.98C70.7545 25.79 70.6545 25.59 70.5445 25.4C69.2445 23.02 67.6245 20.86 66.2445 19.42C65.5645 18.69 64.9545 18.13 64.5245 17.75C64.0845 17.38 63.8345 17.16 63.8345 17.16C63.8345 17.16 64.0445 17.41 64.4145 17.86C64.7745 18.31 65.2745 18.96 65.8045 19.78C66.8945 21.4 68.0645 23.73 68.8745 26.15C69.7045 28.57 70.1745 31.07 70.3745 32.95C70.4345 33.42 70.4545 33.85 70.4845 34.23C70.5145 34.61 70.5345 34.94 70.5345 35.22C70.5445 35.61 70.5545 35.88 70.5545 36C69.6545 36.48 68.6445 36.93 67.5445 37.37C67.5445 37.32 67.5345 37.27 67.5345 37.21C67.4445 36.01 67.3245 34.28 67.1145 32.2C66.8945 30.12 66.5745 27.65 65.8645 25.07C65.1845 22.49 64.0145 19.83 62.5545 17.44C61.8245 16.24 61.0545 15.07 60.2145 13.97C59.3645 12.88 58.4845 11.84 57.5445 10.92C55.6745 9.07 53.6545 7.65 51.8245 6.66C49.9945 5.67 48.3545 5.08 47.2145 4.7C46.0545 4.35 45.3945 4.17999 45.3945 4.17999C45.3945 4.17999 46.0445 4.41 47.1645 4.83C48.2745 5.29 49.8445 5.99 51.5645 7.09C53.2845 8.19 55.1345 9.7 56.7945 11.61C57.6245 12.56 58.4045 13.62 59.1345 14.72C59.8545 15.83 60.5145 17.01 61.1245 18.21C62.3545 20.62 63.2445 23.11 63.6945 25.56C64.1745 28 64.3045 30.34 64.3745 32.37C64.4345 34.4 64.4245 36.11 64.4245 37.31C64.4245 37.77 64.4245 38.16 64.4245 38.46C63.6745 38.7 62.8945 38.93 62.0645 39.15C61.5345 39.29 61.0045 39.41 60.4745 39.54C60.4745 39.51 60.4645 39.49 60.4645 39.46C60.4245 39.17 60.3445 38.83 60.2645 38.43C60.1845 38.04 60.0845 37.59 59.9545 37.12C59.7145 36.16 59.3545 35.06 58.9345 33.91C58.4945 32.76 57.9645 31.57 57.3645 30.42C56.7545 29.27 56.0845 28.17 55.4045 27.17C54.7045 26.18 54.0345 25.29 53.4045 24.56C53.1045 24.19 52.8045 23.87 52.5345 23.58C52.2745 23.29 52.0445 23.05 51.8445 22.85C51.4545 22.46 51.2245 22.23 51.2245 22.23C51.2245 22.23 51.4145 22.48 51.7445 22.93C51.9145 23.15 52.1045 23.42 52.3245 23.74C52.5445 24.05 52.7945 24.41 53.0345 24.82C53.5545 25.61 54.0845 26.58 54.6145 27.62C55.1245 28.67 55.6245 29.82 56.0445 30.99C56.8745 33.33 57.3845 35.74 57.5745 37.56C57.6345 38.01 57.6645 38.43 57.6945 38.8C57.7245 39.17 57.7445 39.49 57.7445 39.75C57.7445 39.89 57.7545 40.01 57.7545 40.12C57.1745 40.24 56.6045 40.34 56.0345 40.45C56.0345 40.44 56.0345 40.43 56.0245 40.42C55.9645 40.1 55.8545 39.73 55.7345 39.3C55.6245 38.87 55.4845 38.38 55.3045 37.86C54.9745 36.81 54.4945 35.62 53.9345 34.38C53.3545 33.14 52.6445 31.87 51.8745 30.64C51.0845 29.42 50.2145 28.26 49.3545 27.22C48.4645 26.2 47.6045 25.28 46.8045 24.55C46.4145 24.17 46.0445 23.85 45.7145 23.57C45.3845 23.28 45.0945 23.04 44.8445 22.85C44.3545 22.46 44.0645 22.24 44.0645 22.24C44.0645 22.24 44.3245 22.48 44.7945 22.9C45.0345 23.11 45.3045 23.37 45.6045 23.68C45.9145 23.98 46.2645 24.33 46.6145 24.73C47.3545 25.5 48.1245 26.48 48.9245 27.54C49.6945 28.62 50.4645 29.82 51.1345 31.06C51.7945 32.31 52.3845 33.59 52.8545 34.82C53.3045 36.06 53.6845 37.22 53.9145 38.25C54.0445 38.76 54.1445 39.23 54.2245 39.64C54.3045 40.05 54.3745 40.41 54.4145 40.71C52.5345 41 50.6545 41.22 48.8045 41.37C48.6445 41.15 48.4345 40.87 48.1745 40.55C47.5545 39.79 46.6145 38.87 45.5745 38.12C44.5345 37.36 43.4045 36.77 42.5245 36.42C41.6545 36.06 41.0445 35.9 41.0445 35.9C41.0445 35.9 41.6145 36.16 42.4045 36.65C43.1945 37.13 44.1745 37.89 45.0145 38.76C45.8545 39.63 46.5545 40.6 46.9945 41.38C47.0145 41.42 47.0345 41.45 47.0545 41.49C45.1145 41.61 43.1945 41.67 41.3045 41.67C37.8945 41.67 34.6045 41.49 31.4945 41.19C31.2245 41.13 30.6145 41.01 29.8045 40.84C28.6945 40.6 27.2245 40.34 25.8445 39.87C24.4545 39.42 23.1945 38.64 22.4345 37.82C22.0545 37.42 21.7945 37.03 21.6345 36.74C21.5545 36.6 21.4945 36.48 21.4645 36.4C21.4245 36.32 21.4045 36.28 21.4045 36.28C21.4045 36.28 21.4145 36.33 21.4445 36.41C21.4645 36.5 21.5045 36.62 21.5645 36.78C21.6745 37.09 21.8745 37.53 22.2045 38.01C22.7345 38.82 23.6745 39.67 24.7745 40.35C20.9145 39.76 17.4945 39.04 14.7145 38.38C13.9445 38.2 13.2145 38.11 12.5145 38.11C10.6645 38.17 9.02453 38.81 7.65453 39.69ZM12.5745 47.93C12.6745 48.39 12.7845 48.86 12.9045 49.33C13.9845 53.94 15.6145 58.36 15.6145 58.36C15.6145 58.36 14.4645 53.79 13.8945 49.15C13.7045 47.76 13.5645 46.38 13.4645 45.11C13.6245 45.83 13.8045 46.57 13.9845 47.31C14.9045 51.11 16.0945 54.81 16.0945 54.81C16.0945 54.81 15.3945 50.98 14.9745 47.13C14.8745 46.28 14.7945 45.44 14.7145 44.64C14.7845 44.93 14.8445 45.23 14.9245 45.52C15.6245 48.49 16.7145 51.3 16.7145 51.3C16.7145 51.3 16.1145 48.34 15.9145 45.36C15.8445 44.54 15.8145 43.72 15.7945 42.97C15.8745 43.36 15.9545 43.77 16.0445 44.17C16.5145 46.33 17.1945 48.41 17.1945 48.41C17.1945 48.41 17.0045 46.23 17.0345 44.06C17.0445 42.9 17.1045 41.75 17.1745 40.93C25.4745 42.72 33.6045 43.63 41.3845 43.63C48.9545 43.63 56.0945 42.75 62.6245 41.02C64.2245 40.59 65.7045 40.13 67.0745 39.64C66.4445 39.94 65.8045 40.24 65.1445 40.54C64.6545 40.74 64.1545 40.93 63.6545 41.13C63.1545 41.33 62.6545 41.53 62.1345 41.69C61.6245 41.86 61.1045 42.03 60.5945 42.2L59.8245 42.45L59.0445 42.65C58.5245 42.79 58.0145 42.92 57.5045 43.05C56.9945 43.19 56.4945 43.31 55.9945 43.4C54.9945 43.6 54.0245 43.79 53.1045 43.97C52.1745 44.1 51.2945 44.22 50.4845 44.33C50.0745 44.39 49.6845 44.44 49.3145 44.49C48.9445 44.52 48.5845 44.55 48.2545 44.57C47.5845 44.62 47.0045 44.67 46.5245 44.7C45.5645 44.77 45.0145 44.81 45.0145 44.81C45.0145 44.81 45.5645 44.82 46.5245 44.84C47.0045 44.85 47.5945 44.86 48.2645 44.87C48.6045 44.88 48.9545 44.88 49.3345 44.89C49.7145 44.88 50.1045 44.86 50.5245 44.84C51.3545 44.81 52.2545 44.77 53.1945 44.73C54.1445 44.64 55.1445 44.54 56.1745 44.43C56.6945 44.39 57.2145 44.31 57.7445 44.22C58.2745 44.13 58.8145 44.05 59.3545 43.96L60.1645 43.83L60.9745 43.65C61.5145 43.53 62.0645 43.4 62.6045 43.28C63.1545 43.17 63.6945 43.01 64.2245 42.85C64.7645 42.69 65.2945 42.54 65.8245 42.38C66.8645 42.02 67.9045 41.67 68.8845 41.27C69.8545 40.85 70.8145 40.46 71.6745 40C72.5645 39.58 73.3545 39.1 74.1045 38.68C74.3845 38.5 74.6545 38.33 74.9245 38.16C75.3645 40.26 75.7445 42.44 75.8045 44.39C75.9645 49.6 75.7545 54.26 74.9845 59.16C72.4845 59.02 68.2645 58.85 62.3445 58.85C56.1845 58.85 52.9345 60.23 50.3245 61.34C50.0545 61.45 49.8045 61.56 49.5445 61.67C49.5245 61.68 49.5045 61.69 49.4845 61.7C48.0845 62.28 46.8545 62.69 45.3145 62.69C43.4745 62.69 42.0745 62.1 40.3045 61.34C37.6945 60.23 34.4445 58.85 28.2845 58.85C21.7145 58.85 17.2245 59.06 14.8745 59.2C14.1845 55.78 13.2745 51.88 12.5745 47.93ZM10.6145 68.52C10.5145 69.16 10.4345 69.83 10.3545 70.5C10.2945 71.18 10.2345 71.9 10.2345 72.6C10.2245 73.81 10.3145 75 10.4445 76.14C9.73453 73.06 9.81453 69.85 10.0145 66.69C10.0745 65.73 10.1545 64.75 10.5445 63.87C10.9045 63.05 11.5945 62.31 12.4745 62.07V63.83V63.85C12.4445 63.85 12.4145 63.85 12.3945 63.86C12.1345 63.94 11.9545 64.14 11.8145 64.35C11.6645 64.56 11.5545 64.79 11.4545 65.04C11.0645 66.04 10.8245 67.24 10.6145 68.52ZM14.3845 79.63C14.2545 79.81 14.1445 80 14.0345 80.17C13.9445 79.95 13.8545 79.73 13.7545 79.49C13.0245 77.65 12.1945 75.12 11.8345 72.51C11.7345 71.86 11.6945 71.21 11.6545 70.55C11.6345 69.89 11.6145 69.23 11.6245 68.6C11.6445 67.34 11.7045 66.16 11.9345 65.2C12.0445 64.75 12.2145 64.31 12.4845 64.15V64.17L12.8045 64.29C13.8345 64.66 14.5845 66.77 15.1945 69C14.7345 69.26 14.2645 69.68 13.9345 70.21C13.5845 70.76 13.3845 71.4 13.2945 72.02C13.1045 73.27 13.3845 74.49 13.7445 75.29C13.9245 75.69 14.1145 76.01 14.2545 76.21C14.3945 76.42 14.4845 76.53 14.4845 76.53C14.4845 76.53 14.4245 76.4 14.3245 76.17C14.2345 75.94 14.1145 75.6 14.0345 75.19C13.8545 74.37 13.8745 73.24 14.2545 72.26C14.4345 71.77 14.7045 71.34 15.0045 71.04C15.1945 70.85 15.4045 70.72 15.6045 70.62C15.6445 70.77 15.6845 70.92 15.7145 71.07C15.9045 71.85 16.0945 72.58 16.2845 73.24L16.3345 73.42C16.4445 73.81 16.5545 74.2 16.6845 74.59C16.4745 75.68 16.0945 76.73 15.6845 77.73L14.3845 79.63ZM73.3545 122.78C73.3145 122.99 73.2845 123.2 73.2545 123.42C72.8345 125.92 72.3845 128.48 71.1445 130.72C70.4745 131.93 69.6045 132.99 68.5945 133.94C68.5845 133.83 68.5745 133.73 68.5645 133.62C68.4045 132.31 68.1245 130.83 67.8445 129.3C67.5645 127.77 67.2945 126.17 67.2245 124.58C67.0745 121.38 67.8045 118.1 68.4445 115.69C68.7645 114.48 69.0645 113.48 69.2745 112.78C69.4845 112.08 69.6045 111.68 69.6045 111.68C69.6045 111.68 69.4245 112.06 69.1245 112.72C68.8145 113.39 68.3745 114.34 67.8845 115.5C66.9045 117.81 65.6645 121.01 65.3045 124.52C65.1245 126.27 65.1745 128.01 65.2245 129.59C65.2845 131.17 65.3445 132.6 65.3145 133.8C65.2945 134.95 65.1845 135.87 65.0745 136.51C63.5745 137.37 61.9545 138.08 60.3345 138.66C59.5545 138.94 58.7545 139.2 57.9645 139.44C57.5645 137.34 56.5045 134.77 55.1545 132.43C53.7945 130.05 52.2945 127.81 51.3045 126.03C50.8045 125.15 50.4245 124.39 50.1745 123.86C49.9245 123.32 49.7945 123.01 49.7945 123.01C49.7945 123.01 49.8945 123.33 50.1045 123.89C50.3045 124.45 50.6245 125.24 51.0445 126.17C51.8745 128.03 53.1845 130.43 54.3045 132.87C55.4445 135.3 56.2145 137.85 56.3945 139.77C56.3945 139.81 56.4045 139.85 56.4045 139.89C54.0745 140.5 51.6845 140.91 49.2745 141.14C49.2745 141.11 49.2845 141.07 49.2845 141.04C49.3245 139.83 49.2345 138.43 48.9745 136.97C48.7245 135.52 48.3145 134.01 47.8245 132.55C46.8345 129.63 45.6445 126.85 44.9345 124.68C44.5745 123.6 44.3145 122.69 44.1645 122.04C44.0045 121.39 43.9345 121.02 43.9345 121.02C43.9345 121.02 43.9745 121.4 44.0645 122.06C44.1545 122.72 44.3245 123.66 44.5845 124.78C45.0845 127.02 46.0145 129.94 46.6945 132.87C47.0345 134.33 47.2745 135.8 47.3845 137.18C47.4945 138.55 47.4545 139.83 47.3145 140.89C47.2945 141.04 47.2745 141.17 47.2445 141.31C45.0145 141.43 42.7745 141.39 40.5445 141.2C40.6045 139.73 40.5645 137.86 40.3645 136.01C40.1445 134.04 39.7545 132.11 39.3645 130.69C38.9845 129.27 38.6545 128.35 38.6545 128.35C38.6545 128.35 38.8445 129.31 39.0045 130.75C39.1745 132.19 39.2745 134.13 39.1945 136.04C39.1145 137.85 38.8845 139.62 38.6245 140.99C34.6645 140.48 30.7745 139.48 27.1145 137.97C25.7645 137.41 24.4245 136.77 23.1645 136.02C22.8345 135.74 22.5145 135.45 22.2045 135.16C22.2245 135.13 22.2545 135.11 22.2745 135.08C22.8345 134.4 23.3945 133.28 23.5445 131.91C23.7145 130.53 23.4345 129.03 23.0545 127.58C22.6745 126.14 22.3045 124.63 22.0045 123.09C21.3845 120.02 21.1545 116.88 21.3145 114.53C21.3845 113.35 21.5445 112.38 21.6645 111.7C21.8045 111.02 21.8945 110.64 21.8945 110.64C21.8945 110.64 21.7745 111.02 21.5645 111.68C21.3845 112.35 21.1245 113.31 20.9445 114.49C20.5545 116.85 20.4845 120.08 20.8345 123.26C20.9945 124.85 21.2345 126.44 21.4745 127.9C21.7145 129.34 21.7945 130.63 21.5845 131.6C21.3945 132.51 20.9945 133.15 20.6545 133.51C19.3645 131.97 18.2445 130.21 17.4245 128.17C15.9045 124.44 15.1745 121.38 14.9145 118.73C15.0045 118.41 15.1245 117.91 15.2545 117.3C15.4845 116.21 15.7145 114.77 15.9745 113.35C16.2445 111.94 16.5845 110.54 16.9745 109.54C17.1645 109.04 17.3645 108.63 17.5145 108.35C17.6745 108.07 17.7645 107.92 17.7645 107.92C17.7645 107.92 17.6545 108.06 17.4445 108.31C17.2445 108.56 16.9845 108.94 16.7045 109.41C16.1345 110.36 15.5545 111.72 15.0545 113.1C15.0445 113.13 15.0345 113.16 15.0245 113.19C15.3445 110.89 15.9445 108.8 16.4745 106.63C17.5645 107.2 18.7645 107.49 20.0645 107.49C20.5745 107.49 21.0945 107.43 21.6045 107.35C22.3045 107.39 22.9945 107.39 23.6945 107.35C25.1145 107.27 26.5345 107.04 27.9145 106.68C28.8845 106.43 29.8545 106.11 30.6545 105.53C30.2345 106.37 29.8345 107.31 29.5345 108.29C28.9945 110.02 28.9245 111.85 29.1845 113.15C29.3045 113.8 29.4945 114.32 29.6445 114.67C29.7945 115.02 29.9045 115.21 29.9045 115.21C29.9045 115.21 29.8245 115.01 29.7245 114.64C29.6245 114.28 29.5145 113.75 29.4845 113.11C29.4045 111.83 29.7145 110.13 30.4345 108.62C31.1345 107.09 32.1345 105.73 32.9145 104.71C33.3445 104.16 33.7045 103.71 33.9445 103.42C35.9145 104.85 37.6845 105.86 39.3445 106.56C40.0945 106.88 40.8245 106.99 41.5445 106.99C41.5645 106.99 41.5845 106.99 41.6045 106.99C41.4945 107.04 41.3745 107.09 41.2645 107.14C40.5445 107.51 39.9945 107.87 39.6145 108.14C39.2445 108.42 39.0445 108.6 39.0445 108.6C39.0445 108.6 39.2945 108.5 39.7245 108.36C40.1445 108.2 40.7645 107.99 41.5045 107.81C42.2345 107.6 43.1045 107.42 44.0445 107.32C44.9745 107.18 45.9745 107.13 46.9645 107.2C47.9545 107.21 48.9545 107.33 49.8745 107.53C50.8045 107.69 51.6545 107.94 52.3745 108.2C53.1045 108.43 53.7045 108.68 54.1145 108.87C54.5345 109.04 54.7745 109.16 54.7745 109.16C54.7745 109.16 54.5945 108.97 54.2445 108.66C53.8845 108.37 53.3545 107.97 52.6745 107.55C52.1845 107.28 51.6145 107.01 50.9845 106.77C51.2445 106.79 51.5045 106.8 51.7745 106.8C52.8645 106.8 53.9845 106.62 55.1645 106.03C56.0545 105.59 56.9745 105.06 57.9445 104.43C58.3745 105.26 59.0045 106.57 59.5145 107.97C60.3945 110.28 60.8645 112.76 60.8645 112.76C60.8645 112.76 60.9845 110.24 60.6545 107.7C60.6145 107.3 60.5545 106.91 60.4945 106.52C61.1845 108.2 61.8745 110.24 62.3345 112.36C62.9345 115 63.0245 117.75 62.7045 119.77C62.5545 120.78 62.3245 121.61 62.1445 122.18C61.9545 122.75 61.8245 123.07 61.8245 123.07C61.8245 123.07 61.9745 122.76 62.2245 122.21C62.4545 121.65 62.7545 120.84 63.0045 119.83C63.5045 117.81 63.6645 114.98 63.2845 112.2C62.9345 109.42 62.1845 106.71 61.4845 104.72C61.3245 104.25 61.1545 103.82 61.0045 103.44C61.0245 103.45 61.0345 103.46 61.0545 103.47C62.0045 104.11 62.9845 104.7 63.9845 105.25C65.9745 106.33 68.0745 107.22 70.2445 107.91C71.0245 108.16 71.8345 108.39 72.5245 108.82C72.5945 108.87 72.6645 108.92 72.7345 108.97C72.8045 109.64 72.8845 110.31 72.9545 110.98C72.9145 111.13 72.8745 111.29 72.8345 111.46C72.6345 112.28 72.4045 113.23 72.2345 114.27C72.0745 115.31 71.9245 116.42 71.8145 117.54C71.7445 118.66 71.7045 119.79 71.6945 120.84C71.6945 121.89 71.7645 122.88 71.8345 123.71C71.8945 124.55 72.0145 125.24 72.0845 125.73C72.1645 126.21 72.2145 126.49 72.2145 126.49C72.2145 126.49 72.2245 126.21 72.2345 125.72C72.2345 125.23 72.2645 124.53 72.2745 123.7C72.2745 122.87 72.3445 121.89 72.3745 120.85C72.4145 119.81 72.4845 118.7 72.5945 117.6C72.6745 116.49 72.7745 115.39 72.9045 114.36C72.9945 113.72 73.0545 113.11 73.1245 112.53C73.4245 115.94 73.6845 119.4 73.3545 122.78ZM73.6645 105.59C70.6645 105.59 66.9645 103.51 63.3545 101.91C63.3445 101.9 63.3245 101.89 63.3145 101.87C62.5845 101.24 61.6445 100.32 60.6745 99.39C59.7045 98.46 58.6745 97.58 57.8345 97.03C57.4145 96.75 57.0545 96.53 56.7945 96.4C56.5345 96.26 56.3945 96.19 56.3945 96.19C56.3945 96.19 56.5245 96.29 56.7545 96.47C56.9845 96.65 57.2945 96.92 57.6445 97.26C58.3545 97.94 59.1845 98.96 59.9645 100.02C60.1445 100.27 60.3345 100.53 60.5145 100.78C59.3045 100.38 58.1245 100.11 57.0145 100.09C56.6945 100.08 56.4045 100.07 56.1045 100.06L56.1445 100.03C56.1445 100.03 55.8545 99.69 55.3845 99.25C54.9145 98.81 54.2345 98.28 53.5045 97.86C52.7845 97.43 52.0245 97.11 51.4445 96.92C50.8645 96.73 50.4745 96.64 50.4745 96.64C50.4745 96.64 50.8245 96.84 51.3145 97.18C51.8045 97.52 52.4045 98.03 52.9145 98.6C53.3045 99.03 53.6545 99.49 53.9145 99.89C52.2945 99.72 51.0745 99.44 50.1845 99.16C49.9345 98.91 49.6545 98.54 49.4345 98.1C49.1945 97.62 49.0445 97.05 48.9945 96.61C48.9445 96.17 48.9645 95.85 48.9645 95.85C48.9645 95.85 48.7645 96.08 48.5145 96.5C48.2945 96.86 48.0745 97.38 47.9245 97.96V93.45C48.0145 93.54 48.0945 93.63 48.2045 93.72C48.7245 94.18 49.4145 94.52 50.1345 94.8C50.8545 95.08 51.6245 95.31 52.3245 95.63C53.7745 96.31 55.1845 97.07 56.1045 97.84C56.5645 98.22 56.9145 98.58 57.1345 98.85C57.3645 99.12 57.4745 99.29 57.4745 99.29C57.4745 99.29 57.3745 99.11 57.1745 98.82C56.9745 98.53 56.6645 98.12 56.2345 97.69C55.3745 96.82 54.0145 95.9 52.6145 95.07C51.8945 94.65 51.1345 94.34 50.4745 94.01C49.8145 93.68 49.2645 93.33 48.9145 92.94C48.7145 92.72 48.5645 92.51 48.4445 92.31C50.3745 91.52 52.2645 91.19 54.0745 91.19C61.4745 91.19 67.4345 96.79 69.0345 99.85C69.9945 101.69 71.8945 102.73 73.6245 103.31C72.7145 103.3 71.7445 103.25 70.7745 103.1C68.9345 102.83 67.1645 102.1 66.0145 101.27C65.4345 100.86 65.0045 100.45 64.7245 100.14C64.5745 99.99 64.4845 99.86 64.4045 99.77C64.3345 99.68 64.2945 99.64 64.2945 99.64C64.2945 99.64 64.3245 99.69 64.3845 99.79C64.4445 99.88 64.5245 100.03 64.6545 100.2C64.8945 100.55 65.2745 101.02 65.8245 101.51C66.8945 102.51 68.6445 103.5 70.5545 104.04C72.4545 104.59 74.4345 104.77 75.8945 104.86C76.0145 104.87 76.1245 104.87 76.2345 104.88C75.4645 105.38 74.6045 105.59 73.6645 105.59ZM79.0245 72.14C79.0145 71.99 79.0245 71.84 79.0245 71.69C79.1245 71.87 79.2245 72.06 79.2945 72.27C79.6845 73.25 79.6945 74.38 79.5145 75.2C79.4745 75.39 79.4345 75.56 79.3845 75.71C79.1945 74.52 79.0745 73.33 79.0245 72.14ZM81.5345 70.55C81.4945 71.21 81.4545 71.85 81.3545 72.51C81.0745 74.56 80.4945 76.56 79.9045 78.21C79.7145 77.48 79.5645 76.74 79.4345 76C79.5545 75.81 79.6845 75.57 79.8145 75.29C80.1745 74.49 80.4545 73.27 80.2645 72.02C80.1745 71.4 79.9745 70.76 79.6245 70.21C79.4645 69.95 79.2645 69.72 79.0545 69.52C79.1345 67.94 79.3245 66.37 79.6645 64.82C79.6745 64.75 79.6945 64.69 79.7145 64.62C79.7645 64.57 79.8045 64.52 79.8545 64.46C80.0445 64.27 80.3845 64 80.6745 64.14C80.9545 64.28 81.1345 64.74 81.2445 65.2C81.4745 66.15 81.5445 67.34 81.5545 68.6C81.5745 69.23 81.5545 69.89 81.5345 70.55ZM82.6845 76.76C82.6645 76.82 82.6445 76.88 82.6345 76.93C82.8345 75.57 82.9645 74.09 82.9445 72.6C82.9445 71.9 82.8945 71.18 82.8245 70.5C82.7545 69.82 82.6645 69.16 82.5645 68.52C82.3645 67.24 82.1245 66.04 81.7245 65.05C81.6245 64.8 81.5145 64.57 81.3645 64.36C81.2245 64.15 81.0445 63.95 80.7845 63.87C80.5245 63.79 80.2745 63.89 80.1245 64C79.9845 64.11 79.8745 64.22 79.7845 64.34C79.9845 63.56 80.2245 62.78 80.4245 62C80.4845 62.01 80.5445 62.01 80.5945 62.02C81.5745 62.2 82.3345 62.99 82.7245 63.88C83.1145 64.76 83.1945 65.74 83.2545 66.7C83.4645 70.07 83.5545 73.49 82.6845 76.76Z" fill="white"/>
<path d="M16.9545 33.09C17.9845 32.97 19.0445 32.95 20.1245 33C21.1945 33.07 22.2845 33.26 23.3545 33.52C24.4345 33.78 25.5045 34.11 26.5445 34.5C27.5845 34.88 28.6145 35.28 29.6145 35.69C31.6045 36.51 33.4945 37.27 35.1745 37.78C36.8545 38.3 38.2945 38.58 39.3145 38.67C39.8145 38.74 40.2245 38.73 40.4945 38.75C40.7645 38.76 40.9145 38.77 40.9145 38.77C40.9145 38.77 40.7745 38.73 40.5145 38.66C40.2545 38.58 39.8645 38.51 39.3845 38.35C38.4245 38.06 37.0845 37.56 35.5245 36.87C33.9645 36.17 32.1845 35.26 30.2245 34.33C29.2345 33.88 28.2245 33.38 27.1345 32.97C26.0545 32.54 24.9245 32.18 23.7645 31.88C22.5945 31.61 21.4045 31.43 20.2145 31.37C19.0245 31.32 17.8545 31.44 16.7445 31.62C15.6345 31.79 14.5845 32.12 13.6245 32.48C12.6545 32.83 11.7945 33.29 11.0345 33.74C9.50449 34.66 8.41449 35.67 7.73449 36.43C7.38449 36.8 7.14449 37.12 6.97449 37.34C6.81449 37.56 6.72449 37.67 6.72449 37.67C6.72449 37.67 6.83449 37.58 7.04449 37.4C7.25449 37.22 7.55449 36.97 7.95449 36.67C8.75449 36.07 9.95449 35.29 11.4845 34.6C12.2545 34.26 13.1045 33.94 14.0245 33.68C14.9445 33.41 15.9245 33.21 16.9545 33.09Z" fill="white"/>
<path d="M47.1245 10.93C47.8445 11.33 48.5545 11.81 49.2945 12.3C50.0245 12.81 50.7345 13.38 51.4445 13.99C52.1445 14.6 52.8245 15.25 53.4445 15.96C54.0745 16.65 54.6845 17.38 55.2045 18.14C55.7145 18.91 56.2445 19.66 56.6545 20.45C57.5145 22 58.1245 23.55 58.5745 24.92C59.0145 26.29 59.2645 27.48 59.4045 28.32C59.4945 28.74 59.5245 29.07 59.5645 29.3C59.6045 29.53 59.6245 29.65 59.6245 29.65C59.6245 29.65 59.6345 29.53 59.6645 29.3C59.6845 29.07 59.7345 28.73 59.7445 28.3C59.7945 27.43 59.7845 26.18 59.5245 24.69C59.2745 23.21 58.8045 21.49 57.9945 19.77C57.5945 18.91 57.1245 18.04 56.5645 17.21C56.0145 16.37 55.3745 15.58 54.7045 14.81C54.0145 14.06 53.2645 13.37 52.5045 12.73C51.7445 12.08 50.9145 11.55 50.1145 11.05C49.3045 10.56 48.4845 10.14 47.6945 9.79999C46.9045 9.43999 46.1345 9.17998 45.4145 8.95998C43.9745 8.52998 42.7445 8.32998 41.8745 8.24998C41.4445 8.19998 41.1045 8.18998 40.8745 8.17998C40.6445 8.16998 40.5245 8.16998 40.5245 8.16998C40.5245 8.16998 40.9945 8.31999 41.8145 8.57999C42.6245 8.83999 43.7645 9.26998 45.0745 9.86998C45.7145 10.17 46.4045 10.53 47.1245 10.93Z" fill="white"/>
<path d="M42.0845 119.67C41.8545 117.94 41.7945 116.3 41.8045 114.9C41.7745 113.49 41.8345 112.31 41.9045 111.48C41.9445 110.65 41.9845 110.17 41.9845 110.17C41.9845 110.17 41.8345 110.62 41.6045 111.43C41.3945 112.24 41.1345 113.41 40.9245 114.84C40.7645 116.27 40.6645 117.96 40.7245 119.78C40.8345 121.59 41.1045 123.52 41.5345 125.4C42.0245 127.27 42.6545 129.07 43.2045 130.76C43.8145 132.43 44.3445 133.98 44.7045 135.34C45.1145 136.69 45.3645 137.84 45.4845 138.66C45.5745 139.07 45.6045 139.39 45.6345 139.61C45.6645 139.83 45.6845 139.95 45.6845 139.95C45.6845 139.95 45.6945 139.83 45.7145 139.61C45.7245 139.39 45.7745 139.06 45.7845 138.64C45.8045 137.8 45.7545 136.6 45.5645 135.16C45.3345 133.73 44.9445 132.1 44.5045 130.37C44.0145 128.66 43.4545 126.85 43.0545 125.04C42.5845 123.24 42.2545 121.41 42.0845 119.67Z" fill="white"/>
<path d="M27.9846 130.37C27.7946 129.93 27.5846 129.44 27.3846 128.88C26.9146 127.81 26.4946 126.51 26.0946 125.12C25.6846 123.73 25.3346 122.23 25.1046 120.71C24.8346 119.2 24.6646 117.66 24.6046 116.22C24.5246 114.78 24.5046 113.41 24.6146 112.25C24.6246 111.66 24.6546 111.13 24.7046 110.65C24.7446 110.17 24.7746 109.75 24.8346 109.41C24.9046 108.72 24.9446 108.32 24.9446 108.32C24.9446 108.32 24.7946 108.69 24.5346 109.34C24.4146 109.67 24.2846 110.07 24.1546 110.54C24.0146 111.01 23.8646 111.54 23.7346 112.13C23.4946 113.31 23.3346 114.71 23.2446 116.23C23.2346 117.74 23.3346 119.36 23.5546 120.97C23.8646 122.56 24.2946 124.12 24.7946 125.55C25.3746 126.95 25.9646 128.23 26.5746 129.27C26.8846 129.79 27.1946 130.24 27.4746 130.64C27.7446 131.04 27.9946 131.39 28.2146 131.66C28.6646 132.19 28.9246 132.5 28.9246 132.5C28.9246 132.5 28.7646 132.14 28.4746 131.5C28.3446 131.2 28.1746 130.81 27.9846 130.37Z" fill="white"/>
<path d="M32.0646 115.91C32.2846 116.73 32.5446 117.53 32.8246 118.27C33.1046 119.01 33.4446 119.67 33.7346 120.23C34.0246 120.79 34.3246 121.23 34.5246 121.54C34.7346 121.84 34.8546 122.01 34.8546 122.01C34.8546 122.01 34.7846 121.81 34.6546 121.47C34.5146 121.13 34.3546 120.64 34.1346 120.06C33.9046 119.48 33.7146 118.78 33.4646 118.06C33.2246 117.33 33.0046 116.53 32.8246 115.73C32.6146 114.94 32.4446 114.13 32.3146 113.37C32.1946 112.61 32.0446 111.9 31.9846 111.28C31.9046 110.66 31.8246 110.15 31.7946 109.78C31.7446 109.42 31.7246 109.21 31.7246 109.21C31.7246 109.21 31.6946 109.42 31.6446 109.78C31.6146 110.14 31.5446 110.67 31.5446 111.3C31.5446 111.93 31.5546 112.67 31.6446 113.46C31.7346 114.25 31.8846 115.08 32.0646 115.91Z" fill="white"/>
<path d="M35.7145 128.47C35.3245 127.32 34.8545 126.2 34.3445 125.18C33.7745 124.19 33.2045 123.3 32.6545 122.58C32.3745 122.22 32.0945 121.92 31.8445 121.65C31.6045 121.38 31.3845 121.14 31.1945 120.96C30.8045 120.61 30.5845 120.41 30.5845 120.41C30.5845 120.41 30.7345 120.67 31.0045 121.12C31.1545 121.33 31.3145 121.6 31.4845 121.92C31.6645 122.23 31.8645 122.58 32.0545 122.98C32.5045 123.73 32.9245 124.66 33.3445 125.66C33.7745 126.65 34.1745 127.74 34.4945 128.85C34.8445 129.95 35.1245 131.07 35.3045 132.14C35.5145 133.2 35.6645 134.21 35.7145 135.09C35.7745 135.53 35.8045 135.93 35.8145 136.29C35.8345 136.65 35.8545 136.96 35.8545 137.22C35.8745 137.74 35.8945 138.04 35.8945 138.04C35.8945 138.04 35.9745 137.75 36.1045 137.24C36.1645 136.98 36.2145 136.67 36.2745 136.31C36.3345 135.95 36.3945 135.54 36.4345 135.09C36.5045 134.19 36.4845 133.13 36.4045 131.99C36.2645 130.84 36.0245 129.64 35.7145 128.47Z" fill="white"/>
<path d="M47.9846 124.65C47.5846 123.42 47.2446 122.16 46.9946 120.97C46.7146 119.78 46.4946 118.66 46.3846 117.68C46.2946 117.19 46.2346 116.75 46.1846 116.35C46.1346 115.95 46.0846 115.6 46.0646 115.31C45.9946 114.73 45.9546 114.4 45.9546 114.4C45.9546 114.4 45.9046 114.73 45.8246 115.31C45.7846 115.6 45.7646 115.95 45.7346 116.36C45.7046 116.77 45.6746 117.23 45.6746 117.73C45.6746 118.74 45.7746 119.91 45.9146 121.16C46.1146 122.41 46.4146 123.72 46.7746 125.02C47.2046 126.3 47.7146 127.55 48.2446 128.69C48.8346 129.8 49.4246 130.82 49.9846 131.66C50.2746 132.07 50.5546 132.44 50.8046 132.76C51.0546 133.08 51.2746 133.36 51.4646 133.58C51.8646 134.01 52.0846 134.26 52.0846 134.26C52.0846 134.26 51.9346 133.96 51.6646 133.44C51.5146 133.19 51.3546 132.88 51.1746 132.52C50.9946 132.16 50.7846 131.76 50.5946 131.31C50.1346 130.44 49.6846 129.39 49.2446 128.25C48.7846 127.12 48.3446 125.9 47.9846 124.65Z" fill="white"/>
<path d="M58.8545 126.89C58.4745 126.22 58.1145 125.53 57.7145 124.86C57.3245 124.19 56.9545 123.51 56.5945 122.81C56.2245 122.12 55.8645 121.43 55.5345 120.73C55.2145 120.03 54.8645 119.35 54.5745 118.68C54.2945 118 53.9845 117.35 53.7345 116.72C53.4845 116.09 53.2345 115.49 53.0145 114.94C52.5845 113.81 52.2245 112.87 51.9745 112.21C51.7245 111.54 51.5745 111.16 51.5745 111.16C51.5745 111.16 51.5345 111.57 51.5245 112.29C51.5145 113.01 51.5545 114.05 51.7245 115.27C51.8045 115.88 51.9145 116.55 52.0745 117.24C52.2245 117.93 52.4045 118.67 52.6545 119.4C52.8945 120.14 53.1445 120.91 53.4745 121.65C53.7945 122.4 54.1545 123.15 54.5245 123.9C54.9245 124.63 55.3445 125.35 55.7845 126.04C56.2045 126.73 56.6845 127.35 57.1045 127.97C57.9545 129.19 58.7045 130.31 59.2345 131.33C59.7545 132.36 60.0845 133.28 60.2345 133.96C60.3145 134.3 60.3645 134.57 60.3845 134.76C60.4145 134.95 60.4245 135.05 60.4245 135.05C60.4245 135.05 60.4545 134.95 60.5145 134.77C60.5645 134.58 60.6445 134.3 60.6945 133.94C60.8045 133.21 60.8045 132.12 60.4945 130.87C60.1945 129.62 59.5945 128.24 58.8545 126.89Z" fill="white"/>
<path d="M31.3245 130.24C31.0445 129.4 30.7245 128.57 30.3845 127.82C29.9845 127.09 29.5945 126.43 29.2245 125.88C28.8145 125.35 28.4545 124.94 28.2045 124.65C27.9245 124.38 27.7645 124.23 27.7645 124.23C27.7645 124.23 27.8345 124.44 27.9445 124.81C28.0845 125.16 28.2645 125.67 28.4445 126.29C28.6845 126.88 28.9045 127.58 29.1345 128.33C29.3945 129.07 29.6345 129.86 29.8245 130.67C30.0745 131.46 30.2945 132.26 30.4545 133.02C30.6645 133.78 30.8345 134.49 30.9345 135.12C31.1045 135.74 31.2045 136.27 31.2745 136.64C31.3645 137.02 31.4245 137.23 31.4245 137.23C31.4245 137.23 31.4845 137.02 31.5845 136.64C31.6545 136.26 31.7445 135.72 31.8145 135.06C31.8445 134.4 31.8345 133.63 31.7845 132.8C31.6845 131.98 31.5245 131.11 31.3245 130.24Z" fill="white"/>
<path d="M65.8645 107.21C65.8045 106.96 65.7745 106.81 65.7745 106.81C65.7745 106.81 65.7545 106.96 65.7145 107.21C65.6945 107.47 65.6245 107.83 65.5845 108.27C65.5545 108.71 65.4645 109.21 65.4345 109.76C65.3945 110.3 65.3445 110.88 65.2745 111.46C65.2445 112.04 65.1945 112.62 65.1445 113.16C65.0845 113.7 65.0845 114.22 65.0445 114.65C65.0045 115.09 65.0145 115.46 64.9945 115.72C64.9945 115.98 64.9945 116.13 64.9945 116.13C64.9945 116.13 65.0545 115.99 65.1445 115.75C65.2245 115.5 65.3645 115.16 65.4745 114.73C65.5845 114.3 65.7245 113.8 65.8145 113.25C65.9045 112.7 65.9845 112.12 66.0545 111.53C66.0845 110.94 66.1045 110.35 66.1145 109.79C66.1245 109.24 66.0545 108.72 66.0245 108.28C65.9845 107.83 65.9045 107.46 65.8645 107.21Z" fill="white"/>
<path d="M18.9345 125.42C18.8345 124.73 18.7845 123.91 18.7045 123.04C18.6245 122.17 18.5745 121.24 18.5545 120.31C18.5145 119.38 18.5045 118.45 18.5145 117.58C18.5445 116.71 18.5345 115.89 18.5845 115.19C18.6245 114.49 18.6445 113.9 18.6745 113.49C18.6945 113.08 18.7145 112.84 18.7145 112.84C18.7145 112.84 18.6545 113.07 18.5545 113.47C18.4645 113.87 18.3245 114.45 18.2245 115.15C18.1245 115.85 18.0045 116.67 17.9545 117.55C17.9045 118.43 17.8945 119.38 17.9045 120.33C17.9545 121.27 18.0345 122.22 18.1445 123.1C18.2545 123.98 18.4245 124.79 18.5745 125.48C18.7145 126.17 18.9045 126.74 19.0145 127.13C19.1445 127.52 19.2145 127.75 19.2145 127.75C19.2145 127.75 19.1845 127.52 19.1345 127.11C19.0745 126.7 19.0145 126.11 18.9345 125.42Z" fill="white"/>
<path d="M66.6545 99.52C66.9645 99.82 67.2345 100.11 67.4545 100.37C67.6845 100.63 67.8945 100.86 68.0445 101.07C68.3745 101.46 68.5645 101.68 68.5645 101.68C68.5645 101.68 68.4545 101.41 68.2545 100.94C68.1545 100.7 68.0045 100.43 67.8245 100.12C67.6545 99.8 67.4545 99.45 67.2045 99.08C66.7045 98.35 66.0445 97.55 65.2745 96.73C64.4745 95.95 63.5445 95.21 62.5645 94.52C61.5445 93.89 60.4745 93.37 59.4545 92.93C58.3945 92.57 57.4045 92.27 56.5345 92.1C56.0945 92.02 55.6945 91.98 55.3345 91.94C54.9745 91.9 54.6645 91.87 54.4145 91.87C53.9045 91.87 53.6045 91.87 53.6045 91.87C53.6045 91.87 53.8845 91.96 54.3745 92.11C54.6145 92.17 54.9145 92.26 55.2445 92.38C55.5745 92.49 55.9545 92.62 56.3445 92.79C57.1545 93.05 58.0645 93.47 59.0145 93.94C59.9645 94.4 60.9445 94.95 61.8745 95.58C62.8245 96.18 63.7345 96.84 64.5245 97.54C65.3545 98.2 66.0845 98.88 66.6545 99.52Z" fill="white"/>
<path d="M61.0245 97.44C60.6345 97.02 60.1345 96.55 59.5145 96.17C58.9045 95.78 58.2145 95.44 57.5145 95.14C56.8045 94.87 56.0845 94.63 55.4245 94.4C54.7645 94.17 54.1345 94 53.6045 93.8C53.0845 93.61 52.6345 93.45 52.3445 93.31C52.0445 93.19 51.8645 93.1 51.8645 93.1C51.8645 93.1 52.0145 93.22 52.2845 93.41C52.5545 93.59 52.9545 93.86 53.4645 94.12C53.9745 94.37 54.5745 94.66 55.2345 94.91C55.8945 95.16 56.5945 95.43 57.2745 95.72C57.9645 95.99 58.6345 96.29 59.2245 96.64C59.8145 96.98 60.3545 97.33 60.7645 97.7C61.1745 98.06 61.5045 98.4 61.6945 98.66C61.9045 98.91 62.0045 99.08 62.0045 99.08C62.0045 99.08 61.9445 98.9 61.8045 98.6C61.6545 98.3 61.4145 97.87 61.0245 97.44Z" fill="white"/>
<path d="M34.3446 93.93C35.2946 93.46 36.1946 93.05 37.0146 92.78C37.4146 92.61 37.7846 92.48 38.1146 92.37C38.4446 92.25 38.7346 92.16 38.9846 92.1C39.4746 91.94 39.7546 91.86 39.7546 91.86C39.7546 91.86 39.4646 91.86 38.9446 91.86C38.6846 91.87 38.3746 91.89 38.0246 91.93C37.6646 91.96 37.2646 92.01 36.8246 92.09C35.9546 92.25 34.9646 92.55 33.9046 92.92C32.8846 93.36 31.8146 93.88 30.7946 94.51C29.8146 95.19 28.8846 95.94 28.0846 96.72C27.3246 97.54 26.6546 98.33 26.1546 99.07C25.9146 99.44 25.7046 99.79 25.5346 100.11C25.3646 100.42 25.2146 100.7 25.1046 100.93C24.9046 101.4 24.7946 101.67 24.7946 101.67C24.7946 101.67 24.9846 101.45 25.3146 101.06C25.4646 100.86 25.6646 100.63 25.9046 100.36C26.1346 100.09 26.3946 99.8 26.7046 99.51C27.2746 98.87 28.0046 98.2 28.8146 97.53C29.6046 96.83 30.5246 96.17 31.4646 95.57C32.4146 94.94 33.3946 94.4 34.3446 93.93Z" fill="white"/>
<path d="M39.9045 94.12C40.4145 93.87 40.8145 93.6 41.0845 93.41C41.3545 93.22 41.5045 93.1 41.5045 93.1C41.5045 93.1 41.3345 93.18 41.0245 93.31C40.7245 93.45 40.2845 93.6 39.7645 93.8C39.2445 94 38.6145 94.17 37.9445 94.4C37.2845 94.63 36.5645 94.87 35.8545 95.14C35.1545 95.44 34.4645 95.79 33.8545 96.17C33.2445 96.55 32.7445 97.02 32.3445 97.44C31.9445 97.86 31.7145 98.29 31.5645 98.59C31.4245 98.89 31.3645 99.07 31.3645 99.07C31.3645 99.07 31.4645 98.91 31.6745 98.65C31.8645 98.39 32.1845 98.05 32.6045 97.69C33.0145 97.33 33.5545 96.98 34.1445 96.63C34.7345 96.28 35.4045 95.98 36.0945 95.71C36.7745 95.42 37.4745 95.15 38.1345 94.9C38.7945 94.66 39.3945 94.37 39.9045 94.12Z" fill="white"/>
<path d="M38.3546 50.51C39.6446 50.64 40.9946 50.89 42.4146 51.05C43.8346 51.21 45.3146 51.21 46.7546 51.11C49.6346 50.84 52.4146 50.22 55.0246 49.9C57.6146 49.52 60.0746 49.52 62.1746 49.72C64.2746 49.87 66.0146 50.23 67.2046 50.55C67.8046 50.69 68.2746 50.84 68.5946 50.94C68.9146 51.04 69.0846 51.1 69.0846 51.1C69.0846 51.1 68.9246 51.02 68.6246 50.88C68.3246 50.74 67.8746 50.54 67.2946 50.32C66.1246 49.89 64.4046 49.37 62.2746 49.02C60.1446 48.7 57.6146 48.57 54.9146 48.82C52.2346 49.09 49.4446 49.66 46.6646 49.86C45.2746 49.99 43.9046 50.01 42.5446 49.89C41.1846 49.77 39.8246 49.54 38.4646 49.43C35.7446 49.26 33.2346 49.51 31.1146 49.83C29.0046 50.19 27.2746 50.61 26.0646 50.89C24.8646 51.21 24.1746 51.39 24.1746 51.39C24.1746 51.39 24.8746 51.3 26.1146 51.14C27.3446 50.97 29.1046 50.71 31.2046 50.54C33.2946 50.32 35.7646 50.2 38.3546 50.51Z" fill="white"/>
<path d="M61.7545 54.26C60.9645 53.95 59.7746 53.61 58.3046 53.43C56.8346 53.28 55.1145 53.31 53.2945 53.47C51.4845 53.66 49.5845 53.95 47.6945 54.09C46.7545 54.19 45.8145 54.24 44.8945 54.24C43.9745 54.23 43.0645 54.15 42.1745 54.05C40.3945 53.89 38.7145 53.65 37.2645 53.53C35.8045 53.44 34.5845 53.47 33.7345 53.56C33.3145 53.61 32.9845 53.66 32.7545 53.71C32.5345 53.75 32.4146 53.77 32.4146 53.77C32.4146 53.77 32.5345 53.77 32.7645 53.77C32.9945 53.77 33.3245 53.77 33.7445 53.8C34.5845 53.83 35.7745 53.96 37.1745 54.23C38.5845 54.46 40.2245 54.83 42.0345 55.14C42.9345 55.27 43.8845 55.38 44.8645 55.42C45.8445 55.46 46.8246 55.43 47.8046 55.35C49.7546 55.15 51.6545 54.8 53.4245 54.56C55.1845 54.27 56.8445 54.11 58.2645 54.14C59.6845 54.12 60.8645 54.29 61.6845 54.49C62.0945 54.58 62.4145 54.66 62.6245 54.73C62.8445 54.8 62.9545 54.83 62.9545 54.83C62.9545 54.83 62.8445 54.77 62.6445 54.67C62.4545 54.57 62.1545 54.42 61.7545 54.26Z" fill="white"/>
<path d="M25.2446 68.78C25.7346 67.95 26.2246 67.11 26.6646 66.32C27.1146 65.53 27.5146 64.78 27.8646 64.15C28.2146 63.51 28.4846 62.97 28.6846 62.6C28.8746 62.22 28.9846 62 28.9846 62C28.9846 62 28.8446 62.2 28.6046 62.55C28.3746 62.9 28.0246 63.4 27.6346 64.01C27.2446 64.62 26.7746 65.33 26.3046 66.1C25.8246 66.87 25.3246 67.7 24.8246 68.53C24.3346 69.36 23.8446 70.2 23.3946 70.99C22.9446 71.78 22.5446 72.53 22.1946 73.16C21.8446 73.79 21.5746 74.34 21.3746 74.71C21.1846 75.09 21.0746 75.31 21.0746 75.31C21.0746 75.31 21.2146 75.11 21.4546 74.76C21.6846 74.41 22.0346 73.91 22.4246 73.3C22.8146 72.69 23.2846 71.98 23.7546 71.21C24.2446 70.44 24.7446 69.61 25.2446 68.78Z" fill="white"/>
<path d="M26.1346 70.21C26.7846 69.11 27.4046 67.99 27.8346 67.14C28.0546 66.71 28.2246 66.35 28.3446 66.1C28.4646 65.85 28.5246 65.7 28.5246 65.7C28.5246 65.7 28.4246 65.83 28.2646 66.05C28.1046 66.28 27.8646 66.6 27.5946 67C27.0546 67.79 26.3646 68.87 25.7146 69.97C25.0646 71.07 24.4446 72.19 24.0146 73.04C23.7946 73.47 23.6246 73.83 23.5046 74.08C23.3846 74.33 23.3246 74.48 23.3246 74.48C23.3246 74.48 23.4246 74.35 23.5946 74.13C23.7546 73.9 23.9946 73.58 24.2646 73.18C24.7946 72.38 25.4846 71.31 26.1346 70.21Z" fill="white"/>
<path d="M58.1146 68.78C58.6046 67.95 59.0946 67.11 59.5346 66.32C59.9846 65.53 60.3846 64.78 60.7346 64.15C61.0846 63.51 61.3546 62.97 61.5546 62.6C61.7446 62.22 61.8546 62 61.8546 62C61.8546 62 61.7146 62.2 61.4746 62.55C61.2446 62.9 60.8946 63.4 60.5046 64.01C60.1146 64.62 59.6446 65.33 59.1746 66.1C58.6946 66.87 58.1946 67.7 57.6946 68.53C57.2046 69.36 56.7146 70.2 56.2646 70.99C55.8146 71.78 55.4146 72.53 55.0646 73.16C54.7146 73.79 54.4446 74.34 54.2446 74.71C54.0546 75.09 53.9446 75.31 53.9446 75.31C53.9446 75.31 54.0846 75.11 54.3246 74.76C54.5546 74.41 54.9046 73.91 55.2946 73.3C55.6846 72.69 56.1546 71.98 56.6246 71.21C57.1146 70.44 57.6146 69.61 58.1146 68.78Z" fill="white"/>
<path d="M59.0046 70.21C59.6546 69.11 60.2746 67.99 60.7046 67.14C60.9246 66.71 61.0946 66.35 61.2146 66.1C61.3346 65.85 61.3946 65.7 61.3946 65.7C61.3946 65.7 61.2946 65.83 61.1346 66.05C60.9746 66.28 60.7346 66.6 60.4646 67C59.9246 67.79 59.2346 68.87 58.5846 69.97C57.9346 71.07 57.3146 72.19 56.8846 73.04C56.6646 73.47 56.4946 73.83 56.3746 74.08C56.2546 74.33 56.1946 74.48 56.1946 74.48C56.1946 74.48 56.2946 74.35 56.4646 74.13C56.6246 73.9 56.8646 73.58 57.1346 73.18C57.6646 72.38 58.3546 71.31 59.0046 70.21Z" fill="white"/>
</svg>
