<svg width="104" height="61" viewBox="0 0 104 61" fill="none" xmlns="http://www.w3.org/2000/svg">
<path d="M78.91 0C69.16 0 64.02 2.19 59.88 3.95C57.08 5.14 54.87 6.08 51.96 6.08C49.05 6.08 46.84 5.14 44.04 3.95C39.91 2.19 34.77 0 25.01 0C8.99999 0 0.779997 0.78 0.699997 0.79L0 0.86V1.56V7.88V8.42L0.509995 8.6C2.65999 9.38 4.04 14.9 5.14 19.33C5.45 20.56 5.73999 21.72 6.03999 22.77L6.12 23.06C7.59 28.27 9.26 34.18 25.14 34.18C41.05 34.18 43.58 31.04 46.3 22.75C48.46 16.18 50.31 12.99 51.96 12.99C53.61 12.99 55.46 16.18 57.62 22.75C60.34 31.05 62.88 34.18 78.78 34.18C94.66 34.18 96.33 28.27 97.8 23.06L97.88 22.77C98.18 21.71 98.47 20.55 98.78 19.33C99.89 14.89 101.27 9.37 103.41 8.6L103.92 8.42V7.88V1.56V0.86L103.22 0.79C103.14 0.78 94.92 0 78.91 0ZM92.68 28.35C92.55 28.56 92.4 28.75 92.22 28.94C92.03 29.12 91.92 29.32 91.66 29.49L91.07 29.91C90.15 30.41 89.2 30.77 88.22 31.03C87.25 31.31 86.25 31.51 85.23 31.69C83.21 32.03 81.13 32.24 79.06 32.33C76.98 32.41 74.9 32.38 72.86 32.24C70.81 32.08 68.83 31.85 66.88 31.21L66.22 30.92L65.89 30.78C65.78 30.72 65.68 30.64 65.57 30.58C65.14 30.3 64.71 30.03 64.38 29.68L63.85 29.19L63.4 28.65C63.25 28.47 63.1 28.29 62.96 28.11L62.58 27.54C61.6 26.01 60.96 24.43 60.47 22.95C59.98 21.47 59.69 20.06 59.46 18.82C59.26 17.57 59.11 16.48 59.05 15.58C58.97 14.68 58.96 13.97 58.96 13.48C58.96 13 58.96 12.74 58.96 12.74C58.96 12.74 58.97 13 59 13.48C59.03 13.96 59.09 14.67 59.2 15.56C59.42 17.35 59.88 19.9 60.89 22.8C61.41 24.24 62.08 25.78 63.06 27.22L63.43 27.76C63.56 27.94 63.71 28.09 63.86 28.26L64.3 28.76L64.8 29.2C65.46 29.81 66.21 30.23 67.14 30.59C68.88 31.13 70.91 31.38 72.91 31.51C74.92 31.64 76.98 31.64 79.03 31.55C81.08 31.48 83.13 31.3 85.11 30.98C86.1 30.82 87.08 30.63 88.03 30.37C88.98 30.13 89.88 29.78 90.67 29.38C92.26 28.4 93.02 26.62 93.69 25.03C94.33 23.4 94.78 21.79 95.12 20.29C95.78 17.28 96.09 14.71 96.13 12.91C96.16 12.01 96.14 11.3 96.1 10.82C96.05 10.34 96.02 10.08 96.02 10.08C96.02 10.08 96.06 10.33 96.14 10.81C96.2 11.29 96.28 12 96.28 12.91C96.3 14.72 96.15 17.32 95.55 20.38C95.24 21.91 94.83 23.55 94.22 25.24C93.92 26.09 93.53 26.93 93.07 27.77C92.96 27.95 92.82 28.15 92.68 28.35ZM90.87 27.77C89.18 29.32 83.17 30.44 76.56 30.44C72.83 30.44 69.52 30.06 67.49 29.41C61.91 27.61 60.03 16.66 60.03 11.95C60.03 7.14 69.18 3.78 82.28 3.78C92.89 3.78 94.3 5.5 94.99 9.42C95.77 13.8 93.96 24.94 90.87 27.77ZM86.3 1.92C83.89 1.9 81.28 1.92 78.52 1.95C75.76 2.01 72.89 2.23 69.97 2.79C67.04 3.35 64.13 4.34 61.28 5.66C59.84 6.3 58.4 7.01 56.85 7.57C55.31 8.14 53.64 8.5 51.95 8.51L50.71 8.44C50.3 8.41 49.87 8.31 49.45 8.25C48.62 8.08 47.82 7.86 47.05 7.57C45.5 7.01 44.06 6.3 42.62 5.66C39.77 4.33 36.86 3.34 33.93 2.79C31.01 2.23 28.12 2.01 25.38 1.95C22.61 1.92 20.01 1.91 17.6 1.92C12.78 1.96 8.76 2.01 5.95 2.13C3.14 2.23 1.53 2.34 1.53 2.34C1.53 2.34 3.12999 2.13 5.92999 1.9C8.73999 1.69 12.75 1.4 17.58 1.26C19.99 1.18 22.61 1.13 25.37 1.09C28.15 1.08 31.11 1.21 34.11 1.79C37.12 2.33 40.15 3.34 43.05 4.66C44.51 5.3 45.94 5.98 47.41 6.5C48.14 6.76 48.9 6.97 49.64 7.11C50.02 7.16 50.37 7.24 50.76 7.27L51.93 7.33C53.47 7.33 54.99 7.02 56.45 6.5C57.92 5.98 59.35 5.3 60.81 4.66C63.71 3.34 66.74 2.33 69.75 1.79C72.75 1.22 75.73 1.09 78.49 1.09C81.26 1.13 83.87 1.18 86.28 1.26C91.11 1.4 95.12 1.69 97.93 1.9C100.74 2.13 102.33 2.34 102.33 2.34C102.33 2.34 100.72 2.23 97.91 2.13C95.13 2.01 91.12 1.96 86.3 1.92ZM36.97 31.2C36.47 31.36 36.03 31.47 35.54 31.6C35.05 31.69 34.55 31.8 34.05 31.88C33.55 31.95 33.05 32.02 32.55 32.08C32.05 32.13 31.54 32.17 31.03 32.22C28.99 32.37 26.92 32.39 24.84 32.31C22.77 32.22 20.7 32.02 18.68 31.67C16.67 31.3 14.67 30.88 12.89 29.89C11.96 29.34 11.4 28.54 10.88 27.7C10.42 26.86 10.04 26.02 9.74001 25.17C9.13001 23.48 8.73 21.84 8.42 20.32C7.83 17.27 7.67 14.68 7.7 12.87C7.7 11.97 7.78 11.26 7.84 10.78C7.92 10.3 7.96001 10.05 7.96001 10.05C7.96001 10.05 7.93 10.31 7.89 10.79C7.85 11.27 7.83 11.98 7.86 12.88C7.9 14.68 8.21 17.24 8.86 20.24C9.2 21.74 9.64 23.35 10.28 24.98C10.94 26.57 11.71 28.36 13.24 29.32C14.86 30.2 16.83 30.62 18.8 30.96C20.78 31.28 22.83 31.46 24.87 31.54C26.91 31.63 28.96 31.63 30.97 31.5C31.47 31.46 31.97 31.42 32.47 31.38C32.96 31.32 33.45 31.26 33.94 31.19C34.42 31.1 34.89 31.02 35.36 30.93C35.82 30.81 36.33 30.69 36.75 30.56C38.48 29.95 39.82 28.61 40.78 27.18C41.75 25.74 42.41 24.21 42.93 22.77C43.93 19.87 44.39 17.32 44.6 15.54C44.72 14.65 44.77 13.94 44.8 13.46C44.82 12.98 44.84 12.72 44.84 12.72C44.84 12.72 44.84 12.98 44.84 13.46C44.83 13.94 44.83 14.65 44.75 15.55C44.69 16.45 44.54 17.54 44.34 18.79C44.11 20.03 43.83 21.43 43.34 22.91C42.85 24.39 42.22 25.97 41.25 27.5C40.29 29 38.91 30.51 36.97 31.2ZM43.88 11.95C43.88 16.67 42 27.61 36.42 29.41C34.39 30.06 31.09 30.44 27.35 30.44C20.74 30.44 14.72 29.32 13.04 27.77C9.95999 24.94 8.14 13.8 8.92 9.42C9.61 5.5 11.03 3.78 21.63 3.78C34.73 3.78 43.88 7.14 43.88 11.95Z" fill="white"/>
<path d="M17.85 19.56C18.61 18.34 19.4 17.03 20.19 15.72C20.96 14.4 21.74 13.08 22.45 11.83C23.16 10.58 23.79 9.39999 24.35 8.38999C24.91 7.37999 25.33 6.51999 25.64 5.92999C25.94 5.32999 26.11 4.98999 26.11 4.98999C26.11 4.98999 25.89 5.30999 25.51 5.85999C25.14 6.41999 24.59 7.19999 23.97 8.16999C23.35 9.13999 22.61 10.26 21.86 11.48C21.1 12.7 20.31 14.01 19.52 15.32C18.75 16.64 17.97 17.96 17.26 19.21C16.55 20.46 15.92 21.64 15.36 22.65C14.8 23.66 14.38 24.52 14.07 25.11C13.77 25.71 13.6 26.05 13.6 26.05C13.6 26.05 13.82 25.73 14.2 25.18C14.57 24.62 15.12 23.84 15.74 22.87C16.36 21.9 17.1 20.78 17.85 19.56Z" fill="white"/>
<path d="M21.6 17.97C22.63 16.23 23.61 14.46 24.3 13.11C24.65 12.44 24.91 11.86 25.11 11.46C25.3 11.06 25.4 10.82 25.4 10.82C25.4 10.82 25.24 11.02 24.98 11.38C24.73 11.74 24.34 12.25 23.92 12.88C23.06 14.13 21.97 15.84 20.94 17.58C19.91 19.32 18.93 21.09 18.24 22.44C17.89 23.11 17.63 23.69 17.43 24.09C17.24 24.49 17.14 24.73 17.14 24.73C17.14 24.73 17.3 24.53 17.56 24.17C17.81 23.81 18.2 23.3 18.62 22.67C19.48 21.41 20.57 19.71 21.6 17.97Z" fill="white"/>
<path d="M69.88 19.56C70.64 18.34 71.43 17.03 72.22 15.72C72.99 14.4 73.77 13.08 74.48 11.83C75.19 10.58 75.82 9.39999 76.38 8.38999C76.94 7.37999 77.36 6.51999 77.67 5.92999C77.97 5.32999 78.14 4.98999 78.14 4.98999C78.14 4.98999 77.92 5.30999 77.54 5.85999C77.17 6.41999 76.62 7.19999 76 8.16999C75.38 9.13999 74.65 10.26 73.89 11.48C73.13 12.7 72.34 14.01 71.55 15.32C70.78 16.64 70 17.96 69.29 19.21C68.58 20.46 67.95 21.64 67.39 22.65C66.83 23.65 66.41 24.52 66.1 25.11C65.8 25.71 65.63 26.05 65.63 26.05C65.63 26.05 65.85 25.73 66.23 25.18C66.6 24.62 67.15 23.84 67.77 22.87C68.39 21.9 69.13 20.78 69.88 19.56Z" fill="white"/>
<path d="M73.63 17.97C74.66 16.23 75.64 14.46 76.33 13.11C76.68 12.44 76.94 11.86 77.14 11.46C77.33 11.06 77.43 10.82 77.43 10.82C77.43 10.82 77.27 11.02 77.01 11.38C76.76 11.74 76.37 12.25 75.95 12.88C75.09 14.13 74 15.84 72.97 17.58C71.94 19.32 70.96 21.09 70.27 22.44C69.92 23.11 69.66 23.69 69.46 24.09C69.27 24.49 69.17 24.73 69.17 24.73C69.17 24.73 69.33 24.53 69.59 24.17C69.84 23.81 70.23 23.3 70.65 22.67C71.51 21.41 72.6 19.71 73.63 17.97Z" fill="white"/>
<path d="M74.93 50.41C64.44 50.41 63.05 41.18 56.94 41.18C54.68 41.18 53.04 41.89 51.96 43.03C50.88 41.89 49.24 41.18 46.98 41.18C40.87 41.18 39.48 50.41 28.99 50.41C21.33 50.41 15.23 44.54 15.23 44.54C15.23 51.54 22.16 60.27 35.04 60.27C44.39 60.27 49.6 58.07 51.97 54.62C54.34 58.07 59.55 60.27 68.9 60.27C81.78 60.27 88.71 51.54 88.71 44.54C88.7 44.54 82.59 50.41 74.93 50.41Z" fill="white"/>
</svg>
